<svg xmlns="http://www.w3.org/2000/svg" width="300" height="86"><path d="M120.865 24.597c-.88-.382-1.98-.602-4.133-.602h-7.88v10.03h7.439c2.259 0 3.585-.276 4.632-.769 1.766-.879 2.647-2.431 2.647-4.52 0-1.878-.995-3.364-2.705-4.139M118.94 9.55c-.83-.382-1.822-.604-3.42-.604h-6.668v9.482h6.284c1.982 0 3.196-.333 4.075-.832 1.435-.82 2.152-2.202 2.152-3.966 0-1.819-.829-3.304-2.423-4.08m-16.318 30.098V3.325h13.336c2.868 0 4.738.44 6.286 1.155 3.691 1.766 5.347 5.127 5.347 8.212 0 3.477-1.438 5.842-4.357 7.61v.11c4.187.933 6.724 3.853 6.724 8.266 0 4.905-2.974 8.653-8.046 10.2-1.82.548-3.803.77-6.947.77h-12.343zM166.304 3.325h6.228v36.323h-6.228zM211.526 3.325h6.221v36.323h-6.221zM237.864 2.994c3.915 0 7.884.94 10.083 2.039l-.104 5.953c-3.144-1.542-6.342-2.539-10.143-2.539-3.412 0-6.338 1.054-6.338 3.92 0 7.438 18.69 4.463 18.69 16.75 0 6.782-5.736 11.074-14.062 11.074-5.671 0-9.586-1.598-12.287-3.242l2.585-5.073c2.21 1.38 5.741 2.866 9.924 2.866 3.751 0 7.223-1.438 7.223-4.74 0-7.778-18.519-4.357-18.519-16.757 0-6.616 5.287-10.25 12.948-10.25M279.534 3.325h6.228v36.323h-6.228V23.995h-17.64v15.653h-6.228V3.325h6.228v14.882h17.64z" fill="#004280"/><g fill="#004280"><path d="M116.374 46.028c3.967 0 6.997.777 10.089 2.148l-1.879 5.293c-1.764-.823-4.08-1.814-7.545-1.814-6.893 0-11.188 5.839-11.188 12.948 0 7.171 4.019 13.008 11.188 13.008 3.464 0 5.781-.987 7.545-1.822l1.879 5.299c-3.092 1.373-6.122 2.144-10.089 2.144-10.862 0-17.085-7.603-17.085-18.517 0-10.195 6.223-18.687 17.085-18.687M252.65 46.028c3.968 0 6.998.777 10.082 2.148l-1.87 5.293c-1.767-.823-4.084-1.814-7.556-1.814-6.89 0-11.188 5.839-11.188 12.948 0 7.171 4.025 13.008 11.188 13.008 3.472 0 5.79-.987 7.555-1.822l1.87 5.299c-3.083 1.373-6.113 2.144-10.082 2.144-10.864 0-17.091-7.603-17.091-18.517 0-10.195 6.227-18.687 17.091-18.687M155.499 64.6c0-7.933-4.514-13.003-10.636-13.003-6.115 0-10.639 5.07-10.639 13.06 0 7.944 4.524 13.008 10.64 13.008 6.123 0 10.635-5.064 10.635-13.064m6.564-.115c0 10.92-6.949 18.744-17.197 18.744-10.36 0-17.196-7.551-17.196-18.459 0-10.913 6.943-18.743 17.196-18.743 10.367 0 17.197 7.555 17.197 18.458M166.273 69.008V46.36h6.228v22.873c0 6.057 3.254 8.322 8.432 8.322 5.293 0 8.437-2.265 8.437-8.322V46.36h6.228v22.648c0 9.87-5.627 14.222-14.769 14.222-8.989 0-14.556-4.351-14.556-14.222M207.303 56.23h-.11c.11 1.208.164 3.138.164 4.85v21.6h-6.228V46.363h6.727l16.857 24.745h.114c-.114-1.213-.164-3.144-.164-4.856V46.364h6.223V82.68h-5.506l-18.077-26.448z"/></g><path fill="#004280" d="M267.625 46.36h6.218v36.324h-6.218zM285.762 77.056h14.218v5.628h-20.446V46.36h6.228zM177.28 3.331v5.677h11.625v30.64h6.227V9.008h11.63V3.331zM146.89 8.952h-6.45v11.026h6.171c4.468 0 6.56-2.317 6.56-5.625 0-2.976-1.928-5.401-6.282-5.401m8.206 30.696c-5.286-10.963-6.666-14.053-8.87-14.053h-5.786v14.053h-6.223V3.333H146.5c9.365 0 12.952 4.96 12.952 10.47 0 4.85-2.81 8.101-6.724 9.306v.06c1.65.94 3.412 4.356 9.475 16.48h-7.109z"/><path d="M41.545 20.774c0 11.472-9.3 20.773-20.773 20.773C9.302 41.547 0 32.247 0 20.774 0 9.3 9.301 0 20.772 0c11.472.002 20.773 9.301 20.773 20.774M86 20.774c0 11.472-9.301 20.773-20.774 20.773-11.47 0-20.771-9.3-20.771-20.773C44.455 9.3 53.755 0 65.226 0 76.7.002 86 9.301 86 20.774M41.545 65.228c0 11.475-9.3 20.772-20.773 20.772C9.302 86 0 76.703 0 65.228c0-11.474 9.301-20.771 20.772-20.771 11.472 0 20.773 9.297 20.773 20.771M86 65.228C86 76.703 76.699 86 65.226 86c-11.47 0-20.771-9.297-20.771-20.772 0-11.474 9.3-20.771 20.771-20.771C76.7 44.457 86 53.754 86 65.228" fill="#00a5e6"/></svg>