<svg xmlns="http://www.w3.org/2000/svg" width="180.212" height="259.052"><path d="M13.809 198.201c3.687 0 6.411 1.145 8.918 3.424.322.302.322.733.031 1.031l-2.873 2.987a.642.642 0 0 1-.917 0c-1.362-1.219-3.17-1.872-4.975-1.872-4.169 0-7.229 3.45-7.229 7.586 0 4.082 3.092 7.475 7.267 7.475 1.725 0 3.607-.618 4.937-1.768.249-.215.733-.215.953.036l2.87 3.054c.258.275.22.746-.033.994-2.51 2.439-5.671 3.594-8.949 3.594C6.432 224.742.5 218.871.5 211.506a13.272 13.272 0 0 1 13.309-13.305m29.41 0c-7.358 0-13.226 5.928-13.226 13.306 0 7.373 5.867 13.236 13.226 13.236 7.355 0 13.262-5.863 13.262-13.236-.001-7.378-5.907-13.306-13.262-13.306m0 20.632c-4.022 0-7.332-3.316-7.332-7.326 0-4.052 3.31-7.404 7.332-7.404 4.052 0 7.355 3.353 7.355 7.404 0 4.01-3.304 7.326-7.355 7.326m20.902 4.719c-.068.482.257.812.69.812h4.35c.377 0 .671-.303.704-.584l1.622-11.395h.068l6.245 11.944c.104.215.393.413.623.413h.65c.188 0 .528-.198.631-.413l6.195-11.944h.07l1.665 11.395c.031.281.357.584.692.584h4.349c.436 0 .776-.33.698-.812l-4.162-24.762c-.033-.34-.364-.589-.664-.589h-.586c-.194 0-.516.14-.626.369l-8.554 15.93h-.068l-8.554-15.93c-.11-.229-.438-.369-.623-.369h-.592c-.292 0-.631.249-.657.589zm38.772.106c0 .376.289.703.704.703h15.247a.707.707 0 0 0 .704-.703v-4.013a.711.711 0 0 0-.704-.697h-10.2v-4.979h8.406a.683.683 0 0 0 .683-.692v-4.029c0-.357-.324-.689-.683-.689h-8.406v-4.577h10.2a.702.702 0 0 0 .704-.691v-4.028a.707.707 0 0 0-.704-.693h-15.246a.693.693 0 0 0-.704.693v24.395zm26.392 0c0 .376.295.703.659.703h8.991c7.105 0 12.928-5.787 12.928-12.93 0-7.072-5.822-12.861-12.928-12.861h-8.991c-.364 0-.659.328-.659.696zm5.744-4.746v-14.93h3.533c4.161 0 7.188 3.286 7.188 7.449 0 4.193-3.026 7.48-7.188 7.48h-3.533zm30.37 4.742c0 .38.29.707.701.707h4.377a.722.722 0 0 0 .705-.707v-11.748l8.255-12.259c.299-.488 0-1.077-.588-1.077h-4.794c-.332 0-.472.186-.59.328l-5.111 7.557-5.136-7.557c-.104-.15-.29-.328-.584-.328h-4.783c-.595 0-.891.589-.595 1.077l8.143 12.29zm1.574 34.898a12.714 12.714 0 0 0 12.739-12.742c0-7.062-5.688-12.672-12.739-12.672-3.14 0-6.166 1.099-8.573 3.426-.237.238-.281.697-.031.956l2.744 2.936c.221.235.676.235.917.033 1.276-1.094 3.079-1.7 4.749-1.7 3.978 0 6.939 3.247 6.939 7.166 0 3.954-2.929 7.269-6.926 7.269a7.243 7.243 0 0 1-4.763-1.796.611.611 0 0 0-.878 0l-2.752 2.852a.654.654 0 0 0 .032.983c2.408 2.192 5.005 3.289 8.542 3.289m-17.405-24.384a.666.666 0 0 0-.671-.67h-14.596a.668.668 0 0 0-.673.67v3.842c0 .348.282.675.673.675h9.765v4.758h-8.041a.668.668 0 0 0-.673.671v3.855c0 .346.318.656.673.656h8.041v4.388h-9.765a.665.665 0 0 0-.673.658v3.862c0 .345.282.656.673.656h14.596a.66.66 0 0 0 .671-.656zm-25.263 0a.699.699 0 0 0-.669-.67h-4.197a.665.665 0 0 0-.669.67v13.168h-.041l-13.942-14.023c-.077-.064-.342-.176-.457-.176h-.564c-.347 0-.662.277-.662.644v23.751c0 .344.315.656.662.656h4.237a.658.658 0 0 0 .671-.656v-12.524h.032l14.084 13.544h.885c.349 0 .661-.284.661-.632zm-35.035-.003a.693.693 0 0 0-.671-.671h-4.233c-.351 0-.675.318-.675.671v18.851h-5.044a.655.655 0 0 0-.662.658v3.858c0 .344.273.656.662.656h15.668c.383 0 .67-.312.67-.656v-3.858a.665.665 0 0 0-.67-.658h-5.046v-18.851zm-18.935.003a.663.663 0 0 0-.665-.67h-4.206a.698.698 0 0 0-.672.67v9.002h-2.431l-4.688-9.357a.66.66 0 0 0-.561-.314h-4.705c-.6 0-.839.552-.6 1.025l4.833 8.951c-3.067 1.239-5.203 3.858-5.203 7.088 0 4.206 3.444 7.626 7.679 7.626h10.553a.658.658 0 0 0 .665-.656v-23.365zm-5.576 13.474v5.494h-5.213c-1.455 0-2.685-1.178-2.685-2.669 0-1.48 1.23-2.825 2.685-2.825zm-18.952-13.228c.201-.463-.072-.916-.605-.916h-3.881c-.707 0-1.091.406-1.271.841l-1.273 2.819h-9.585l-1.275-2.785c-.322-.675-.6-.875-1.236-.875h-3.914c-.528 0-.808.453-.606.916l11.052 23.747c.106.204.353.391.59.391h.353c.24 0 .501-.186.609-.391l11.042-23.747m-9.13 7.543l-2.657 5.829h-.031l-2.684-5.829zm-21.136-7.789a.674.674 0 0 0-.681-.67H1.595a.657.657 0 0 0-.655.67v3.842c0 .348.271.67.655.67h8.402v18.848c0 .35.318.661.668.661h4.195a.67.67 0 0 0 .681-.661zm71.45-58.074c48.406 0 87.8-39.383 87.8-87.792C174.791 39.887 135.397.5 86.991.5 55.132.5 25.705 17.815 10.213 45.689l15.765 8.759c12.317-22.146 35.693-35.917 61.014-35.917 38.463 0 69.765 31.3 69.765 69.771 0 38.462-31.302 69.752-69.765 69.752a69.775 69.775 0 0 1-61.39-36.59l-15.858 8.597c15.388 28.393 44.983 46.033 77.247 46.033m-.136-44.374a43.386 43.386 0 0 0 38.275-22.903l-15.88-8.531c-4.453 8.263-13.029 13.402-22.396 13.402-14.001 0-25.391-11.392-25.391-25.39 0-13.997 11.39-25.392 25.391-25.392a25.447 25.447 0 0 1 22.181 13.019l15.739-8.796a43.474 43.474 0 0 0-37.92-22.251c-23.949 0-43.435 19.474-43.435 43.42s19.487 43.422 43.436 43.422"/></svg>