<svg xmlns="http://www.w3.org/2000/svg" viewBox="0 0 461 372" version="1.1"><g fill="#fff" transform="matrix(.13333 0 0 -.13333 0 372.28)"><path d="M844.473 2292.11c-9.899 50-49.993 75.24-98.993 75.24-84.152 0-119.792-69.3-119.792-143.05 0-80.68 35.64-148.01 120.285-148.01 61.875 0 97.511 43.56 101.965 101.98h47.027c-8.91-88.11-63.856-141.59-152.953-141.59-109.887 0-163.352 81.2-163.352 184.14 0 102.48 58.41 186.13 167.313 186.13 73.754 0 134.636-39.6 145.527-114.84h-47.027m88.457 8.91h39.597v-53.97h.993c20.293 41.1 48.51 61.39 94.05 59.91v-44.55c-67.812 0-92.566-38.62-92.566-103.46V2045.1H932.93v255.92m263.58-224.73c44.05 0 79.69 34.65 79.69 96.53 0 62.36-35.64 97.01-79.69 97.01-44.06 0-79.7-34.65-79.7-97.01 0-61.88 35.64-96.53 79.7-96.53zm0 230.67c81.18 0 124.24-58.91 124.24-134.14 0-74.75-43.06-133.66-124.24-133.66-81.18 0-124.24 58.91-124.24 133.66 0 75.23 43.06 134.14 124.24 134.14m406.43-261.86h-44.55l-51.97 203.46h-.99l-51.48-203.46h-45.54l-82.17 255.92h46.53l57.91-209.38h.99l51.48 209.38h46.04l53.46-209.38h.99l57.42 209.38h43.56l-81.68-255.92m109.65 255.92h39.6v-40.59h.99c17.82 31.68 46.53 46.53 83.16 46.53 67.32 0 88.11-38.62 88.11-93.56v-168.3h-42.07v173.26c0 31.18-19.8 51.47-51.98 51.47-50.98 0-75.73-34.14-75.73-80.18V2045.1h-42.08v255.92m-868.117-528.91c-9.899 49.98-49.993 75.24-98.993 75.24-84.152 0-119.792-69.3-119.792-143.05 0-80.68 35.64-148.01 120.285-148.01 61.875 0 97.511 43.56 101.965 101.98h47.027c-8.91-88.11-63.856-141.59-152.953-141.59-109.887 0-163.352 81.2-163.352 184.15 0 102.46 58.41 186.13 167.313 186.13 73.754 0 134.636-39.61 145.527-114.85h-47.027m201.517-215.82c44.05 0 79.69 34.65 79.69 96.53 0 62.36-35.64 97.01-79.69 97.01-44.06 0-79.701-34.65-79.701-97.01 0-61.88 35.641-96.53 79.701-96.53zm0 230.67c81.17 0 124.24-58.91 124.24-134.14 0-74.75-43.07-133.66-124.24-133.66-81.185 0-124.252 58.91-124.252 133.66 0 75.23 43.067 134.14 124.252 134.14m162.11-5.94h39.6v-37.62h.99c18.81 28.71 47.52 43.56 82.66 43.56 31.18 0 59.9-12.38 70.29-43.56 17.32 27.23 47.52 43.56 80.19 43.56 50.98 0 85.14-21.29 85.14-74.24V1525.1h-42.08v167.81c0 31.68-8.41 56.92-49.5 56.92-40.59 0-66.82-25.74-66.82-65.33v-159.4h-42.08v167.81c0 33.17-10.39 56.92-48.01 56.92-49.99 0-68.31-46.04-68.31-65.33v-159.4h-42.07v255.92m410.4 0h39.6v-37.62h.99c18.81 28.71 47.52 43.56 82.66 43.56 31.18 0 59.9-12.38 70.29-43.56 17.33 27.23 47.52 43.56 80.19 43.56 50.98 0 85.14-21.29 85.14-74.24V1525.1h-42.08v167.81c0 31.68-8.41 56.92-49.5 56.92-40.58 0-66.82-25.74-66.82-65.33v-159.4h-42.08v167.81c0 33.17-10.39 56.92-48.01 56.92-49.99 0-68.31-46.04-68.31-65.33v-159.4h-42.07v255.92m587.95-103.46c-1.98 40.1-32.18 72.27-73.75 72.27-44.06 0-70.3-33.17-73.27-72.27zm40.59-71.27c-11.39-56.44-51.98-87.13-109.39-87.13-81.68 0-120.29 56.43-122.77 134.65 0 76.72 50.5 133.15 120.29 133.15 90.58 0 118.3-84.65 115.83-146.53h-191.57c-1.48-44.55 23.76-84.14 79.7-84.14 34.65 0 58.9 16.84 66.33 50h41.58m37.87 174.73h39.6v-53.96h.99c20.29 41.09 48.5 61.38 94.05 59.9v-44.55c-67.82 0-92.57-38.62-92.57-103.46V1525.1h-42.07v255.92m327.18-82.17c-6.43 32.17-28.71 50.98-63.35 50.98-60.89 0-79.7-48.01-79.7-99.98 0-47.03 21.28-93.56 74.74-93.56 40.6 0 64.85 23.75 70.29 62.37h43.07c-9.41-62.37-48.51-99.5-112.86-99.5-78.21 0-119.79 54.46-119.79 130.69 0 76.72 39.6 137.11 120.78 137.11 57.91 0 104.44-27.23 110.38-88.11h-43.56m82.67 82.17h42.07V1525.1h-42.07zm42.07 46.03h-42.07v51.49h42.07v-51.49m211.11-169.78c-16.33-11.87-48.01-12.38-76.23-17.32-27.72-4.95-51.48-14.85-51.48-46.04 0-27.71 23.76-37.62 49.5-37.62 55.44 0 78.21 34.65 78.21 57.91zm68.31-131.17c-7.43-4.45-16.83-6.94-30.2-6.94-21.78 0-35.63 11.88-35.63 39.61-23.27-27.22-54.45-39.61-90.09-39.61-46.54 0-84.65 20.81-84.65 71.78 0 57.91 43.07 70.3 86.62 78.71 46.53 8.91 86.13 5.94 86.13 37.62 0 36.62-30.19 42.56-56.92 42.56-35.64 0-61.88-10.88-63.85-48.5h-42.08c2.48 63.36 51.48 85.63 108.4 85.63 46.04 0 96.03-10.39 96.03-70.3V1585c0-19.8 0-28.71 13.37-28.71 3.47 0 7.43.49 12.87 2.48v-32.67m31.13-1h42.082v353.438h-42.082zM800.422 1255.08c-5.445 50.49-39.106 72.27-87.613 72.27-39.602 0-79.2-14.36-79.2-60.39 0-43.56 56.43-50 113.356-62.87 56.426-12.87 112.855-32.66 112.855-101.96 0-75.25-73.757-105.45-138.101-105.45-79.199 0-146.028 38.62-146.028 124.75h44.551c0-59.39 49.5-85.14 102.961-85.14 42.567 0 89.59 13.36 89.59 64.36 0 48.5-56.426 56.91-112.855 69.3-56.43 12.36-113.356 28.71-113.356 93.55 0 71.78 63.856 103.46 128.203 103.46 72.27 0 127.219-34.16 130.188-111.88h-44.551m276.508-97.52c-1.98 40.1-32.18 72.27-73.76 72.27-44.053 0-70.287-33.17-73.26-72.27zm40.58-71.27c-11.38-56.44-51.97-87.13-109.38-87.13-81.681 0-120.294 56.43-122.771 134.65 0 76.72 50.496 133.15 120.291 133.15 90.58 0 118.3-84.65 115.82-146.53H929.91c-1.48-44.55 23.762-84.14 79.7-84.14 34.65 0 58.9 16.84 66.33 50h41.57m37.87 174.73h39.6v-53.96h.99c20.29 41.09 48.51 61.38 94.05 59.9v-44.55c-67.81 0-92.56-38.62-92.56-103.46V1005.1h-42.08v255.92m286.35-255.92h-45.05l-95.03 255.92h47.02l71.77-213.34h1l69.79 213.34h44.05l-93.55-255.92m121.42 255.92h42.08V1005.1h-42.08zm42.08 46.04h-42.08v51.48h42.08v-51.48m227.2-128.21c-6.44 32.17-28.71 50.98-63.36 50.98-60.89 0-79.7-48.01-79.7-99.98 0-47.03 21.28-93.56 74.75-93.56 40.59 0 64.84 23.75 70.28 62.37h43.07c-9.4-62.37-48.51-99.5-112.86-99.5-78.21 0-119.79 54.46-119.79 130.69 0 76.72 39.6 137.11 120.78 137.11 57.92 0 104.44-27.23 110.39-88.11h-43.56m259.77-21.29c-1.99 40.1-32.18 72.27-73.76 72.27-44.06 0-70.29-33.17-73.26-72.27zm40.58-71.27c-11.38-56.44-51.97-87.13-109.39-87.13-81.67 0-120.28 56.43-122.76 134.65 0 76.72 50.49 133.15 120.29 133.15 90.58 0 118.3-84.65 115.82-146.53h-191.56c-1.48-44.55 23.76-84.14 79.7-84.14 34.65 0 58.9 16.84 66.33 50h41.57M343.285 481.781h34.684v1923.99h-34.684zm498.117 245.051c-.5 62.148-33.316 82.039-93.98 82.039-43.762 0-90.504-20.371-90.504-71.09 0-37.801 29.84-49.742 59.676-58.679l37.785-11.442c48.734-14.922 95.476-30.828 95.476-90.5 0-34.808-21.882-109.379-137.242-109.379-79.562 0-137.734 38.289-133.761 124.301h33.816c-3.484-69.121 37.793-95.461 102.43-95.461 46.246 0 100.941 22.879 100.941 76.059 0 50.23-48.73 59.179-88.008 70.621l-34.816 10.437c-41.266 11.922-70.11 36.801-70.11 82.543 0 71.11 62.657 101.449 125.805 101.449 72.106 0 130.285-28.859 126.305-110.898h-33.813M1071.61 475.23h-28.84l8.95 46.739h-1c-19.39-30.321-53.204-54.188-91.49-54.188-44.753 0-77.57 19.891-77.57 69.098 0 7.953 1.492 18.422 3.977 30.34l35.304 164.582h31.325l-35.801-165.582c-1.988-7.949-3.477-17.41-3.477-25.848 0-33.82 25.86-46.242 53.7-46.242 45.252 0 86.522 40.769 100.442 105.902l28.35 131.77h31.32l-55.19-256.571m102.91 92.989c0-44.75 25.86-74.09 71.61-74.09 72.1 0 109.39 79.562 109.39 142.191 0 43.762-21.87 76.59-69.11 76.59-72.1 0-111.89-81.051-111.89-144.691zm1.99 163.582h28.35l-9.94-46.242h.99c21.87 33.82 48.23 53.711 93.48 53.711 65.63 0 97.46-42.258 97.46-104.918 0-78.571-54.2-166.571-140.22-166.571-40.28 0-75.09 16.891-82.05 58.66h-1l-31.32-146.179h-31.33l75.58 351.539m268.5-163.582c0-44.75 25.86-74.09 71.61-74.09 72.1 0 109.4 79.562 109.4 142.191 0 43.762-21.88 76.59-69.13 76.59-72.1 0-111.88-81.051-111.88-144.691zm1.99 163.582h28.35l-9.95-46.242h1c21.88 33.82 48.23 53.711 93.48 53.711 65.64 0 97.46-42.258 97.46-104.918 0-78.571-54.2-166.571-140.23-166.571-40.27 0-75.08 16.891-82.04 58.66h-1l-31.32-146.179h-31.33L1447 731.801m288.89 98.461h31.33l-76.58-355.032h-31.33l76.58 355.032m77.08 0h31.33l-10.94-50.231h-31.33zm-21.38-98.461h31.33l-55.2-256.571h-31.33l55.2 256.571m238.68-110.379c0 6.949.49 13.43.49 19.887 0 42.75-26.84 71.601-70.11 71.601-51.71 0-87.02-43.75-97.96-91.488zm-171.55-26.352c-1-5.968-1.49-12.941-1.49-19.89 0-46.258 23.86-81.051 74.58-81.051 40.78 0 72.11 26.351 84.04 63.641h31.32c-16.9-57.18-56.18-89.989-116.85-89.989-67.63 0-104.42 42.258-104.42 108.879 0 81.051 50.72 162.61 138.73 162.61 61.66 0 97.46-40.282 97.46-99.961 0-14.411-.5-28.829-2.49-44.239h-200.88m253.09 136.731h28.34l-12.93-59.16h1c19.89 36.789 47.23 63.14 92.98 62.66 5.47 0 11.44 0 16.91-.512l-6.96-31.32c-5.97 0-11.94.48-17.9.48-56.2-.988-86.03-46.238-96.47-94.461l-28.85-134.258h-31.32l55.2 256.571"/></g></svg>