<svg xmlns="http://www.w3.org/2000/svg" viewBox="3047.5 -10808 124.769 74.793"><defs><style>.cls-1{fill:#005984}</style></defs><g id="Group_1379" data-name="Group 1379" transform="translate(2732.5 -13150)"><path id="Path_107" data-name="Path 107" class="cls-1" d="M17.115 6.5C16.773 2.567 13.521 0 9.071 0 3.765 0 0 4.108 0 9.927s3.765 9.927 9.071 9.927c4.621-.171 7.873-3.252 8.044-7.873H13.35c-.171 2.225-1.369 4.45-4.279 4.45-3.765 0-5.135-3.594-5.135-6.5 0-3.081 1.369-6.5 5.135-6.5a3.923 3.923 0 0 1 4.108 3.423z" transform="translate(315 2342)"/><path id="Path_108" data-name="Path 108" class="cls-1" d="M15.236 10.74h7.531v8.386H26.7V.3h-3.933v7.188h-7.531V.3H11.3v18.827h3.936z" transform="translate(323.04 2342.214)"/><path id="Path_109" data-name="Path 109" class="cls-1" d="M26.748 14.334h6.846l1.712 4.792h4.108L32.225.3h-3.937L21.1 19.127h4.108zm5.652-3.251h-4.625L30 4.579z" transform="translate(330.013 2342.214)"/><path id="Path_110" data-name="Path 110" class="cls-1" d="M36.019 19.127h3.765V3.552H45.6V.3H30.2v3.252h5.819z" transform="translate(336.488 2342.214)"/><path id="Path_111" data-name="Path 111" class="cls-1" d="M44.236 10.74h7.531v8.386H55.7V.3h-3.933v7.188h-7.531V.3H40.3v18.827h3.936z" transform="translate(343.674 2342.214)"/><path id="Path_112" data-name="Path 112" class="cls-1" d="M57.188.3L50 19.127h4.108l1.712-4.792h6.675l1.711 4.792h4.108L60.954.3h-3.766zm4.279 10.783h-4.621l2.225-6.5z" transform="translate(350.575 2342.214)"/><path id="Path_113" data-name="Path 113" class="cls-1" d="M76.048.3l-4.792 11.467L66.463.3H61.5v18.827h3.594V6.29l4.621 10.61H72.8l4.446-10.61v12.837h3.765V.3z" transform="translate(358.758 2342.214)"/><path id="Path_114" data-name="Path 114" class="cls-1" d="M12.067 21.788H4.536V14.6H.6v18.827h3.936v-8.216h7.531v8.215H16V14.6h-3.933z" transform="translate(315.427 2352.388)"/><path id="Path_115" data-name="Path 115" class="cls-1" d="M20.171 14.3c-5.306 0-9.071 4.108-9.071 9.927s3.765 9.927 9.071 9.927 9.071-4.108 9.071-9.927-3.765-9.927-9.071-9.927m0 16.43c-3.765 0-5.135-3.594-5.135-6.5s1.369-6.5 5.135-6.5 5.135 3.594 5.135 6.5-1.369 6.5-5.135 6.5" transform="translate(322.898 2352.175)"/><path id="Path_116" data-name="Path 116" class="cls-1" d="M34.909 25.554c0 2.738-.342 4.963-3.936 4.963s-3.936-2.225-3.936-4.963V14.6H23.1v11.981c0 4.621 2.91 7.359 7.873 7.359s7.873-2.738 7.873-7.359V14.6h-3.937z" transform="translate(331.436 2352.388)"/><path id="Path_117" data-name="Path 117" class="cls-1" d="M33.6 27.236c0 4.279 3.081 6.846 7.873 6.846 3.423 0 7.531-1.54 7.531-5.99a5.247 5.247 0 0 0-3.765-4.963c-1.027-.342-4.963-1.369-5.306-1.369-1.2-.342-1.883-1.027-1.883-2.054 0-1.883 2.225-2.054 2.91-2.054 2.225 0 3.423.856 3.594 2.91h3.936c0-3.765-2.91-6.161-7.359-6.161-3.423 0-7.017 1.712-7.017 5.648 0 1.712.685 3.936 4.279 4.963.856.171 1.712.513 2.4.685a20.875 20.875 0 0 1 2.91.856 1.818 1.818 0 0 1 1.2 1.883c0 1.54-1.369 2.4-3.423 2.4-1.54 0-4.279-.513-4.279-3.594H33.6z" transform="translate(338.907 2352.246)"/><path id="Path_118" data-name="Path 118" class="cls-1" d="M48.136 25.383h9.071v-3.252h-9.071v-4.108h9.927V14.6H44.2v18.827h14.034V30h-10.1z" transform="translate(346.449 2352.388)"/><path id="Path_119" data-name="Path 119" class="cls-1" d="M7.459 29.9v2.225h-.684L6.6 30.756l-.171-.171h-2.05v7.7l.342.171h.856v.685H1.983v-.685H3.01l.171-.171v-7.7H1.3l-.342.171-.173 1.369H.1V29.9z" transform="translate(315.071 2363.274)"/><path id="Path_120" data-name="Path 120" class="cls-1" d="M6.754 29.4v4.108a4.53 4.53 0 0 1 2.225-.856c1.2 0 1.712.685 1.712 2.054v3.765l.171.171h.685v.513H8.808v-.171h.685l.171-.171v-3.594c0-1.027-.342-1.369-1.369-1.369a3.249 3.249 0 0 0-1.54.513v4.621l.171-.171h.684v.513H4.7v-.342h.685l.171-.171v-8.386H4.7v-.342l1.369-.513h.685z" transform="translate(318.344 2362.918)"/><path id="Path_121" data-name="Path 121" class="cls-1" d="M14.848 37.319a5.093 5.093 0 0 1-2.567.856A3.012 3.012 0 0 1 9.2 34.923a3.161 3.161 0 0 1 3.081-3.423 2.3 2.3 0 0 1 2.4 2.567v.513H10.4a3.336 3.336 0 0 0 .171 1.369 2.013 2.013 0 0 0 2.054 1.54 3.657 3.657 0 0 0 2.225-.856zm-1.2-3.594a2.2 2.2 0 0 0-.171-1.2 1.146 1.146 0 0 0-1.2-.685c-1.027 0-1.54.685-1.712 1.883z" transform="translate(321.546 2364.412)"/><path id="Path_122" data-name="Path 122" class="cls-1" d="M17.923 29.9c2.225 0 3.252.856 3.252 2.4 0 1.2-.685 1.883-2.225 2.4 1.2.342 1.54.856 1.883 2.054.342 1.54.685 1.712 2.054 1.712v.513a2.544 2.544 0 0 1-1.027.171c-1.2 0-1.712-.513-2.225-2.054-.342-1.027-.342-1.369-.685-1.54a2.092 2.092 0 0 0-1.54-.513h-.685v3.252l.171.171h.856v.513H14.5v-.513h.856l.171-.171v-7.539l-.171-.171H14.5v-.513h3.423zm-1.2 4.45h.856c1.54 0 2.4-.513 2.4-1.883s-.685-1.883-2.567-1.883h-.685v3.766z" transform="translate(325.317 2363.274)"/><path id="Path_123" data-name="Path 123" class="cls-1" d="M25.933 34.823a3.193 3.193 0 0 1-3.252 3.423c-1.883 0-3.081-1.369-3.081-3.423a3.193 3.193 0 0 1 3.252-3.423 3.161 3.161 0 0 1 3.081 3.423m-5.133-.171c0 1.712.685 2.738 1.883 2.738s1.883-1.027 1.883-2.738-.685-2.738-1.883-2.738-1.883 1.2-1.883 2.738" transform="translate(328.946 2364.342)"/><path id="Path_124" data-name="Path 124" class="cls-1" d="M26.31 31.4v.513h-.685l-.171.171 1.712 4.279 1.712-4.279-.171-.171h-.685V31.4h2.4v.513l-.856.171-2.738 6.675c-.685 1.54-1.369 2.225-2.225 2.225a.783.783 0 0 1-.856-.685.889.889 0 0 1 .342-.685l1.369.513a7.527 7.527 0 0 0 1.027-2.054l-2.225-5.99-.856-.171V31.4h2.91z" transform="translate(331.649 2364.342)"/><path id="Path_125" data-name="Path 125" class="cls-1" d="M31.436 37.219a3.657 3.657 0 0 1-2.225.856 1.617 1.617 0 0 1-1.711-1.712c0-.856.342-1.369 1.369-1.712.685-.171 1.027-.342 2.567-.685v-.513c0-1.2-.342-1.54-1.2-1.54a2.171 2.171 0 0 0-1.027.171v1.2h-.856c-.342 0-.342-.171-.342-.342 0-.856 1.2-1.54 2.738-1.54 1.369 0 2.054.513 2.054 1.883v3.936l.171.171h.685v.508h-1.88zm0-2.91a5.435 5.435 0 0 0-1.883.685c-.685.342-.856.685-.856 1.2 0 .685.342 1.2 1.027 1.2a3.172 3.172 0 0 0 1.712-.685z" transform="translate(334.566 2364.342)"/><path id="Path_126" data-name="Path 126" class="cls-1" d="M31.4 38.984l.856-.171.171-.171v-8.386H31.4v-.342l1.712-.513h.513v9.242l.171.171.856.171v.515H31.4z" transform="translate(337.341 2362.918)"/><path id="Path_127" data-name="Path 127" class="cls-1" d="M35.5 38.458h.856l.171-.171v-7.531l-.171-.171H35.5V29.9h3.423v.685h-.856l-.171.171v7.531l.171.171h.856v.685H35.5z" transform="translate(340.259 2363.274)"/><path id="Path_128" data-name="Path 128" class="cls-1" d="M38 37.561h.685l.171-.171v-4.963H38v-.342l1.54-.513h.513v.685a4.53 4.53 0 0 1 2.225-.856c1.2 0 1.712.685 1.712 2.054v3.765l.171.171h.685v.509h-2.91v-.342h.685l.171-.171V33.8c0-1.027-.342-1.369-1.369-1.369a3.249 3.249 0 0 0-1.54.513v4.621l.171.171h.685v.513H38z" transform="translate(342.037 2364.342)"/><path id="Path_129" data-name="Path 129" class="cls-1" d="M46.708 33.254h-.685l-.171-1.027a2.433 2.433 0 0 0-1.027-.342c-.685 0-1.027.342-1.027.856s.342.856 1.2 1.2c1.027.513 1.2.513 1.369.856a1.479 1.479 0 0 1 .513 1.027c0 1.2-1.027 2.054-2.567 2.054a2.815 2.815 0 0 1-1.712-.342v-1.715h.685l.171 1.2a2.474 2.474 0 0 0 1.2.342 1.145 1.145 0 0 0 1.2-1.027 1.307 1.307 0 0 0-.342-.856c-.171-.171-.342-.171-1.027-.513-1.369-.685-1.712-1.027-1.712-1.883 0-1.2.856-1.883 2.4-1.883a2.3 2.3 0 0 1 1.54.342v1.712z" transform="translate(345.31 2364.199)"/><path id="Path_130" data-name="Path 130" class="cls-1" d="M45.6 32.683v-.343l.856-.34.513-1.2h.513v1.369h2.225v.685h-2.053v3.423c0 1.2.342 1.54 1.027 1.54a2.171 2.171 0 0 0 1.027-.171v.513a7.279 7.279 0 0 1-1.883.342c-1.027 0-1.369-.342-1.369-1.369v-4.45H45.6z" transform="translate(347.445 2363.915)"/><path id="Path_131" data-name="Path 131" class="cls-1" d="M50.6 32.681V38.5l.171.171h.685v.513h-3.085v-.342h.685l.171-.171v-4.963H48.2v-.342l1.54-.513h.86zm.342-2.225a.856.856 0 1 1-.856-.856.808.808 0 0 1 .856.856" transform="translate(349.295 2363.061)"/><path id="Path_132" data-name="Path 132" class="cls-1" d="M50.5 32.683v-.343l.856-.34.513-1.2h.513v1.369h2.054v.685h-2.053v3.423c0 1.2.342 1.54 1.027 1.54a2.171 2.171 0 0 0 1.027-.171v.513a7.279 7.279 0 0 1-1.883.342c-1.027 0-1.369-.342-1.369-1.369v-4.45H50.5z" transform="translate(350.931 2363.915)"/><path id="Path_133" data-name="Path 133" class="cls-1" d="M55.325 31.4v4.45c0 1.027.342 1.369 1.369 1.369a5 5 0 0 0 1.54-.342v-4.621h-1.026v-.342l1.54-.513h.513v5.99l.171.171h.685v.513h-2.054v-.685a3.657 3.657 0 0 1-2.225.856c-1.2 0-1.712-.685-1.712-2.054v-3.765H53.1v-.342l1.54-.513h.685z" transform="translate(352.781 2364.342)"/><path id="Path_134" data-name="Path 134" class="cls-1" d="M57.7 32.683v-.343l.856-.34.513-1.2h.513v1.369h2.054v.685h-2.053v3.423c0 1.2.342 1.54 1.027 1.54a2.171 2.171 0 0 0 1.027-.171v.513a7.279 7.279 0 0 1-1.883.342c-1.027 0-1.369-.342-1.369-1.369v-4.45H57.7z" transform="translate(356.054 2363.915)"/><path id="Path_135" data-name="Path 135" class="cls-1" d="M65.948 37.319a5.093 5.093 0 0 1-2.567.856 3.012 3.012 0 0 1-3.081-3.252 3.161 3.161 0 0 1 3.081-3.423 2.3 2.3 0 0 1 2.4 2.567v.513h-4.45a3.336 3.336 0 0 0 .169 1.37 2.013 2.013 0 0 0 2.054 1.54 3.657 3.657 0 0 0 2.225-.856v.685zm-1.2-3.594a2.2 2.2 0 0 0-.171-1.2 1.146 1.146 0 0 0-1.2-.685c-1.027 0-1.54.685-1.712 1.883z" transform="translate(357.904 2364.412)"/><path id="Path_136" data-name="Path 136" class="cls-1" d="M72.333 34.823a3.193 3.193 0 0 1-3.252 3.423C67.2 38.246 66 36.877 66 34.823a3.193 3.193 0 0 1 3.252-3.423c1.883 0 3.081 1.369 3.081 3.423m-4.963-.171c0 1.712.685 2.738 1.883 2.738s1.883-1.027 1.883-2.738-.685-2.738-1.883-2.738-1.883 1.2-1.883 2.738" transform="translate(361.96 2364.342)"/><path id="Path_137" data-name="Path 137" class="cls-1" d="M70.171 38.984h.685l.171-.171V33.85h-.856v-.513l.856-.171a4.013 4.013 0 0 1 .342-2.054 2.757 2.757 0 0 1 2.4-1.712c.685 0 1.027.342 1.027.856 0 .342-.171.513-.513.685l-1.2-.856c-.685.342-.856 1.027-.856 2.054v1.027h1.883v.685h-1.885v4.963l.171.171h.856v.515H70v-.513z" transform="translate(364.806 2362.918)"/><path id="Path_138" data-name="Path 138" class="cls-1" d="M.6 46.758h.856l.342-.171v-7.531l-.342-.171H.6V38.2h3.423v.685h-.856L3 39.056v7.531l.171.171h.856v.685H.6z" transform="translate(315.427 2369.179)"/><path id="Path_139" data-name="Path 139" class="cls-1" d="M3.3 45.933h.685l.171-.171V40.8H3.3v-.513l1.54-.513h.513v.685a4.53 4.53 0 0 1 2.226-.859c1.2 0 1.712.685 1.712 2.054v3.765l.342.342h.685v.513h-2.91v-.513h.685l.171-.171V42c0-1.027-.342-1.369-1.369-1.369a3.249 3.249 0 0 0-1.54.513v4.621l.171.171h.684v.513H3.3z" transform="translate(317.348 2370.176)"/><path id="Path_140" data-name="Path 140" class="cls-1" d="M7.8 41.054v-.342l.856-.342L9.34 39h.513v1.369h2.054v.685H9.854v3.594c0 1.2.342 1.54 1.027 1.54a2.171 2.171 0 0 0 1.027-.171v.513a7.279 7.279 0 0 1-1.883.342c-1.027 0-1.369-.342-1.369-1.369v-4.45H7.8z" transform="translate(320.55 2369.749)"/><path id="Path_141" data-name="Path 141" class="cls-1" d="M16.248 45.619a5.093 5.093 0 0 1-2.567.856 3.012 3.012 0 0 1-3.081-3.252 3.161 3.161 0 0 1 3.081-3.423 2.3 2.3 0 0 1 2.4 2.567v.513h-4.45a3.337 3.337 0 0 0 .169 1.37 2.013 2.013 0 0 0 2.054 1.54 3.657 3.657 0 0 0 2.225-.856v.685zm-1.2-3.594a2.2 2.2 0 0 0-.171-1.2 1.146 1.146 0 0 0-1.2-.685c-1.027 0-1.54.685-1.712 1.883h3.085z" transform="translate(322.542 2370.318)"/><path id="Path_142" data-name="Path 142" class="cls-1" d="M14.742 45.933h.685l.171-.171V40.8h-1.027v-.513l1.54-.513h.513v1.2l1.37-1.374h.342a1.543 1.543 0 0 1 .856.171v1.2h-.513a.889.889 0 0 0-.685-.342c-.513 0-.856.342-1.54 1.027v3.934l.171.171h1.027v.513H14.4v-.342z" transform="translate(325.246 2370.176)"/><path id="Path_143" data-name="Path 143" class="cls-1" d="M18.042 45.933h.685l.171-.171V40.8h-1.027v-.513l1.54-.513h.513v.685a4.53 4.53 0 0 1 2.226-.859c1.2 0 1.712.685 1.712 2.054v3.765l.171.171h.685v.51h-2.91v-.51h.685l.171-.171V42c0-1.027-.342-1.369-1.369-1.369a3.249 3.249 0 0 0-1.54.513v4.621l.171.171h.685v.513H17.7v-.513z" transform="translate(327.594 2370.176)"/><path id="Path_144" data-name="Path 144" class="cls-1" d="M26.536 45.519a3.657 3.657 0 0 1-2.225.856 1.617 1.617 0 0 1-1.711-1.712c0-.856.342-1.369 1.369-1.712a10.136 10.136 0 0 1 2.567-.685v-.513c0-1.2-.342-1.54-1.2-1.54a2.171 2.171 0 0 0-1.027.171v1.2h-1.024c-.342 0-.342-.171-.342-.342 0-.856 1.2-1.54 2.738-1.54 1.369 0 2.054.513 2.054 1.883v3.936l.171.171h.685v.508h-1.883zm0-2.91a5.435 5.435 0 0 0-1.883.685c-.685.342-.856.685-.856 1.2 0 .685.342 1.2 1.027 1.2a3.172 3.172 0 0 0 1.712-.685z" transform="translate(331.08 2370.247)"/><path id="Path_145" data-name="Path 145" class="cls-1" d="M26.6 40.983v-.343l.856-.342.513-1.2h.513v1.369h2.225v.685h-2.053v3.594c0 1.2.342 1.54 1.027 1.54a2.171 2.171 0 0 0 1.027-.171v.513a7.279 7.279 0 0 1-1.883.342c-1.027 0-1.369-.342-1.369-1.369v-4.45H26.6z" transform="translate(333.926 2369.82)"/><path id="Path_146" data-name="Path 146" class="cls-1" d="M31.7 40.981V46.8l.171.171h.685v.513h-3.085v-.513h.685l.171-.171v-4.964H29.3v-.342l1.54-.513zm.171-2.225a.856.856 0 1 1-.856-.856.917.917 0 0 1 .856.856" transform="translate(335.847 2368.966)"/><path id="Path_147" data-name="Path 147" class="cls-1" d="M38.133 43.123a3.193 3.193 0 0 1-3.252 3.423c-1.883 0-3.081-1.369-3.081-3.423a3.193 3.193 0 0 1 3.252-3.423 3.161 3.161 0 0 1 3.081 3.423m-5.135 0c0 1.712.685 2.738 1.883 2.738s1.883-1.027 1.883-2.738-.685-2.738-1.883-2.738C33.854 40.213 33 41.412 33 43.123" transform="translate(337.626 2370.247)"/><path id="Path_148" data-name="Path 148" class="cls-1" d="M36.242 45.933h.685l.171-.171V40.8h-1.027v-.513l1.54-.513h.513v.685a4.53 4.53 0 0 1 2.226-.859c1.2 0 1.712.685 1.712 2.054v3.765l.171.171h.685v.51h-2.91v-.51h.685l.171-.171V42c0-1.027-.342-1.369-1.369-1.369a3.249 3.249 0 0 0-1.54.513v4.621l.171.171h.685v.513H35.9v-.513z" transform="translate(340.543 2370.176)"/><path id="Path_149" data-name="Path 149" class="cls-1" d="M44.836 45.519a3.657 3.657 0 0 1-2.225.856 1.617 1.617 0 0 1-1.711-1.712c0-.856.342-1.369 1.369-1.712a10.136 10.136 0 0 1 2.567-.685v-.513c0-1.2-.342-1.54-1.2-1.54a2.171 2.171 0 0 0-1.027.171v1.2h-1.024c-.342 0-.342-.171-.342-.342 0-.856 1.2-1.54 2.738-1.54 1.369 0 2.054.513 2.054 1.883v3.936l.171.171h.685v.508h-1.883zm0-2.91a5.435 5.435 0 0 0-1.883.685c-.685.342-.856.685-.856 1.2 0 .685.342 1.2 1.027 1.2a3.172 3.172 0 0 0 1.712-.685z" transform="translate(344.101 2370.247)"/><path id="Path_150" data-name="Path 150" class="cls-1" d="M44.9 47.284l.685-.171.342-.171v-8.215H44.9v-.513l1.54-.513h.513v9.242l.342.171.685.171v.515H44.9z" transform="translate(346.947 2368.824)"/><path id="Path_151" data-name="Path 151" class="cls-1" d="M53.763 38.2l3.252 8.558.856.171v.513H54.79v-.513h.856l.171-.171-1.027-2.568h-3.252l-1.027 2.567.171.171h.856v.513H48.8v-.513l.856-.171 3.252-8.557zm-1.883 5.135h2.738l-1.54-3.765z" transform="translate(349.722 2369.179)"/><path id="Path_152" data-name="Path 152" class="cls-1" d="M54.471 47.284h.685l.171-.171V42.15h-.856v-.513l.856-.171a4.013 4.013 0 0 1 .342-2.054 2.757 2.757 0 0 1 2.4-1.712c.685 0 1.027.342 1.027.856 0 .342-.171.513-.513.685l-1.2-1.027c-.685.342-.856 1.027-.856 2.054v1.027h1.883v.685h-1.885v4.963l.171.171h.856v.513H54.3v-.342z" transform="translate(353.635 2368.824)"/><path id="Path_153" data-name="Path 153" class="cls-1" d="M57.2 47.284h.685l.171-.171V42.15H57.2v-.513l.856-.171a4.013 4.013 0 0 1 .342-2.054 2.757 2.757 0 0 1 2.4-1.712c.685 0 1.027.342 1.027.856 0 .342-.171.513-.513.685l-1.027-1.027c-.685.342-.856 1.027-.856 2.054v1.027h1.883v.685h-1.887v4.963l.171.171h.856v.513H57.2v-.342z" transform="translate(355.698 2368.824)"/><path id="Path_154" data-name="Path 154" class="cls-1" d="M63.936 45.519a3.657 3.657 0 0 1-2.225.856A1.617 1.617 0 0 1 60 44.663c0-.856.342-1.369 1.369-1.712a10.136 10.136 0 0 1 2.567-.685v-.513c0-1.2-.342-1.54-1.2-1.54a2.171 2.171 0 0 0-1.027.171v1.2h-1.024c-.342 0-.342-.171-.342-.342 0-.856 1.2-1.54 2.738-1.54 1.369 0 2.054.513 2.054 1.883v3.936l.171.171h.685v.508h-1.883zm0-2.91a5.435 5.435 0 0 0-1.883.685c-.685.342-.856.685-.856 1.2 0 .685.342 1.2 1.027 1.2a3.172 3.172 0 0 0 1.712-.685z" transform="translate(357.69 2370.247)"/><path id="Path_155" data-name="Path 155" class="cls-1" d="M66.225 40.981V46.8l.171.171h.685v.513H64v-.513h.685l.171-.171v-4.964H64v-.342l1.54-.513zm.171-2.225a.856.856 0 1 1-.856-.856.917.917 0 0 1 .856.856" transform="translate(360.537 2368.966)"/><path id="Path_156" data-name="Path 156" class="cls-1" d="M66.442 45.933h.685l.171-.171V40.8h-1.027v-.513l1.54-.513h.513v1.2l1.37-1.374h.342a1.543 1.543 0 0 1 .856.171v1.2h-.513a.889.889 0 0 0-.685-.342c-.513 0-.856.342-1.54 1.027v3.934l.171.171h1.027v.513H66.1v-.342z" transform="translate(362.031 2370.176)"/><path id="Path_157" data-name="Path 157" class="cls-1" d="M73.636 41.483h-.685l-.171-1.027a7.41 7.41 0 0 0-.856-.171c-.685 0-1.027.342-1.027.856s.342.856 1.2 1.2c1.027.513 1.2.513 1.54.856a1.479 1.479 0 0 1 .513 1.027c0 1.2-1.027 2.054-2.567 2.054a2.815 2.815 0 0 1-1.712-.342v-1.715h.342l.171 1.2a2.474 2.474 0 0 0 1.2.342 1.145 1.145 0 0 0 1.2-1.027 1.307 1.307 0 0 0-.342-.856c-.171-.171-.342-.171-1.027-.513-1.369-.685-1.712-1.027-1.712-1.883 0-1.2.856-1.883 2.4-1.883a2.3 2.3 0 0 1 1.54.342z" transform="translate(364.592 2370.176)"/></g></svg>