<svg xmlns="http://www.w3.org/2000/svg" width="182.879" height="58.468" viewBox="0 0 48.387 15.47"><path d="M20.739 8.678c-.938 0-1.543.685-1.543 1.696 0 1.017.599 1.683 1.496 1.683.931 0 1.536-.672 1.536-1.683 0-1.03-.591-1.696-1.49-1.696m-.013 2.906c-.55 0-.964-.492-.964-1.23 0-.725.366-1.21.944-1.21.553 0 .959.498.959 1.237 0 .731-.34 1.203-.939 1.203M40.25 7.548a.343.343 0 0 0-.345.346c0 .193.152.346.345.346a.344.344 0 0 0 .346-.346.344.344 0 0 0-.346-.346m-22.643 3.99c-.978 0-1.59-.705-1.59-1.789 0-1.11.732-1.77 1.637-1.77.625 0 1.017.266 1.07.3l.26-.412c-.053-.054-.486-.412-1.363-.412-1.224 0-2.216.864-2.216 2.347 0 1.43.938 2.268 2.129 2.268.898 0 1.443-.412 1.49-.465l-.26-.413c-.046.027-.518.346-1.157.346m25.078-2.86c-.938 0-1.543.685-1.543 1.696 0 1.017.599 1.683 1.497 1.683.93 0 1.535-.672 1.535-1.683 0-1.03-.59-1.696-1.49-1.696m-.012 2.906c-.553 0-.964-.492-.964-1.23 0-.725.365-1.21.944-1.21.552 0 .958.498.958 1.237 0 .731-.34 1.203-.938 1.203m3.605-2.906c-.546 0-.951.293-1.005.326v-.24h-.505v3.22h.565V9.436c.027-.02.432-.28.845-.28a.66.66 0 0 1 .452.16c.166.166.173.432.173.837v1.83h.565v-1.87c0-.518-.013-.85-.32-1.157-.099-.1-.325-.279-.77-.279m-20.152 0c-.485 0-.851.206-1.117.372-.147-.2-.387-.372-.792-.372-.505 0-.944.3-.984.326v-.24h-.506v3.22h.566V9.422c.046-.026.431-.266.824-.266.193 0 .333.06.42.146.166.173.16.466.16.898v1.782h.558v-1.802c0-.26 0-.612-.054-.752.074-.046.46-.272.851-.272.193 0 .34.053.44.167.166.179.16.578.16.777v1.882h.565v-1.868c0-.519-.013-.852-.32-1.158-.1-.1-.326-.279-.771-.279m6.909 3.305h.565V8.764h-.565zm.28-4.435a.344.344 0 0 0-.347.346c0 .193.153.346.346.346a.344.344 0 0 0 .346-.346.344.344 0 0 0-.346-.346m-2.082 1.13c-.485 0-.851.206-1.117.372-.146-.2-.386-.372-.79-.372-.507 0-.946.3-.986.326v-.24h-.505v3.22h.565V9.422c.047-.026.433-.266.825-.266.193 0 .333.06.419.146.167.173.16.466.16.898v1.782h.559v-1.802c0-.26 0-.612-.054-.752.073-.046.459-.272.851-.272.192 0 .34.053.44.167.166.179.159.578.159.777v1.882h.565v-1.868c0-.519-.013-.852-.32-1.158-.099-.1-.325-.279-.771-.279m3.678.878c0-.24.2-.432.592-.432.392 0 .725.192.765.22l.212-.38c-.033-.026-.392-.286-1.017-.286-.658 0-1.124.366-1.124.91 0 1.025 1.589.879 1.589 1.538 0 .286-.272.479-.618.479-.465 0-.791-.206-.858-.247l-.213.393c.04.033.466.319 1.104.319.632 0 1.178-.36 1.178-.984 0-1.024-1.61-.911-1.61-1.53m5.062 2.427h.565V8.764h-.565zM37.65 9.556c0-.24.199-.432.592-.432.392 0 .725.192.765.22l.212-.38c-.033-.026-.392-.286-1.017-.286-.658 0-1.124.366-1.124.91 0 1.025 1.59.879 1.59 1.538 0 .286-.273.479-.619.479-.465 0-.792-.206-.858-.247l-.213.393c.04.033.466.319 1.105.319.63 0 1.176-.36 1.176-.984 0-1.024-1.609-.911-1.609-1.53M17.588 6.415c.991 0 1.563-.492 1.616-.545l-.388-.624c-.072.04-.539.36-1.117.36-.834 0-1.366-.597-1.366-1.51 0-.933.617-1.492 1.412-1.492.637 0 .993.303 1.045.335l.401-.61c-.046-.046-.5-.506-1.485-.506-1.308 0-2.306.874-2.306 2.332 0 1.406.953 2.26 2.188 2.26m1.87-1.071c0 .611.4 1.038 1.044 1.038.512 0 .854-.263.913-.302v.23h.77V4.372c0-.42.006-.756-.264-1.025-.315-.315-.781-.361-1.057-.361-.743 0-1.183.308-1.229.348l.295.565c.047-.026.434-.237.862-.237.243 0 .387.06.459.132.092.092.099.184.099.38h-.092c-.394 0-1.8.02-1.8 1.17m1.892.17c-.04.02-.257.198-.618.198-.216 0-.499-.092-.499-.427 0-.407.407-.506.979-.506h.138zM23.489 4.188c.099-.144.367-.466.906-.466.046 0 .17.013.197.02l.204-.671c-.02-.006-.138-.085-.369-.085-.643 0-1.043.453-1.07.499v-.407h-.755V6.31h.887zm2.79-1.202c-.919 0-1.55.736-1.55 1.728 0 .939.559 1.687 1.61 1.687.716 0 1.209-.335 1.228-.354l-.289-.565c-.138.066-.454.23-.861.23-.644 0-.84-.493-.827-.73h2.128c0-.045.014-.137.014-.275 0-1.051-.507-1.721-1.453-1.721m-.696 1.36c.066-.401.315-.703.716-.703.545 0 .611.526.611.702zM34.242 6.4c.459 0 .86-.295.913-.335v.244h.754V3.078h-.886v2.365c-.053.039-.315.203-.598.203-.21 0-.308-.078-.348-.118-.118-.118-.138-.328-.138-.749V3.078h-.887v1.74c0 .42-.013.907.348 1.269.21.21.5.314.842.314m3.977-.321v.23h.768V4.372c0-.42.007-.756-.262-1.025-.315-.315-.781-.361-1.057-.361-.743 0-1.183.308-1.229.348l.295.565c.047-.026.434-.237.86-.237.244 0 .389.06.46.132.093.092.1.184.1.38h-.093c-.393 0-1.8.02-1.8 1.17 0 .611.401 1.038 1.045 1.038.512 0 .854-.263.913-.302m-1.182-.795c0-.407.407-.506.978-.506h.138v.736c-.039.02-.256.197-.617.197-.217 0-.5-.092-.5-.427m3.272-3.732h-.887V6.31h.887zm.906 1.124a.502.502 0 0 0 .505-.506.502.502 0 0 0-.505-.506.503.503 0 0 0-.507.506c0 .283.224.506.507.506m.446.4h-.887V6.31h.887zm2.293 2.582c-.388 0-.408-.295-.408-.551V3.813h.92v-.735h-.92v-.9h-.886v.9h-.558v.735h.558v1.262c0 .453 0 .761.276 1.037.217.217.545.29.834.29.48 0 .788-.19.814-.21l-.223-.611c-.059.02-.204.078-.407.078m1.404 1.458c-.256 0-.452-.091-.498-.11l-.263.63c.026.013.335.203.808.203.532 0 .807-.197.946-.335.229-.23.374-.525.624-1.163l1.28-3.264h-.873l-.808 2.266-.868-2.266h-.939L46.12 6.31c-.052.144-.164.486-.321.643a.586.586 0 0 1-.44.164M32.661 4.09c0-1.318-.844-2.268-2.143-2.268-1.273 0-2.142.917-2.142 2.268 0 1.375.85 2.317 2.106 2.339l.054.001c.609.014 1.03.218 1.3.55.09-.06.752-.63.752-.63s-.23-.273-.76-.345c.518-.401.833-1.067.833-1.915m-2.123 1.555c-.692 0-1.22-.572-1.22-1.495 0-.917.462-1.563 1.168-1.563.737 0 1.232.626 1.232 1.496 0 .706-.27 1.562-1.18 1.562" fill="#596876"/><path d="M10.856 12.482a6.799 6.799 0 1 0-3.924 1.248h.193c1.808.03 3.051.631 3.845 1.607.267-.175 2.194-1.834 2.194-1.834s-.69-.834-2.308-1.021m-4.075-.492a5.13 5.13 0 0 0 3.752-3.203c-.004-.002-.009-.001-.013.002a4.043 4.043 0 1 1 0-3.714c.005.003.01.004.013 0A5.13 5.13 0 0 0 6.78 1.872c.057-.002.113-.004.17-.004 2.768 0 5.012 2.267 5.012 5.063 0 2.797-2.244 5.064-5.013 5.064-.056 0-.112-.003-.169-.005" fill="#893277"/></svg>