<svg xmlns="http://www.w3.org/2000/svg" width="250" height="147.514"><path d="M.5.843h3.586V146.89H.5z" fill="#0058a1"/><g style="line-height:125%" font-size="40" font-weight="400" letter-spacing="0" word-spacing="0" font-family="Swis721 BT"><path d="M32.172 77.22h-6.874v22.44h6.874c2.945 0 5.17-.955 6.675-2.867 1.505-1.911 2.258-4.739 2.258-8.482 0-3.584-.766-6.328-2.298-8.233-1.532-1.905-3.744-2.858-6.635-2.858zm-10.87 26.038V73.823h11.21c4.103 0 7.244 1.226 9.422 3.677 2.178 2.451 3.267 5.988 3.267 10.61 0 4.783-1.129 8.503-3.387 11.161-2.258 2.658-5.412 3.987-9.462 3.987zM51.75 90.609H63.5c-.014-1.999-.52-3.54-1.52-4.626-.998-1.086-2.417-1.629-4.255-1.629-1.772 0-3.168.533-4.187 1.599-1.019 1.065-1.615 2.617-1.788 4.656zm11.67 5.735h3.557c-.387 2.358-1.413 4.216-3.078 5.575-1.665 1.359-3.763 2.038-6.294 2.038-2.971 0-5.316-.999-7.034-2.997-1.719-1.999-2.578-4.723-2.578-8.173 0-3.65.853-6.501 2.558-8.553 1.705-2.051 4.056-3.077 7.054-3.077 3.077 0 5.458.946 7.144 2.837 1.685 1.892 2.527 4.563 2.527 8.013 0 .44-.003.766-.01.98-.007.213-.023.42-.05.62H51.77c.04 2.25.599 3.992 1.678 5.225 1.08 1.232 2.578 1.848 4.496 1.848 1.466 0 2.675-.376 3.627-1.129.953-.753 1.569-1.822 1.848-3.207zM73.863 92.707c0 2.664.53 4.666 1.59 6.005 1.058 1.339 2.647 2.008 4.765 2.008 2.025 0 3.587-.736 4.686-2.208 1.099-1.472 1.648-3.56 1.648-6.265 0-2.438-.57-4.356-1.708-5.755-1.14-1.399-2.694-2.098-4.666-2.098-2.025 0-3.584.72-4.676 2.158-1.092 1.439-1.639 3.49-1.639 6.155zm-3.397 18.605V81.856h3.517v3.018c.893-1.28 1.895-2.218 3.008-2.818 1.112-.6 2.434-.9 3.966-.9 2.851 0 5.126 1.027 6.824 3.078 1.699 2.052 2.548 4.803 2.548 8.253 0 3.49-.86 6.268-2.578 8.333-1.718 2.065-3.996 3.097-6.834 3.097-1.505 0-2.827-.27-3.966-.81-1.14-.539-2.128-1.361-2.968-2.467v10.672zM106.706 100.4c-1.119 1.173-2.308 2.052-3.567 2.638a9.378 9.378 0 0 1-4.006.88c-2.185 0-3.89-.57-5.116-1.71-1.225-1.138-1.838-2.714-1.838-4.725 0-1.945.603-3.47 1.808-4.576 1.206-1.106 3.041-1.819 5.506-2.138.626-.067 1.472-.16 2.537-.28 1.825-.187 2.945-.367 3.358-.54.412-.16.686-.37.819-.63.133-.259.2-.822.2-1.688 0-1.092-.4-1.911-1.2-2.458-.799-.546-2.004-.819-3.616-.819-1.665 0-2.921.333-3.767 1-.846.665-1.269 1.651-1.269 2.957h-3.397v-.16c0-2.158.76-3.863 2.278-5.116 1.519-1.252 3.61-1.878 6.275-1.878 2.864 0 4.972.536 6.324 1.608 1.352 1.073 2.028 2.748 2.028 5.026v10.71c0 .92.1 1.513.3 1.78.2.266.56.399 1.08.399.106 0 .236-.01.389-.03.153-.02.336-.05.55-.09v2.778a9.64 9.64 0 0 1-1.15.25c-.326.046-.636.07-.929.07-1.199 0-2.098-.26-2.697-.78-.6-.52-.9-1.305-.9-2.358zm-.34-8.033c-.959.52-2.604.926-4.935 1.22-.826.106-1.445.192-1.858.259-1.306.213-2.245.6-2.818 1.159-.573.56-.86 1.372-.86 2.438s.334 1.885 1 2.458c.666.572 1.618.859 2.857.859 1.932 0 3.517-.486 4.756-1.459 1.24-.972 1.859-2.218 1.859-3.737zM114.592 103.258V81.856h3.477v3.837c.572-1.439 1.348-2.515 2.328-3.227.979-.713 2.181-1.07 3.606-1.07.267 0 .46.004.58.01.12.008.24.024.36.05v3.798a3.765 3.765 0 0 0-.32-.03c-.12-.007-.3-.01-.54-.01-1.918 0-3.38.522-4.386 1.568-1.006 1.046-1.508 2.568-1.508 4.566v11.91zM134.811 97.862c0 .96.137 1.599.41 1.919.273.32.776.48 1.509.48.213 0 .47-.008.77-.02.299-.014.689-.04 1.168-.08v3.057c-.6.106-1.136.186-1.608.24-.473.053-.896.08-1.27.08-1.691 0-2.877-.327-3.556-.98-.68-.652-1.02-1.811-1.02-3.477V84.714h-3.197v-2.858h3.198v-5.975h3.596v5.975h3.857v2.858h-3.857zM167.981 103.258V90.089c0-2.158-.293-3.633-.879-4.426-.586-.793-1.605-1.189-3.057-1.189-1.732 0-3.078.536-4.037 1.609-.959 1.072-1.439 2.58-1.438 4.526v12.649h-3.657V90.089c0-2.158-.293-3.633-.88-4.426-.586-.793-1.598-1.189-3.037-1.189-1.718 0-3.064.543-4.036 1.629-.973 1.085-1.46 2.587-1.46 4.506v12.649h-3.596V81.856h3.437v3.018c.8-1.2 1.745-2.092 2.837-2.678 1.093-.586 2.372-.88 3.837-.88 1.332 0 2.471.27 3.417.81.946.54 1.759 1.389 2.438 2.548.933-1.16 1.952-2.008 3.057-2.548 1.106-.54 2.378-.81 3.817-.81 1.386 0 2.591.25 3.617.75 1.026.5 1.812 1.222 2.358 2.168.306.546.526 1.2.66 1.959.133.759.2 1.958.2 3.596v13.469zM178.725 90.609h11.75c-.014-1.999-.52-3.54-1.519-4.626-1-1.086-2.418-1.629-4.256-1.629-1.772 0-3.168.533-4.187 1.599-1.019 1.065-1.615 2.617-1.788 4.656zm11.67 5.735h3.557c-.387 2.358-1.412 4.216-3.078 5.575-1.665 1.359-3.763 2.038-6.294 2.038-2.971 0-5.316-.999-7.034-2.997-1.719-1.999-2.578-4.723-2.578-8.173 0-3.65.853-6.501 2.558-8.553 1.705-2.051 4.056-3.077 7.054-3.077 3.077 0 5.458.946 7.144 2.837 1.685 1.892 2.527 4.563 2.527 8.013 0 .44-.003.766-.01.98-.007.213-.023.42-.05.62h-15.446c.04 2.25.6 3.992 1.678 5.225 1.08 1.232 2.578 1.848 4.496 1.848 1.466 0 2.675-.376 3.627-1.129.953-.753 1.569-1.822 1.849-3.207zM211.207 103.258V90.089c0-2.105-.323-3.56-.97-4.366-.646-.806-1.755-1.209-3.327-1.21-2.011.001-3.573.57-4.686 1.71-1.112 1.139-1.668 2.754-1.668 4.845v12.19h-3.597V81.856h3.437v3.118c.826-1.24 1.805-2.159 2.937-2.758 1.133-.6 2.445-.9 3.937-.9 1.612 0 2.97.244 4.077.73 1.105.486 1.958 1.216 2.557 2.188.333.52.573 1.13.72 1.829.146.699.22 1.808.22 3.327v13.868zM223.831 97.862c0 .96.137 1.599.41 1.919.273.32.776.48 1.509.48.213 0 .47-.008.77-.02.299-.014.689-.04 1.168-.08v3.057c-.6.106-1.136.186-1.608.24-.473.053-.896.08-1.27.08-1.691 0-2.877-.327-3.556-.98-.68-.652-1.02-1.811-1.02-3.477V84.714h-3.197v-2.858h3.198v-5.975h3.596v5.975h3.857v2.858h-3.857z" style="-inkscape-font-specification:Swis721 BT"/><g><path d="M22.176 146.354V127.81h-3.517v-2.857h3.517v-3.158c0-1.771.403-3.1 1.209-3.986.806-.886 2.015-1.329 3.627-1.33.253.001.572.021.959.06.386.04.952.114 1.698.22v3.238c-.386-.067-.71-.117-.969-.15-.26-.033-.47-.05-.63-.05-.839 0-1.425.233-1.758.7-.333.466-.5 1.352-.5 2.657v1.799h3.857v2.857h-3.856v18.544zM34.124 135.623c0 2.651.57 4.68 1.709 6.085 1.139 1.406 2.768 2.108 4.886 2.108 2.105 0 3.717-.702 4.836-2.108 1.119-1.405 1.678-3.434 1.678-6.085 0-2.637-.56-4.659-1.678-6.064-1.12-1.406-2.731-2.109-4.836-2.109-2.132 0-3.764.7-4.896 2.099-1.132 1.398-1.699 3.423-1.699 6.074zm-3.676 0c0-3.583.896-6.374 2.687-8.372 1.792-1.999 4.307-2.998 7.544-2.998 3.25 0 5.775.996 7.573 2.988 1.799 1.991 2.698 4.785 2.698 8.382 0 3.597-.896 6.395-2.688 8.393-1.792 1.998-4.306 2.998-7.543 2.998-3.25 0-5.775-.996-7.574-2.988-1.798-1.991-2.697-4.792-2.697-8.403zM53.943 146.354v-21.401h3.477v3.836c.573-1.438 1.349-2.514 2.328-3.227.979-.713 2.181-1.069 3.607-1.069.266 0 .46.003.58.01.12.007.239.024.359.05v3.797a3.76 3.76 0 0 0-.32-.03c-.12-.006-.3-.01-.54-.01-1.918 0-3.38.523-4.386 1.568-1.005 1.046-1.508 2.568-1.508 4.566v11.91z" style="-inkscape-font-specification:Swis721 BT"/></g><g><path d="M78.714 146.354V116.92h20.982v3.656H82.671v8.793h15.726v3.437H82.671v9.871h17.365v3.677zM117.288 135.503c0-2.65-.536-4.649-1.609-5.994-1.072-1.346-2.66-2.019-4.765-2.019-2.025 0-3.59.736-4.696 2.209-1.106 1.472-1.659 3.56-1.659 6.264 0 2.438.57 4.356 1.709 5.755 1.139 1.399 2.7 2.098 4.686 2.098 2.011 0 3.57-.72 4.675-2.158 1.106-1.439 1.659-3.49 1.66-6.155zm3.357-18.583v29.434h-3.477v-2.698c-.92 1.12-1.958 1.959-3.117 2.518-1.16.56-2.438.84-3.837.84-2.85 0-5.125-1.023-6.824-3.068-1.698-2.045-2.548-4.786-2.548-8.223 0-3.503.853-6.29 2.558-8.362 1.705-2.072 3.977-3.108 6.814-3.108 1.492 0 2.814.277 3.967.83 1.152.552 2.148 1.382 2.987 2.487v-10.65zM128.516 124.953v13.128c0 2.105.33 3.567.99 4.386.659.82 1.775 1.23 3.347 1.23 2.078 0 3.65-.61 4.716-1.829 1.065-1.219 1.598-3.014 1.598-5.385v-11.53h3.597v21.401h-3.437v-3.197c-.746 1.239-1.712 2.171-2.897 2.797-1.186.627-2.578.94-4.177.94-1.492 0-2.79-.253-3.896-.76-1.106-.506-1.952-1.225-2.538-2.158-.333-.52-.573-1.129-.72-1.828-.146-.7-.22-1.809-.22-3.327v-13.868zM161.36 132.066c-.107-1.465-.636-2.594-1.589-3.387-.952-.792-2.255-1.189-3.907-1.189-1.945 0-3.447.7-4.506 2.099-1.059 1.398-1.588 3.397-1.588 5.994 0 2.611.51 4.623 1.528 6.035 1.02 1.412 2.462 2.118 4.327 2.118 1.678 0 3.02-.433 4.026-1.299 1.006-.865 1.629-2.124 1.869-3.776h3.437c-.187 2.624-1.113 4.672-2.778 6.144-1.665 1.473-3.903 2.209-6.714 2.209-2.931 0-5.232-1.006-6.904-3.018-1.672-2.011-2.508-4.77-2.508-8.273 0-3.583.872-6.39 2.618-8.422 1.745-2.032 4.143-3.048 7.193-3.048 2.691 0 4.846.703 6.465 2.108 1.618 1.406 2.481 3.308 2.588 5.705zM181.668 143.497c-1.119 1.172-2.308 2.051-3.566 2.637a9.378 9.378 0 0 1-4.007.88c-2.185 0-3.89-.57-5.116-1.709-1.225-1.139-1.838-2.714-1.838-4.726 0-1.945.603-3.47 1.808-4.576 1.206-1.106 3.041-1.818 5.506-2.138.626-.067 1.472-.16 2.537-.28 1.826-.186 2.945-.366 3.358-.54.413-.16.686-.37.819-.629.133-.26.2-.822.2-1.688 0-1.093-.4-1.912-1.2-2.458-.799-.546-2.004-.82-3.616-.82-1.665 0-2.92.334-3.767 1-.846.666-1.269 1.652-1.269 2.957h-3.397v-.16c0-2.158.76-3.863 2.278-5.115 1.519-1.253 3.61-1.879 6.275-1.879 2.864 0 4.972.536 6.324 1.609 1.352 1.072 2.029 2.747 2.029 5.025v10.711c0 .92.1 1.512.3 1.779.2.266.559.4 1.078.4.107 0 .237-.01.39-.03.153-.02.336-.05.55-.09v2.777a9.64 9.64 0 0 1-1.15.25c-.326.046-.636.07-.929.07-1.199 0-2.098-.26-2.697-.78-.6-.52-.9-1.305-.9-2.357zm-.34-8.033c-.958.52-2.604.925-4.935 1.218-.826.107-1.445.194-1.858.26-1.306.213-2.245.6-2.818 1.16-.573.559-.86 1.371-.86 2.437 0 1.066.334 1.885 1 2.458.666.573 1.619.86 2.857.86 1.932 0 3.517-.487 4.756-1.46 1.24-.972 1.859-2.218 1.859-3.736zM194.165 140.959c0 .959.137 1.598.41 1.918.273.32.776.48 1.509.48.213 0 .47-.007.77-.02.299-.014.689-.04 1.168-.08v3.057c-.6.107-1.136.187-1.608.24-.473.053-.896.08-1.27.08-1.691 0-2.877-.326-3.556-.98-.68-.652-1.02-1.811-1.02-3.476V127.81h-3.197v-2.857h3.198v-5.975h3.596v5.975h3.857v2.857h-3.857zM201.103 121.016v-4.096h3.597v4.096zm0 25.338v-21.401h3.597v21.401zM211.584 135.623c0 2.651.569 4.68 1.708 6.085 1.14 1.406 2.768 2.108 4.886 2.108 2.105 0 3.717-.702 4.836-2.108 1.119-1.405 1.678-3.434 1.678-6.085 0-2.637-.56-4.659-1.678-6.064-1.12-1.406-2.731-2.109-4.836-2.109-2.132 0-3.764.7-4.896 2.099-1.132 1.398-1.698 3.423-1.698 6.074zm-3.677 0c0-3.583.896-6.374 2.687-8.372 1.792-1.999 4.307-2.998 7.544-2.998 3.25 0 5.775.996 7.573 2.988 1.799 1.991 2.698 4.785 2.698 8.382 0 3.597-.896 6.395-2.688 8.393-1.792 1.998-4.306 2.998-7.543 2.998-3.25 0-5.775-.996-7.574-2.988-1.798-1.991-2.697-4.792-2.697-8.403zM245.863 146.354v-13.169c0-2.104-.323-3.56-.969-4.366-.646-.806-1.755-1.209-3.327-1.209-2.012 0-3.574.57-4.686 1.709-1.112 1.139-1.669 2.754-1.669 4.846v12.19h-3.597v-21.402h3.437v3.117c.826-1.239 1.806-2.158 2.938-2.758 1.132-.6 2.444-.899 3.937-.899 1.611 0 2.97.243 4.076.73 1.106.486 1.958 1.215 2.558 2.188.333.52.573 1.129.72 1.828.146.7.219 1.808.219 3.327v13.868z" style="-inkscape-font-specification:Swis721 BT"/></g></g><path d="M48.72 10.069c-.335.641-.625 1.014-.579 1.506.044.496.564.847.81 1.344.222-.58.595-1.013.551-1.468-.045-.453-.67-1.051-.782-1.382M57.313 10.069c.335.641.624 1.014.579 1.506-.046.496-.564.847-.81 1.344-.224-.58-.593-1.013-.55-1.468.044-.453.669-1.051.781-1.382M43.775 9.698a.58.58 0 0 0 .58-.58.58.58 0 0 0-.58-.581.58.58 0 0 0-.58.58c0 .322.258.58.58.58M44.163 10.527a.58.58 0 1 0-1.161 0 .58.58 0 0 0 1.161 0M44.446 11.934a.582.582 0 0 0-1.161 0c0 .322.26.58.58.58.32 0 .581-.258.581-.58M46.99 6.93a.58.58 0 1 0 0-1.161.58.58 0 0 0 0 1.16M45.545 7.375a.58.58 0 1 0 0-1.161.58.58 0 0 0 0 1.16M44.41 8.37c.322 0 .581-.26.581-.58a.58.58 0 1 0-1.161 0c0 .32.259.58.58.58M48.504 7.07a.58.58 0 1 0 0-1.16.583.583 0 0 0-.583.579c0 .321.265.58.583.58M49.944 7.486a.58.58 0 1 0 0-1.161.58.58 0 1 0 0 1.16M51.299 8.122a.583.583 0 0 0 0-1.165.582.582 0 0 0 0 1.165M61.658 9.117a.582.582 0 1 0 1.163-.002.582.582 0 0 0-1.163.002M62.432 9.946a.58.58 0 1 0 0 1.161.58.58 0 0 0 0-1.16M62.148 11.353a.58.58 0 1 0 0 1.16.58.58 0 0 0 .585-.58c0-.319-.263-.58-.585-.58M59.026 6.93a.58.58 0 1 0 0-1.161c-.32 0-.583.26-.583.58 0 .322.263.58.583.58M60.47 7.375a.58.58 0 1 0-.58-.58c-.002.321.26.58.58.58M61.604 8.37a.58.58 0 1 0 .001-1.16.58.58 0 0 0 0 1.16M57.51 7.07a.58.58 0 1 0 0-1.16.582.582 0 0 0-.583.579c0 .321.262.58.582.58M56.07 7.486c.322 0 .581-.263.581-.585a.579.579 0 0 0-.58-.577.58.58 0 1 0 0 1.162M54.136 7.54a.58.58 0 1 0 1.161 0c0-.32-.26-.583-.58-.583a.582.582 0 0 0-.581.583M52.016 10.682h.65V8.195a2.304 2.304 0 0 1-.65-.202v2.689zM54 7.994c-.202.095-.42.167-.651.2v2.488h.65V7.994zM52.635 5.25V3.775a1.826 1.826 0 0 0-1.428 1.473h1.428zM53.389 5.25h1.416a1.825 1.825 0 0 0-1.416-1.474v1.473zM51.226 5.961a1.825 1.825 0 0 0 3.562 0h-3.562zM54.007 3.542c-.415-.325-.733-.794-.792-1.287.474.086 1.003.429 1.317.84V1.094c-.314.413-.845.756-1.317.84.053-.486.352-.928.76-1.434H52.04c.408.506.705.948.76 1.434-.472-.084-1.005-.427-1.317-.84v2c.312-.41.843-.753 1.317-.839-.059.493-.377.962-.794 1.287h2.001zM56.143 43.426c-1.83-.458-4.003-1.239-6.036-2.164l.001-.023c.06-.413-.097-.876-.413-1.234-.312-.36-.733-.565-1.151-.565-.189 0-.374.04-.554.106a8.807 8.807 0 0 1-.842-.862 10 10 0 0 1-1.791-3.116 10.943 10.943 0 0 1-.528-2.068c-.097.592-.763 1.375-1.905 1.388.017-.122.003-.419-.101-.45-.301.334-.752.695-1.786.33.16.807.383 1.601.67 2.37a14.002 14.002 0 0 0 2.627 4.405c.37.423.76.813 1.17 1.171-.01.08-.014.158-.014.236 0 .43.413 1.11 1.007 1.4.487.236 1.013.175 1.489-.17.887.472 2.022.916 3.238 1.255 1.369.38 2.692.592 3.726.592.89 0 2.07-.42 3.23-1.152.465-.293.901-.62 1.223-.925.045-.042.087-.08.125-.118-.904.127-2.267-.13-3.385-.406m-6.691-2.749l-.193-.144c-.352-.267-.653-.263-.97.011-.153.13-.292.287-.423.444l-.198.226.133.109c.375.299.432.626.326.818a.314.314 0 0 1-.195.149c-.184.05-.447-.017-.717-.18l-.141-.083-.086.14-.068.104a1.937 1.937 0 0 0-.1.152c-.16.28-.237.491-.237.664 0 .052.007.098.019.141.055.204.22.3.367.38l.09.052c.167.107.403.246.58.347-.331.187-.666.202-.995.042-.503-.244-.823-.817-.823-1.099 0-.434.194-.982.552-1.544l.054-.083-.052-.09a3.498 3.498 0 0 1-.257-.502c.19.026.377.06.564.106l.093.021.067-.068c.219-.24.988-1.017 1.702-1.017.323 0 .653.164.9.45.185.209.299.458.333.698a6.557 6.557 0 0 1-.325-.244m1.182 3.478a.784.784 0 0 1 0-1.564.782.782 0 0 1 0 1.564m3.425 1.059a.716.716 0 0 1 0-1.432.716.716 0 0 1 0 1.432M55.003 48.822c-.133 0-.253.02-.368.052v-2.188a15.056 15.056 0 0 1-3.196-.48v2.675a1.22 1.22 0 0 0-.388-.059c-.768 0-1.244.646-1.244 1.244 0 .563.332 1.083.62 1.408.144-.34.275-.616.464-.616.38 0 .207 1.896 1.323 1.949a.87.87 0 1 0 1.628 0c1.113-.051.925-1.95 1.31-1.95.188 0 .308.261.477.617.288-.325.617-.845.617-1.408 0-.598-.472-1.244-1.243-1.244m-1.976 4.773a.486.486 0 1 1 .001-.972.486.486 0 0 1-.001.972m2.604-2.756c-.131-.246-.323-.387-.49-.387-.747 0-.454 1.969-1.343 1.969-.39 0-.596-.248-.596-.528 0-.274.194-.358.194-.58 0-.221-.175-.303-.37-.303-.191 0-.367.082-.367.303 0 .222.195.306.195.58 0 .28-.21.528-.598.528-.887 0-.594-1.969-1.342-1.969-.164 0-.36.14-.49.387-.148-.28-.232-.562-.232-.773 0-.36.278-.859.859-.859.997 0 .765 1.36 1.24 1.36.212 0 .368-.128.368-.334 0-.388-.693-.754-.693-1.31 0-.552.505-1.018 1.06-1.464.557.446 1.063.912 1.063 1.464 0 .556-.693.922-.693 1.31 0 .206.152.333.366.333.476 0 .243-1.359 1.24-1.359.583 0 .861.499.861.859 0 .21-.085.493-.232.773"/><path d="M80.68 51.453a.229.229 0 0 0-.284-.14c-2.563.745-5.738-1.374-8.813-3.424-2.585-1.721-5.028-3.349-7.12-3.349-.773 0-1.462.166-2.056.486-.731.403-1.276 1.039-1.626 1.89-.354.857-.725 1.441-1.022 1.911-.356.564-.613.966-.613 1.474 0 .411.177.784.533 1.142.297.3.721.588 1.342.92.133.068.263.131.392.192.508.247.822.415.883.702-1.012.446-2.324.817-3.813 1.076-1.677.293-3.52.444-5.466.444-1.945 0-3.784-.15-5.464-.444-1.488-.259-2.802-.63-3.817-1.08.042-.428.356-.595.91-.86a9.49 9.49 0 0 0 .398-.194c.509-.27.99-.535 1.316-.824.36-.32.529-.663.529-1.074 0-.505-.257-.908-.611-1.474-.297-.47-.666-1.054-1.02-1.911-.35-.851-.901-1.487-1.632-1.887-.588-.321-1.28-.487-2.049-.487-2.096 0-4.538 1.626-7.124 3.35-3.072 2.05-6.25 4.168-8.81 3.422a.233.233 0 0 0-.16.438c.778.346 1.468.881 2.13 1.397.924.72 1.795 1.4 2.757 1.4.908 0 1.887-.29 3.074-.91 1.03-.54 2.1-1.267 3.136-1.975 2.024-1.382 4.114-2.808 6.098-2.966-.208.215-.411.394-.6.563-.584.522-1.09.975-1.09 1.895 0 .723.247 1.237.59 1.953.098.206.213.444.33.708.222.49.315.885.448 1.426.057.234.12.497.204.807.125.472.362 1.352 1.816 2.093 1.689.858 4.594 1.294 8.641 1.294 4.048 0 6.955-.436 8.642-1.294 1.454-.741 1.69-1.62 1.816-2.093.084-.31.146-.573.203-.807.134-.54.227-.937.448-1.426.162-.358.316-.65.455-.91.304-.571.544-1.02.544-1.675 0-.922-.533-1.398-1.148-1.95a11.39 11.39 0 0 1-.618-.588c1.985.16 4.074 1.584 6.1 2.97 1.033.704 2.105 1.434 3.133 1.972 1.19.621 2.168.91 3.078.91.958 0 1.83-.681 2.755-1.403.663-.512 1.35-1.049 2.127-1.395a.236.236 0 0 0 .127-.295M65.296 30.958c-.284-.211-.747-.64-.985-1.146-.304-.63-1.572-3.128-1.772-3.463-.164-.276-.25-.524-.25-.746 0-.263.132-.474.271-.663.1-.125.375-.396.48-.558.08-.123.152-.22.226-.297-.462-.8-.936-1.406-1.546-2.088-.746-.84-1.58-1.56-2.48-2.15.485-.315.98-.772.98-1.534 0-.443-.186-.801-.512-1.087.512-1.641 1.432-3.617 2.214-4.483l-1.647-.695c.427.65.457 1.41.362 1.856-.428-.299-.794-.704-.916-1.245-.083.499-.356 1.306-.605 1.788.474-.223.857-.326 1.34-.124-.278.375-.986.948-2.07.69-.584-.14-1.166-.45-1.141-.903.015-.269.213-.594.58-.558.358.036.377.58.267.824.47-.266.957-1.645.223-1.85-.58-.158-1.108.635-1.299 1.245-.11-.737-.415-1.44-.997-1.4-.758.052-.51 1.45-.246 1.805.046-.491.314-.752.539-.733.2.014.468.156.422.6-.05.447-.681.721-1.41.721-.695 0-1.915-.215-2.032-1.557.452.082 1.16.425 1.462.876a8.84 8.84 0 0 1 0-2.231c-.375.53-1.005.805-1.44.875.127-.575.62-1.182 1.197-1.542h-2.987c.575.36 1.068.966 1.195 1.539-.436-.077-1.052-.349-1.418-.872.093.841.093 1.42 0 2.23.295-.445.984-.783 1.437-.87-.116 1.337-1.336 1.552-2.03 1.552-.726 0-1.362-.274-1.41-.721-.044-.444.225-.586.425-.6.223-.019.491.242.537.733.264-.356.51-1.753-.246-1.805-.584-.04-.889.663-.998 1.4-.192-.61-.72-1.403-1.298-1.245-.737.205-.247 1.584.223 1.85-.112-.244-.09-.788.266-.824.368-.036.566.29.581.558.027.453-.558.763-1.142.904-1.076.255-1.782-.309-2.066-.685.491-.21.878-.107 1.36.118-.252-.482-.524-1.29-.606-1.788-.126.548-.499.96-.939 1.256a2.573 2.573 0 0 1 .362-1.867l-1.645.695c.783.868 1.704 2.852 2.216 4.498a1.375 1.375 0 0 0-.49 1.072c0 .762.488 1.22.976 1.535-.903.59-1.733 1.31-2.48 2.149a13.866 13.866 0 0 0-2.628 4.377c.228.232 1.213 1.308 1.445 1.599.41.516.651 1.036.662 1.437.027.745.183 1.04.58 1.539.123.156.302.74.32 1.1h8.17v8.894c-.32.021-.66.103-.94.442a35.46 35.46 0 0 0 2.747 1.003c.084-.582.203-.942.497-1.3 0 0-1.186-.118-1.824-.152v-8.887h7.982a11.19 11.19 0 0 1-.647 3.52 10.093 10.093 0 0 1-1.793 3.115 8.302 8.302 0 0 1-2.65 2.094c-.16.078-.155.192-.316.257-.143.152-.28.419-.394.721-.101.267-.14.453-.183.811.375.116.577.177.935.263 2.804.704 3.499.497 3.655.375l.006-.004a12.541 12.541 0 0 0 1.762-1.656 13.992 13.992 0 0 0 2.626-4.407 15.31 15.31 0 0 0 .961-5.39c0-.339.01-.453-.011-.79m-12.413.611h-8.18a11.22 11.22 0 0 1 .652-3.653 10.082 10.082 0 0 1 1.792-3.117 8.411 8.411 0 0 1 2.65-2.092 7.208 7.208 0 0 1 3.086-.754v9.616zm.14-13.614c-2.723 0-4.599.802-5.693 1.53-.632-.372-.905-.74-.905-1.172 0-1.55 4.377-1.687 6.597-1.687h.004c2.22 0 6.598.137 6.598 1.687 0 .432-.274.8-.908 1.173-1.09-.73-2.968-1.53-5.692-1.53m.339 13.613v-9.606c1 .047 1.972.29 2.892.744a8.348 8.348 0 0 1 2.65 2.092c.765.9 1.37 1.952 1.793 3.117.419 1.16.634 2.39.653 3.653h-7.988z"/><path d="M60.085 30c.139.09.093.313-.086.292a9.083 9.083 0 0 0-1.534-4.051.293.293 0 0 0 .022-.025.509.509 0 0 0 .34-.417.52.52 0 0 0-.515.227c-.055-.076-.116-.15-.177-.227a7.564 7.564 0 0 0-1.73-1.622 6.395 6.395 0 0 0-1.923-.881c.011-.156.217-.18.295-.042.023-.253-.196-.38-.322-.331-.068.026-.13.083-.143.2a.534.534 0 0 0-.363-.193c-.012.164.04.29.116.383-.109-.002-.173.044-.213.105-.067.116.02.354.278.373-.122-.1-.07-.293.083-.282v3.124a.517.517 0 0 0-.52.133c.172.166.366.181.52.135v3.391c-.167.015-.213-.196-.078-.29-.255 0-.363.23-.306.35.04.077.114.134.259.123a.523.523 0 0 0-.135.358.519.519 0 0 0 .356-.137c-.014.143.047.219.127.259.116.055.347-.05.347-.305-.092.128-.294.09-.294-.067h2.355a.529.529 0 0 0 .136.516.521.521 0 0 0 .137-.516h2.623c.013.164-.194.21-.285.082.005.255.238.356.354.295.078-.038.135-.12.12-.262a.528.528 0 0 0 .36.127.537.537 0 0 0-.147-.354c.146.01.22-.051.257-.127.053-.122-.057-.35-.314-.343m-2.258-4.137c-.073.067-.103.158-.08.226.026.08.093.15.24.157a.539.539 0 0 0-.187.335c.154.02.28-.021.373-.086-.032.14.016.227.086.272.053.038.137.04.215.004a8.85 8.85 0 0 1 1.198 3.24.537.537 0 0 0-.297-.082.515.515 0 0 0 .16.37h-1.996c.014-.126-.05-.236-.133-.265-.08-.03-.175-.015-.268.095a.55.55 0 0 0-.158-.35.524.524 0 0 0-.155.35c-.093-.11-.19-.125-.272-.095-.08.029-.145.14-.131.265h-1.704a.526.526 0 0 0 .12-.337.51.51 0 0 0-.34.124v-2.763c.129.021.245-.046.271-.13.029-.081.017-.176-.095-.27a.536.536 0 0 0 .352-.158.53.53 0 0 0-.352-.154c.112-.093.124-.19.095-.272-.026-.084-.142-.15-.272-.13v-2.336c.072.061.171.107.293.12a.537.537 0 0 0-.08-.333c.531.17 1.047.425 1.539.752.578.39 1.11.876 1.578 1.45"/><path d="M58.686 29.14a.432.432 0 0 0 .219-.202c-.116.04-.2-.015-.225-.028.078-.046.174.005.078-.143-.091-.148-.156-.152-.251-.046-.097.101-.731-.026-.727-.504.044.085.127.14.217.18.025.014.051.025.076.039l.082.015a.5.5 0 0 0 .183.027l.034.002v-.016c.13-.028.234-.11.247-.25.023-.26-.224-.382-.5-.61a3.843 3.843 0 0 1-.255-.236c-.096-.187-.03-.358-.27-.7a1.556 1.556 0 0 0-.079-.305.868.868 0 0 0 .149 1.007c.262.293.83.57.807.82-.006.057-.06.11-.145.126-.025-.002-.051-.002-.078-.01a.18.18 0 0 1-.051-.017.415.415 0 0 1-.12-.053.903.903 0 0 1-.196-.154c-.234-.221-.448-.54-.589-.72-.264-.335-.142-.659-.102-.94.184-.254-.113-.777-.288-.907 0 0 .038-.118-.011-.268-.036.028-.118.023-.162.019-.048-.097-.069-.118-.133-.13-.113-.017-.11-.08-.122-.125-.065.06-.09.118-.158.122-.092.003-.132-.002-.168.032-.068.051-.095.074-.198.069-.106 0-.104.06-.097.139.01.047.013.123.08.152.008.004.02.011.03.013l.088.101.053-.107c.046-.043.187-.053.212.046.019.067.032.088-.054.1-.095.01-.142.01-.23.016-.06.002-.059.08-.057.13.004.06.072.091.198.059.128-.03.35-.054.35.053 0 .284-.321.274-.394.61a.589.589 0 0 1-.2-.185 1.235 1.235 0 0 0-.238-.294 1.273 1.273 0 0 0-.243-.201c-.113-.067-.116-.122-.116-.238 0-.101.043-.193.04-.286a.45.45 0 0 0-.027-.086c-.023-.062-.105-.11-.154-.097.026.02.057.042.062.1-.024.02-.043.05-.047.055-.021.024-.03.062.006.097.007.003.007.011.007.02a.172.172 0 0 1-.007.048c-.006.017-.01.01-.014-.002-.026-.07-.057-.173-.123-.18-.006 0-.033-.002-.046 0a.02.02 0 0 0 .006-.014c0-.072-.082-.131-.17-.044.02.006.053.01.067.029a.404.404 0 0 0-.017.074c-.006.072.05.109.13.109.014 0 .022.005.024.013.006.011.006.023.011.032.002.014-.005.012-.013.008-.131-.057-.185.004-.19.06 0 .005 0 .039.005.054-.05.03-.057.101.027.154 0-.024-.004-.068.027-.082a.036.036 0 0 0 .019-.009.14.14 0 0 0 .036.034c.007.006.032.002.072-.026.012-.008.021-.008.032 0 .012.01.025.019.04.026.008.006.006.014 0 .017-.081.084-.066.158.03.185-.049.091-.199.055-.19-.08-.108.179.073.303.225.24.004.06.002.188.025.192-.002-.01.01-.036.036-.036.01 0 .011.01.011.02.002.04.02.092.079.1-.01-.027.001-.044.019-.055.022.042.055.087.074.124.072.133.223.472.56.616-.17.1-.29.246-.396.377-.096.092-.235.193-.322.141-.038-.026-.046-.06-.101-.099-.04-.026-.08-.034-.105-.028-.005.002-.034.01-.057.022-.059-.022-.148.008-.177.054.036-.004.072-.015.122.02-.002.024-.002.058-.004.06-.006.04.029.087.206.074.007 0 .028.006.02.019-.02.017-.049.042-.093.027-.078-.021-.116-.084-.173-.012a.204.204 0 0 1-.036.046c-.004-.002-.011 0-.017 0-.069.023-.135.156-.054.213a.13.13 0 0 1 .052-.106c.013.015.03.036.036.04.05.076.107.118.223-.06.011-.015.015-.001.013.006-.006.084-.084.2.021.215.002 0 .029.006.05.008l.001.02c.02.094.15.12.198.094-.034-.015-.089-.042-.11-.114.021 0 .048-.002.051-.008.065-.062-.011-.144.02-.188.007-.017.019-.012.024 0 .023.036.074.114.168.067a.144.144 0 0 0 .068-.115c.12-.047.227-.087.31-.059-.015-.06.056-.146.183-.179.126-.036.181.002.221.04a.58.58 0 0 1 .128-.217c-.014.5.658.488.815.787-.206-.084-.427-.134-.552-.107-.166.03-.45.183-.488.37-.027.152.13.424.29.532-.193.038-.263-.02-.44.025a.057.057 0 0 0-.02-.008c-.15.018-.173-.25-.353-.18a.166.166 0 0 0-.05.034h-.002c-.07 0-.167.087-.15.158a.194.194 0 0 1 .114-.065c-.002.015-.002.036-.002.036-.004.029.006.061.067.061.038 0 .05-.017.072-.017.012 0 .021.01.021.021 0 .07-.227-.04-.185.152.002.004.021.042.035.054-.008.057.04.118.14.083-.02-.013-.057-.04-.047-.068l.042.004c.013 0 .02-.006.026-.03.002-.006.004-.008.01-.008.013.003.02.01.02.017 0 .01-.012.02-.012.042a.3.3 0 0 0 .015.059c-.006.068.093.14.192.07-.028-.002-.091-.015-.097-.051a.115.115 0 0 0 .048-.02c.013-.01.019-.037.019-.064 0-.02.01-.02.019-.02.013-.001.034-.001.05-.005.02-.002.026.008.03.017.022.04.074.08.14.057.04-.013.054-.034.06-.05a.625.625 0 0 1 .081.05c-.019-.07.033-.129.189-.026l.112-.086s.149.061.206-.008c.093-.081.044-.085.044-.163-.067-.15-.103-.137-.136-.28-.05-.248.296-.39.495-.348.04.158.263.573.63.696.23.08.324-.173.4-.139.016.008.029.03.04.07-.013.113.006.216-.024.27-.025.054-.149.009-.233.005-.047-.006-.085.028-.09.038-.07.011-.151.076-.148.156.027-.019.073-.06.128-.068a.366.366 0 0 1 .004.034c.011.097.122.13.184.065.006-.014.037 0 .02.011-.056.042-.16.137-.073.173.004 0 .03.015.051.023-.005.065.039.122.09.13-.017-.033-.023-.052.008-.119.019.002.045.002.047.002.065.002.036-.12.105-.156.007-.01.017-.004.013.004-.025.07-.036.154.027.177.007 0 .028.006.051.01.021.055.088.095.177.05-.019-.012-.068-.03-.08-.06a.403.403 0 0 0 .046-.06c.046-.151-.088-.153-.088-.214 0-.074.15-.027.15-.173 0-.006-.003-.015-.005-.023.072-.04.145-.086.15-.141a.407.407 0 0 1-.186-.036v-.006zM51.955 33.644l-.14-.01.005-.129c.019-.478-.267-.835-.783-.835-.459 0-1.346.595-2.589.595-.527 0-1.156-.257-1.55-.487l-.154.371c.002-.013.002-.023.002-.038a.307.307 0 0 0-.613 0 .31.31 0 0 0 .308.309c.096 0 .181-.048.238-.116l-.156.369c.052.023.107.047.162.066-.179 1.883 1.21 4.284 3.67 5.013.366-.097.737-.042.737.354 0 .246-.123.354-.342.354-.149 0-.24-.087-.24-.184 0-.164.285-.065.316-.181.038-.149-.061-.217-.229-.217-.171 0-.43.112-.43.398 0 .34.269.538.56.538.274 0 .847-.154.767-.826.133.008.28-.015.312-.14l.029-.383-.132-.02.103-4.311.097.007c.158.012.295-.06.307-.23.011-.173-.128-.253-.255-.267m-4.447.337l2.988 4.297c-1.6-.622-3.188-2.056-2.988-4.297m3.076 3.886l-2.722-3.914c.091.004.175.004.249.004.14 0 .282-.006.42-.029l2.184 3.136c-.047.302-.093.58-.131.803m.2-1.241l-1.921-2.759c.213-.048.419-.108.615-.183l1.447 2.064c-.046.291-.093.588-.141.878m.464-3.033l-.11-.012c-.128-.007-.291.054-.303.225-.013.171.109.267.267.278l.08.006-.015.112-.174 1.118-1.218-1.746c.57-.227 1.032-.474 1.277-.474.196 0 .24.095.196.493M51.433 24.962c.582.004.872-.188.872-.369 0-.647-1.601-.245-1.601-.64 0-.064.045-.121.118-.177h.022c.806-.074.817-.63 1.392-.74-.693-.1-.79.447-1.087.472.158-.076.215-.263.202-.333-.141.188-.453.204-.626.422-.025.035-.039.079-.027.115-.107.064-.171.139-.171.234 0 .613 1.627.192 1.627.638 0 .154-.28.26-.727.26-.333 0-.575-.24-1.2-.08.004-.102.21-.3.13-.397.06-.021.103-.073.103-.122a.223.223 0 0 0-.12-.055c.02-.03-.008-.063-.03-.086-.004-.008-.018-.074-.035-.088-.023-.017-.07-.063-.143-.095-.07-.036-.116-.036-.144-.04-.02-.006-.084.012-.09.012-.038-.006-.078-.006-.082.038a.18.18 0 0 0-.114-.05.225.225 0 0 0-.015.171c-.057.006-.122.155-.177.14.02.041.038.058.055.062-.046.088-.068.19-.122.196.016.02.029.037.042.048a1.86 1.86 0 0 0-.085.37.63.63 0 0 0-.132-.104c-.093-.055-.087-.1-.072-.192.013-.08.066-.154.072-.226 0-.01-.01-.056-.011-.075-.012-.051-.082-.093-.126-.083.021.015.044.034.04.083-.019.016-.04.038-.046.038-.022.027-.036.056-.011.082.006.008.006.012.004.02 0 .01-.004.017-.012.036-.005.015-.007.007-.01 0-.013-.06-.03-.14-.083-.147-.008-.002-.034-.002-.044-.002.002-.004.004-.008.004-.011.008-.061-.057-.109-.148-.038.019.001.047.007.059.026a.218.218 0 0 0-.027.061c-.013.06.032.084.103.088.015 0 .02.004.02.007a.067.067 0 0 1 .006.027c.002.013-.005.011-.011.01-.112-.048-.168 0-.18.043 0 .004-.005.033-.005.046-.042.025-.063.078.008.126.002-.021.004-.06.036-.07.004 0 .012 0 .017-.005.008.014.025.025.025.027.01.006.03.006.074-.019.008-.004.015-.008.029 0 .007.008.017.013.03.023.008.004.006.01-.002.017-.091.067-.09.135.014.156.011 0 .015.006.011.017-.027.133-.217.103-.186-.026-.128.148.04.262.192.19.011-.004.015-.002.017.006.004.024.015.045.042.05-.004-.007.01-.031.034-.031.01 0 .01.007.01.015-.004.032.003.08.055.086-.004-.027.006-.054.026-.054.021 0 .063.11.147.204a1.88 1.88 0 0 1-.36.109c-.03 0-.223-.021-.282.013-.093.047-.32.133-.386.036-.02-.03-.015-.063-.042-.112-.023-.03-.053-.056-.072-.057-.006-.002-.034-.002-.055-.002-.037-.04-.122-.048-.155-.017.029.007.061.009.088.057a.29.29 0 0 0-.025.047c-.019.027-.006.074.137.124.006.006.017.017.006.025-.023.007-.051.013-.08-.01-.055-.044-.063-.11-.131-.068-.004 0-.023.011-.044.023a.025.025 0 0 0-.015-.006c-.061-.006-.162.072-.116.145.009-.018.032-.058.076-.065.007.017.011.04.015.044.013.074.046.13.194.032.017-.011.017.006.013.008-.034.062-.135.127-.059.177.004 0 .02.013.037.024-.004.004-.008.01-.008.014-.017.085.074.144.126.14a.135.135 0 0 1-.048-.125l.044.011c.07-.026.036-.114.076-.14.011-.01.017-.004.02.007.005.034.022.118.11.11.08-.01.117-.08.112-.121-.002-.01 0-.012.005-.01.03.02.054.052.042.093a.117.117 0 0 0 .061-.06c.02.038.023.095-.03.148.03-.011.118-.053.139-.145a.11.11 0 0 1 .028.048c0-.008.002-.008.004-.008a.293.293 0 0 0 .175-.007c.01 0 .012.005.01.011-.008.034-.008.067.01.086 0-.012.024-.042.032-.042.024 0 0 .084.053.137.017-.217.135-.133.27-.22.017-.012.017-.005.014.007a.141.141 0 0 1-.057.07c.049.002.165-.05.165-.127 0-.016.042-.042.088-.073.047.012.125-.013.154-.07.008.023.03.085-.004.105.143.009.291-.153.347-.168.304-.063-.19-.284.436-.248a.303.303 0 0 0 .18-.066c-.047.095-.05.284.046.297a.362.362 0 0 1 .16.068c.008.01.004.014-.004.016a.399.399 0 0 0-.133.036c-.149.097-.152-.22-.308-.162-.006.002-.029.023-.04.03-.061 0-.147.077-.134.14.02-.018.054-.054.101-.056l-.002.03c-.003.025.008.05.06.05.03 0 .037-.013.062-.013.012 0 .015.006.015.015 0 .063-.19-.032-.158.13a.18.18 0 0 0 .029.05c-.006.049.036.1.122.071-.015-.013-.048-.032-.04-.059.015.002.032.002.038.004.006 0 .015-.006.02-.027 0-.003.003-.007.007-.007.013.004.019.007.019.015 0 .01-.014.02-.014.034 0 .004.012.044.017.05-.01.059.078.12.164.06-.025-.001-.076-.013-.084-.041a.087.087 0 0 0 .038-.017c.016-.01.02-.03.02-.057.001-.014.009-.014.017-.014.013-.002.028-.002.04-.003.017-.002.024.003.03.01a.09.09 0 0 0 .118.05c.105-.034.015-.125.1-.142a.08.08 0 0 1 .064 0c.082.017.203.015.224-.023.021-.04.012-.189-.076-.24-.053-.027.002-.088-.047-.164.09.038.182.076.308.076.225 0 .01-.034.109-.093.108-.07.238-.036.27-.028.03.003.053.017.046.053-.025.118.011.13-.014.183-.023.047-.12.007-.184.005-.038-.003-.069.023-.069.029-.057.013-.122.063-.12.127a.224.224 0 0 1 .103-.051v.023c.008.08.097.106.147.051.005-.01.03 0 .019.012-.046.036-.128.11-.061.142.005 0 .024.01.04.016a.104.104 0 0 0 .072.108c-.013-.026-.017-.04.006-.097a.365.365 0 0 0 .038.002c.051 0 .028-.097.084-.128.007-.003.013-.003.01.004-.02.057-.03.124.022.141l.04.01c.015.043.067.076.135.04-.013-.006-.05-.025-.059-.046a.215.215 0 0 0 .036-.053c.033-.12-.068-.122-.068-.17 0-.059.118-.025.118-.144a.082.082 0 0 0-.05-.075c-.005 0-.005-.004-.004-.007h.002c.033 0 .067.011.082-.036-.085.005-.059-.069-.074-.119-.002-.005-.002-.011.008-.019.026-.02.05-.057.04-.127-.03.038-.13.086-.138.004-.003-.004-.005-.063-.095-.048-.148.015-.22-.063-.504-.09-.015-.001-.03-.013 0-.017m-1.782-.653c-.002 0-.006 0-.012.004.006-.004.01-.004.012-.004m.42-.102a.81.81 0 0 0 .19.074c-.087.019-.064.055-.123.051-.053-.002-.078-.074-.066-.125m-.118-.063c-.023.046-.08.08-.122.04-.044-.042.005-.053-.044-.133.046.032.139.089.166.093m-.181.394c.015-.032.03-.06.047-.06.035.005.05-.005.061-.04.017-.035-.02-.05-.051-.075.036-.012.051-.021.034-.042-.023-.023-.057.015-.068-.004-.006-.017.024-.03.034-.04.015-.015.028-.011.047 0l.155.074c.02.008.032.016.032.038-.002.02.008.044-.01.052-.015.006-.015-.046-.043-.052-.023-.001-.023.021-.01.058-.038-.016-.07-.03-.087.005-.016.03-.012.052.011.076.013.016.002.044-.011.078-.012.035-.056.084-.11.056-.058-.029-.05-.09-.031-.124M52.24 27.14c0-.176-.196-.289-.766-.289-.573 0-1.858.213-1.858-.108 0-.158.25-.145.552-.126.021.025.06.05.124.065.737.215 1.603-.172 2.05-.048-.525-.398-.963.015-1.524-.106.327 0 .44-.092.457-.183-.254.167-.737-.082-1.038.103-.017.011-.034.026-.048.038-.409-.01-.733-.01-.733.257 0 .57 1.531.238 2.013.238.478 0 .58.047.58.139 0 .137-.477.171-.746.171-.417 0-1.67-.219-2.431-.067.063-.123.198-.283.126-.373.068-.028.116-.087.118-.144a.267.267 0 0 0-.137-.065c.022-.034-.008-.07-.038-.101-.006-.01-.021-.086-.039-.097-.026-.023-.081-.076-.165-.113-.086-.041-.14-.041-.173-.049-.02-.004-.098.017-.103.017-.04-.01-.09-.01-.097.04a.22.22 0 0 0-.132-.055.264.264 0 0 0-.019.202c-.068.005-.139.18-.203.158.024.047.045.068.064.074-.055.1-.08.223-.146.225.042.057.07.08.095.085-.008.075-.012.156-.015.22l-.122-.045-.033-.003c-.017 0-.032-.01-.049-.02.017.004.036.008.051.014l-.068-.027c-.065-.05-.143-.148-.25-.213-.112-.063-.112-.12-.104-.234.005-.103.055-.194.055-.284-.002-.013-.017-.063-.025-.09-.011-.06-.093-.11-.146-.098.026.02.053.042.057.1a.342.342 0 0 0-.05.054c-.02.027-.032.063 0 .1.004.008.006.012.004.022a.156.156 0 0 1-.01.045c-.003.018-.009.008-.01-.001-.022-.073-.05-.176-.111-.18-.008 0-.038-.007-.05-.003.004-.004.006-.008.006-.012.006-.074-.076-.133-.166-.042.017 0 .054.008.069.031a.212.212 0 0 0-.023.074c-.01.074.042.1.122.103.015 0 .023.008.025.013.003.012.003.023.007.035.004.013-.004.011-.013.005-.126-.057-.183.006-.189.063 0 .004-.003.036 0 .052-.05.034-.064.1.017.156 0-.025-.001-.073.033-.082a.186.186 0 0 0 .02-.01c.008.014.027.033.031.033.014.005.034.002.076-.025.012-.008.021-.012.033 0 .01.006.024.015.036.025.01.005.01.017 0 .024-.091.084-.084.168.03.187.018.002.021.011.021.025-.02.162-.232.13-.211-.029-.128.185.074.324.234.232.01-.01.013-.003.02.004.003.03.02.055.049.061-.004-.011.01-.036.036-.038.01 0 .01.01.01.02 0 .041.013.094.072.1-.008-.029.005-.063.023-.063.03 0 .1.126.228.198.107.046.18.162.251.092-.011.11.09.238.067.238-.034 0-.33-.023-.4.015-.11.059-.375.152-.45.044-.028-.039-.016-.073-.052-.132-.025-.038-.06-.065-.086-.066-.004 0-.036-.004-.061-.004-.044-.046-.14-.05-.179-.021.03.006.069.013.099.068-.011.017-.023.05-.027.052-.022.034-.01.091.158.152.008.002.021.02.008.025a.08.08 0 0 1-.09-.012c-.066-.051-.076-.123-.156-.08-.001.004-.03.016-.051.027-.006-.006-.013-.006-.017-.006-.072-.007-.187.082-.137.168a.13.13 0 0 1 .091-.074c.004.02.014.043.015.053.018.086.054.15.229.036.017-.015.017.004.013.008-.044.076-.156.146-.066.203.003.002.019.018.038.033-.004.006-.004.011-.008.013-.017.1.091.175.145.17-.021-.027-.063-.075-.052-.147a.375.375 0 0 0 .048.011c.086-.034.047-.135.091-.163.02-.014.025-.002.025.005.008.044.027.14.126.128.093-.01.14-.086.133-.139-.002-.008 0-.01.008-.008a.091.091 0 0 1 .047.103.14.14 0 0 0 .072-.07c.02.05.027.11-.038.173.037-.013.137-.063.16-.168.014.016.03.037.037.058.001-.004.003-.008.009-.01.032.011.1.017.198-.004.011-.006.015.002.015.012-.013.036-.013.078.008.097 0-.014.028-.05.04-.05.028 0-.002.097.06.156.02-.253.159-.154.317-.255.019-.011.019-.004.013.01a.131.131 0 0 1-.067.084c.174.038.452-.227.492-.34.072-.007.133-.017.167-.013.5.044.153-.45.958-.31.051.004.15-.05.196-.09-.06.103-.061.326.047.343.052.01.153.042.19.082.012.01.005.013-.007.02a.493.493 0 0 0-.154.035c-.17.114-.175-.257-.356-.184a.256.256 0 0 0-.051.036c-.07 0-.17.084-.153.158a.19.19 0 0 1 .118-.065c-.002.017-.002.036-.002.042-.005.023.008.055.069.055.034 0 .042-.017.069-.017.013 0 .024.004.024.021 0 .068-.228-.042-.186.15 0 .004.02.042.032.056-.006.057.04.116.141.083-.02-.013-.055-.036-.048-.068.018 0 .042.004.046.004.011 0 .021-.006.025-.033 0-.004.002-.005.01-.005.01.001.016.005.016.015 0 .011-.011.023-.011.042 0 .005.01.053.02.059-.012.068.089.142.19.072-.03-.004-.09-.015-.101-.05.022-.007.045-.02.05-.02.014-.014.022-.04.022-.07 0-.014.008-.016.017-.016.013 0 .03 0 .046-.004.024-.002.03.006.034.013.02.044.072.086.14.061.123-.042.022-.15.117-.171.019-.002.05-.01.07 0 .098.025.24.02.265-.023.027-.05.013-.219-.091-.28-.06-.03.005-.104-.052-.19a.883.883 0 0 0 .356.086c.265 0 .33-.037.448-.11.127-.079.276-.037.316-.033.032.006.06.02.051.066-.03.137.013.149-.017.214-.023.051-.137.007-.213.002-.048-.002-.08.026-.082.036-.065.013-.141.07-.135.146.019-.015.06-.053.116-.063 0 .014.004.027.004.031.007.095.11.124.17.063.007-.012.031 0 .018.013-.055.04-.148.128-.068.158.002.004.024.021.047.029-.007.057.036.114.084.123-.017-.032-.023-.047.006-.114.019.002.04.002.045.002.057.002.03-.112.096-.15.01-.006.015-.002.011.005-.023.065-.034.147.025.168.004 0 .028.006.047.008.02.053.082.09.16.05-.015-.009-.059-.03-.068-.058.013-.021.04-.051.042-.063.04-.137-.082-.139-.082-.198 0-.068.139-.02.139-.162 0-.026-.01-.07-.06-.09-.007-.001-.007-.007-.005-.007h.004c.04 0 .078.01.099-.045-.105.007-.074-.082-.088-.136-.002-.011-.002-.019.008-.024.034-.021.057-.069.046-.149-.035.048-.149.101-.162.006-.002-.006-.008-.074-.109-.055-.175.019-.297-.02-.624-.046.375 0 .929-.1.929-.31m-4.465.327c-.003-.004-.003-.008.002-.008l-.002.008m.907-.815a.873.873 0 0 0 .222.088c-.104.019-.076.063-.142.059-.065-.002-.09-.088-.08-.147m-.137-.07c-.029.05-.092.093-.143.044-.046-.046.005-.063-.054-.157.056.04.162.107.197.113m-.214.46c.02-.04.036-.072.06-.072.035.002.058-.007.072-.042.015-.045-.025-.066-.065-.095.042-.008.065-.028.042-.05-.027-.024-.067.02-.076-.001-.008-.023.023-.035.036-.046.017-.017.032-.013.057-.002l.179.086c.025.013.038.02.038.044-.002.022.008.055-.013.064-.017.004-.016-.057-.048-.064-.03-.002-.03.028-.011.068-.044-.013-.084-.036-.105.004-.021.036-.011.06.013.091.015.02.002.05-.011.092-.015.042-.069.1-.13.064-.066-.036-.057-.106-.038-.14m.469.997l.002-.008c.003.006 0 .008-.002.008M51.986 29.643c0-.167-.181-.274-.726-.274-.542 0-2.217.206-2.217-.103 0-.192.567-.114.98-.105.017.033.057.06.122.079.699.198 1.431-.273 1.932-.103-.396-.362-.908.038-1.437-.073.31-.002.634-.062.65-.146-.239.156-.92-.109-1.204.072a.19.19 0 0 0-.048.038c-.516-.006-1.148-.07-1.148.238 0 .545 1.906.225 2.363.225.459 0 .554.05.554.135 0 .13-.455.158-.712.158-.423 0-2.205-.23-2.911-.017.04-.122.21-.303.13-.398.068-.029.114-.078.117-.135a.28.28 0 0 0-.133-.065c.021-.028-.004-.067-.032-.091-.01-.008-.025-.082-.036-.095-.029-.023-.082-.07-.162-.109-.078-.036-.132-.036-.16-.044-.021-.007-.091.015-.101.014-.036-.006-.086-.006-.091.04a.205.205 0 0 0-.124-.054.233.233 0 0 0-.017.192c-.067.004-.135.168-.194.15.02.048.04.066.059.071-.052.097-.075.212-.138.217.023.03.044.052.061.063a1.01 1.01 0 0 0-.02.166l-.058-.02c-.036-.003-.076-.003-.083-.007-.029-.006-.056-.013-.092-.013-.085-.008-.148-.149-.295-.232-.106-.063-.11-.115-.11-.227 0-.095.045-.18.038-.268-.002-.006-.017-.058-.027-.082-.017-.061-.099-.109-.143-.094a.116.116 0 0 1 .057.096.195.195 0 0 0-.041.051c-.021.025-.03.063.003.093a.032.032 0 0 1 .008.021c0 .01-.002.021-.008.042-.003.017-.011.01-.013 0-.025-.07-.055-.165-.116-.171-.008 0-.032-.004-.044-.002.004-.004.004-.006.004-.013 0-.069-.078-.124-.16-.04.017.001.05.007.063.028a.505.505 0 0 0-.017.07c-.006.073.05.098.123.101.016 0 .02.004.023.012.002.011.008.023.01.03.006.014-.002.014-.012.01-.12-.055-.175.004-.177.057 0 .006-.003.034.002.048-.045.034-.057.097.025.146-.002-.019-.006-.066.03-.076.004 0 .008-.002.014-.006.013.012.032.027.034.033.01.005.032 0 .07-.027.012-.006.02-.006.033 0l.036.023c.008.01.006.017 0 .023-.084.08-.068.16.04.179.013.002.015.01.015.024-.007.15-.207.122-.202-.03-.108.175.09.31.238.22.008-.007.014-.001.016.005.007.028.024.053.051.057-.002-.01.008-.033.036-.033.006-.003.008.006.008.016.002.043.019.09.074.099-.01-.033 0-.061.02-.061.028 0 .136.207.357.329.042-.01.105-.01.126-.063.002.02.023.036.047.054.01.1.073.226.052.226-.03 0-.38-.017-.45.021-.102.055-.35.147-.424.04-.025-.034-.02-.067-.052-.12-.02-.04-.055-.065-.08-.067-.005-.003-.034-.003-.059-.003-.04-.044-.133-.05-.17-.02a.13.13 0 0 1 .098.065c-.013.017-.027.044-.032.048-.017.036-.008.087.152.145.006.001.023.015.01.02a.076.076 0 0 1-.09-.007c-.059-.048-.072-.116-.143-.076-.005.004-.028.013-.051.023l-.017-.004c-.069-.008-.177.082-.128.164a.119.119 0 0 1 .086-.075c.008.017.013.04.013.05.017.082.052.146.22.034.016-.01.016.002.012.011-.041.069-.152.14-.066.193l.038.03c-.002.002-.004.01-.004.014-.017.09.08.163.135.16a.168.168 0 0 1-.05-.143c.022.007.04.019.046.011.079-.028.044-.126.088-.156.015-.01.025 0 .025.011.004.037.02.128.118.118.087-.007.133-.083.125-.133-.003-.006 0-.011.008-.006.03.02.055.054.046.1a.177.177 0 0 0 .068-.065.142.142 0 0 1-.038.162.228.228 0 0 0 .154-.16.154.154 0 0 1 .033.051c.002-.004.006-.004.007-.01.033.016.098.021.19-.003.01-.002.01.002.01.01-.003.04-.003.077.012.096.002-.007.026-.047.04-.047.024 0 0 .093.051.146.023-.236.305-.118.457-.215.02-.011.021-.007.015.008a.155.155 0 0 1-.066.08c.051.004.135-.03.2-.078l-.02.019.244-.109a.516.516 0 0 0 .012-.072c.03-.008.059-.012.083-.021-.002.006-.003.008-.007.008.156.011.14-.118.202-.107.889.118.378-.383 1.424-.282.051.002.072-.02.116-.063-.055.103-.055.273.05.292.049.005.144.038.18.076.01.007.002.015-.006.017a.535.535 0 0 0-.146.036c-.164.107-.17-.242-.341-.175a.317.317 0 0 0-.046.034c-.07 0-.163.08-.144.153a.177.177 0 0 1 .108-.065c-.002.015-.002.032-.002.036-.005.03.006.055.063.055.038 0 .046-.017.07-.017.012 0 .018.01.018.021 0 .065-.214-.034-.174.145 0 .002.021.04.033.055-.008.051.036.106.135.078-.02-.013-.055-.036-.05-.065.018.002.04.002.046.002.006 0 .017-.004.021-.027.004-.005.004-.01.011-.01.008.005.016.01.016.018 0 .011-.012.02-.012.036 0 .006.012.052.017.06-.005.064.088.133.185.066-.027-.002-.087-.013-.093-.046a.17.17 0 0 1 .042-.019c.017-.011.02-.038.02-.066.004-.014.012-.016.02-.016a.342.342 0 0 0 .042-.004c.022-.003.03.006.034.014.017.044.068.076.133.057.114-.042.02-.143.11-.164a.138.138 0 0 1 .069 0c.09.025.229.02.25-.023.024-.045.013-.207-.086-.264-.057-.03.004-.1-.052-.183.101.04.206.084.341.084.25 0 .314-.038.423-.105.124-.074.263-.036.3-.03.031.005.06.019.05.062-.028.13.013.141-.015.198-.023.052-.133.012-.204.004-.046-.002-.078.03-.078.038-.065.01-.135.067-.131.14.02-.014.064-.054.112-.058 0 .01 0 .02.004.025.01.091.105.122.16.059.01-.01.03 0 .02.011-.053.038-.144.126-.066.156.002 0 .023.014.044.023-.002.054.036.11.082.116-.015-.026-.021-.047.004-.102h.043c.056.003.03-.11.092-.141.007-.01.013-.006.011.002-.02.062-.032.139.025.158.004 0 .025.007.044.01.015.047.076.083.152.045-.02-.01-.057-.027-.069-.053a.16.16 0 0 0 .039-.058c.041-.133-.073-.135-.073-.19 0-.065.133-.023.133-.16a.093.093 0 0 0-.06-.082c-.004 0-.004-.004-.002-.005v.001c.038-.001.076.006.095-.04-.1 0-.065-.078-.082-.133 0-.011-.004-.019.008-.023.028-.022.053-.066.043-.144-.032.047-.142.1-.15.007-.002-.007-.01-.072-.109-.051-.165.017-.28-.021-.592-.048.313-.02.882-.087.882-.293m-3.975-.442c.023.02.148.067.213.086-.097.017-.076.053-.139.052-.065 0-.084-.084-.074-.138m-.132-.07c-.028.048-.09.09-.135.042-.046-.044.006-.055-.051-.147a.811.811 0 0 0 .186.105m-.2.438c.016-.036.03-.067.052-.067.04 0 .057-.005.07-.042.017-.042-.023-.062-.06-.085.04-.012.058-.03.04-.05-.023-.02-.065.015-.075-.002-.008-.019.023-.032.034-.043.02-.021.033-.014.056-.004l.173.083c.02.01.034.021.034.046 0 .015.008.052-.011.055-.02.004-.017-.051-.052-.055-.02-.007-.02.02-.005.06-.04-.014-.082-.031-.101.005-.017.032-.012.06.013.087.013.018.004.048-.011.086-.016.038-.065.093-.122.065-.065-.038-.055-.103-.035-.14M59.724 33.833c-.002-.008-.002-.015.008-.021.034-.023.063-.067.057-.147-.034.05-.149.103-.152.01 0-.004-.004-.07-.101-.054-.166.018-.324-.015-.636-.041-.02-.004-.034-.018 0-.023.312-.025.885-.07.885-.27 0-.166-.187-.275-.731-.275-.54 0-2.214.198-2.214-.106 0-.193.561-.115.98-.101.02.028.057.055.12.074.7.198 1.5-.326 1.923-.204-.552-.19-.897.14-1.428.03.31 0 .638-.064.653-.146-.24.154-.92-.108-1.205.072a.261.261 0 0 0-.05.039c-.515-.006-1.142-.067-1.142.236 0 .542 1.9.226 2.355.226.46 0 .558.048.558.133 0 .132-.453.164-.71.164-.428 0-2.203-.238-2.915-.02.038-.12.215-.303.136-.397.066-.028.11-.08.112-.14a.232.232 0 0 0-.133-.062c.022-.032-.006-.066-.033-.093-.004-.006-.02-.082-.04-.093a.623.623 0 0 0-.158-.11c-.076-.039-.13-.035-.162-.042-.017-.006-.091.015-.097.013-.038-.004-.083-.004-.091.042a.21.21 0 0 0-.128-.055.268.268 0 0 0-.015.196c-.066.002-.133.163-.194.144.023.048.042.067.06.07-.05.098-.075.214-.138.218.04.051.068.076.091.08a2.77 2.77 0 0 0-.013.162l-.093-.033c-.036-.002-.078-.002-.088-.004-.023-.007-.055-.011-.086-.017-.087-.01-.152-.146-.298-.232-.107-.06-.11-.112-.11-.227 0-.093.043-.177.04-.262a.496.496 0 0 0-.03-.086c-.017-.059-.097-.107-.144-.095.025.017.051.04.059.095-.021.021-.04.048-.046.051-.015.027-.023.063.006.096.01.005.01.013.01.017a.166.166 0 0 1-.01.044c-.006.02-.01.01-.013 0-.02-.065-.054-.162-.113-.17l-.047-.002c.002-.004.003-.005.003-.013 0-.069-.076-.124-.158-.042.02.006.056.01.067.03-.008.021-.017.067-.02.071-.005.07.047.099.123.099.017 0 .023.008.025.015.003.006.005.021.007.029.006.015-.002.011-.01.007-.121-.055-.176.004-.178.06 0 .003-.002.034.002.047-.042.03-.054.097.026.147-.002-.02-.003-.069.029-.078l.015-.002c.012.01.029.024.034.026.012.006.029.002.073-.024.007-.002.015-.006.03 0a.082.082 0 0 0 .034.022c.008.008.008.017.002.021-.085.082-.072.164.04.183.012.006.016.011.016.025-.008.154-.21.122-.202-.03-.113.176.087.308.234.22.013-.007.017-.002.019.004.01.027.023.055.05.055-.002-.006.009-.032.034-.032.01 0 .011.007.011.017.004.04.017.093.074.099-.007-.034 0-.06.018-.06.03 0 .127.224.352.346-.01-.018.084-.054.131-.082.01.042.034.083.076.099l.036-.02c-.013.103.11.212.088.212-.034 0-.24-.027-.312.01-.1.058-.354.146-.427.045-.024-.042-.017-.072-.05-.125-.022-.04-.056-.065-.081-.067l-.059-.002c-.042-.042-.133-.051-.168-.02.027.009.063.014.092.066-.008.019-.023.043-.025.047-.019.036-.008.09.15.143.008.002.023.015.01.025-.023.011-.057.017-.088-.014-.06-.043-.072-.114-.146-.072-.006.002-.025.013-.05.021l-.015-.002c-.07-.006-.175.082-.13.166a.11.11 0 0 1 .086-.078l.016.05c.017.083.047.146.215.035.019-.007.017.004.011.008-.036.07-.15.14-.063.194 0 0 .021.02.035.029l-.002.017c-.014.091.083.162.137.156a.164.164 0 0 1-.054-.139c.023.006.042.015.05.013.08-.032.042-.13.09-.16.009-.007.016 0 .02.012.008.038.023.127.12.118.09-.008.134-.084.12-.131 0-.012.004-.012.014-.012.028.023.053.06.043.105a.182.182 0 0 0 .07-.069c.018.044.022.105-.04.166a.232.232 0 0 0 .155-.164c.017.017.03.036.036.053 0-.001.002-.007.006-.009.032.015.095.02.188-.002.012-.004.014.002.012.01-.006.036-.006.076.011.095.002-.01.025-.05.04-.05.027 0-.004.094.053.154.021-.243.153-.146.303-.243.02-.012.02-.008.017.01a.16.16 0 0 1-.07.077c.057.044.276-.095.276-.184 0-.023.086-.03.158-.046.154.01.133-.114.196-.107.891.12.38-.382 1.426-.28.05.002.074-.058.116-.098-.053.099-.057.306.051.327a.422.422 0 0 1 .18.074c.009.01 0 .015-.008.02a.478.478 0 0 0-.149.035c-.158.107-.163-.241-.337-.178-.007.005-.038.028-.047.04-.07-.004-.162.081-.147.152a.17.17 0 0 1 .11-.067v.034c-.003.033.008.058.065.058.035 0 .044-.016.065-.016.011 0 .021.006.021.02 0 .064-.215-.035-.175.142a.444.444 0 0 0 .034.057c-.01.052.036.107.131.076-.017-.013-.053-.04-.043-.066.015.004.036.004.04.005.011 0 .019-.005.024-.028 0-.006.002-.01.012-.008s.017.008.017.016c0 .01-.013.02-.011.036 0 .005.005.053.015.059-.01.064.085.135.18.068-.026-.004-.085-.015-.095-.045l.048-.023c.015-.01.02-.035.02-.063 0-.017.009-.017.014-.017l.048-.002c.02-.004.025.006.03.011.023.042.07.076.134.055.118-.04.019-.138.114-.161.017-.002.044-.006.07 0 .088.023.221.02.246-.023.027-.044.013-.206-.086-.263-.057-.027.002-.1-.05-.185.102.042.203.086.34.086.25 0 .329-.036.447-.105.128-.078.265-.038.305-.03.028.006.053.019.041.06-.038.13 0 .144-.032.203-.028.047-.131.007-.207.002-.039-.002-.075.03-.078.036-.063.011-.14.068-.143.139.023-.017.066-.052.118-.057v.026c.002.088.097.118.156.06.006-.01.03 0 .017.01-.053.039-.154.123-.076.155l.04.023c-.01.055.025.11.07.118-.013-.029-.015-.048.016-.105h.041c.056.002.04-.11.107-.143.004-.005.011-.002.01.002-.027.065-.048.143.009.16a.357.357 0 0 0 .042.012c.015.047.07.081.148.045-.015-.01-.053-.026-.06-.053a.296.296 0 0 0 .043-.06c.052-.134-.063-.136-.057-.19.006-.064.132-.022.143-.16a.07.07 0 0 0-.048-.076c-.003-.005-.003-.005-.003-.011h.001c.039 0 .073.011.101-.04-.1.006-.062-.078-.074-.133m-3.92-1.013c.025.023.15.069.212.086-.098.02-.075.057-.134.057-.064-.004-.09-.086-.078-.143m-.131-.069c-.029.054-.086.092-.135.046-.046-.047.005-.059-.052-.146.056.032.156.099.187.1m-.204.44c.021-.038.038-.068.057-.068.038.003.057-.002.073-.042.011-.042-.027-.061-.065-.086.04-.011.065-.03.038-.047-.023-.021-.063.015-.069-.002-.01-.02.021-.035.033-.048.015-.011.03-.01.055 0l.173.082c.017.013.033.02.03.047 0 .016.01.05-.009.056-.02.005-.019-.052-.047-.057-.027-.006-.027.022-.008.062-.044-.013-.08-.036-.103.006-.017.032-.013.055.015.086.012.015 0 .045-.013.09-.015.035-.063.087-.12.058-.065-.034-.059-.103-.04-.137m-.14-.243h-.01.01zm.041-.193c-.006.004-.01.004-.011.006.002-.002.005-.006.011-.006m.813 1.27c.004 0 0 0 0 0M57.283 35.202c.017.036.051.066.122.087.668.193 1.431-.31 1.833-.194-.527-.184-.857.133-1.363.03.297-.001.607-.064.624-.144-.23.152-.877-.097-1.15.072a.14.14 0 0 0-.042.03c-.367-.007-.666-.007-.666.233 0 .518 1.386.213 1.822.213.432 0 .383.046.383.13 0 .122-.497.154-.743.154-.373 0-1.508-.196-2.197-.06.055-.111.18-.258.113-.338.06-.027.104-.078.106-.133a.234.234 0 0 0-.127-.057c.02-.03-.002-.067-.029-.092-.008-.005-.023-.076-.038-.087a.546.546 0 0 0-.15-.103c-.078-.038-.124-.038-.156-.044-.018-.004-.084.013-.096.012-.036-.002-.078-.002-.085.04a.197.197 0 0 0-.116-.052.25.25 0 0 0-.021.185c-.06.004-.124.162-.181.144.02.042.04.061.057.065-.052.092-.074.202-.13.21.021.026.037.043.054.055a1.04 1.04 0 0 0-.036.196l-.06-.021c-.009 0-.019 0-.026-.002-.082-.008-.132.002-.269-.078-.104-.057-.106-.11-.106-.213 0-.092.042-.172.036-.257a.454.454 0 0 0-.023-.08c-.02-.055-.097-.101-.14-.088.022.015.049.04.056.088a.329.329 0 0 0-.04.047c-.02.027-.03.063.002.092.008.005.008.013.008.019 0 .01-.004.02-.006.042-.004.017-.01.007-.013 0-.023-.065-.052-.16-.112-.16-.004 0-.029-.006-.04-.004l.001-.011c0-.067-.07-.12-.15-.042.017.005.05.01.063.03a.485.485 0 0 0-.021.067c-.004.068.05.093.12.095.013 0 .019.004.023.015a.149.149 0 0 1 .005.027c.006.011-.001.011-.01.006-.117-.05-.165.005-.169.053 0 .006-.001.036.004.051-.042.027-.053.092.023.137 0-.02-.004-.063.025-.07.007-.002.013-.008.019-.01.01.016.028.027.03.03.01.007.029.005.069-.022.008-.008.015-.01.027-.004.011.012.024.017.036.025.01.008.005.013.004.019-.08.076-.069.154.034.171.015.002.017.014.017.027-.01.143-.2.116-.194-.03-.105.167.084.293.228.21.008-.009.01 0 .014.003.01.026.022.053.049.055 0-.012.01-.03.03-.03.012 0 .012.005.012.015.002.034.015.083.07.093-.01-.029 0-.059.02-.059.026 0 .02-.063.2.036a.123.123 0 0 0 .064.067l.131-.023c-.017.1.016.253-.005.253-.033 0-.233-.023-.301.013-.095.052-.335.14-.402.04-.026-.036-.019-.068-.047-.118-.023-.036-.056-.06-.078-.062h-.058c-.038-.042-.127-.05-.163-.021.028.007.066.015.091.06-.013.018-.019.044-.025.048-.019.033-.007.084.145.135.004.002.02.017.006.025a.08.08 0 0 1-.084-.01c-.06-.049-.067-.112-.135-.072-.006.004-.029.012-.052.021-.003-.002-.01-.006-.019-.006-.062-.003-.163.08-.118.157a.107.107 0 0 1 .082-.069c.006.019.014.038.014.046.015.08.049.14.205.032.02-.01.02.004.015.01-.04.068-.14.133-.06.186a.173.173 0 0 0 .034.027c-.004.006-.006.007-.008.017-.013.086.082.152.133.147a.159.159 0 0 1-.051-.134c.02.008.042.015.05.014.076-.03.038-.12.081-.15.012-.008.017-.003.017.007.008.036.025.122.117.116.087-.01.127-.082.118-.13-.002-.005.002-.007.011-.005a.092.092 0 0 1 .042.099c.013-.012.05-.035.065-.069.019.042.022.101-.037.16.037-.013.128-.055.145-.156a.117.117 0 0 1 .034.05c.006-.002.006-.004.01-.008.027.011.09.02.179-.004.008-.002.011.004.011.01-.011.036-.011.074.01.095 0-.014.025-.052.036-.052.023 0 0 .092.051.145.021-.228.204-.171.349-.266.015-.012.015-.006.015.007a.145.145 0 0 1-.063.074c.153.098.314-.116.36-.232a.153.153 0 0 0 .042-.044c.01.023.013.046-.027.069.15.008.134-.11.193-.105.45.038.106-.379.831-.253.05.008.138-.04.18-.078-.052.095-.056.293.045.31a.453.453 0 0 1 .173.073c.01.011 0 .015-.005.017a.38.38 0 0 0-.143.036c-.152.099-.158-.232-.32-.168a.128.128 0 0 0-.046.03c-.064 0-.156.079-.139.146a.163.163 0 0 1 .105-.06c-.002.016-.002.033-.002.037-.004.023.006.053.06.053.037 0 .043-.019.066-.019.01 0 .019.008.019.02 0 .06-.202-.033-.168.136.002.004.02.04.033.05-.008.053.036.106.125.076-.015-.01-.05-.038-.042-.061a.18.18 0 0 0 .04.004c.006.002.018-.006.02-.025 0-.01.003-.012.009-.012.011.002.02.012.02.018 0 .01-.012.019-.012.034 0 .004.007.047.017.057-.012.059.082.128.173.065-.027-.006-.084-.016-.09-.048.016-.008.039-.015.042-.017.014-.011.02-.034.02-.063 0-.013.01-.013.018-.013.01-.002.027-.002.04-.006.021-.002.027.006.033.013.019.042.063.075.127.054.11-.04.014-.137.103-.153a.12.12 0 0 1 .069 0c.083.018.213.016.236-.022.026-.042.013-.198-.084-.256-.053-.022.008-.093-.046-.173a.75.75 0 0 0 .324.08c.234 0 .346-.03.466-.097.137-.072.261-.038.294-.03.03.003.051.02.03.06-.055.122-.023.138-.06.187-.039.05-.128.013-.2.006a.119.119 0 0 0-.077.03c-.067.016-.148.073-.16.137.021-.013.07-.051.122-.055l-.006.027c-.013.084.07.11.137.053.01-.011.033 0 .016.013-.056.04-.166.117-.103.149a.41.41 0 0 1 .042.02c-.021.05.005.106.043.111-.007-.028-.005-.045.035-.099l.042.002c.051 0 .053-.108.121-.139.01-.004.014-.002.01.004-.038.063-.067.135-.017.15.002 0 .025.01.038.012.004.047.057.08.139.042-.017-.006-.053-.027-.053-.048.02-.02.047-.051.053-.055.068-.131-.04-.131-.027-.183.015-.065.128-.019.166-.148.002-.023.002-.063-.034-.078-.008-.004-.008-.008-.008-.008h.004c.038 0 .07.008.103-.044-.096.008-.044-.072-.044-.122 0-.007 0-.015.007-.02.037-.023.069-.063.077-.138-.04.044-.157.094-.147.008 0-.008.011-.065-.088-.05-.16.012-.384-.015-.68-.043-.018-.004-.032-.016 0-.023.296-.02.903-.065.903-.257 0-.158-.03-.261-.546-.261-.518 0-1.685.19-1.685-.099 0-.14.225-.131.499-.114m-1.685-.034c-.03.045-.084.083-.132.04-.04-.044.006-.058-.045-.143.05.038.144.095.177.103m.103.314c-.017.003-.016-.05-.044-.056-.029-.007-.025.02-.01.06-.04-.014-.074-.037-.095.003-.017.035-.01.054.013.082.016.017.002.046-.01.082-.014.036-.064.088-.119.059-.06-.03-.05-.095-.034-.13.019-.036.034-.06.051-.06.038.002.057-.008.069-.04.013-.042-.023-.061-.06-.086.039-.011.058-.029.039-.044-.027-.02-.061.014-.067-.004-.007-.017.017-.032.03-.043.014-.012.03-.012.052 0l.166.076c.017.013.032.019.028.045 0 .016.01.048-.01.056m.09-.116c-.059-.002-.082-.084-.07-.138a.8.8 0 0 0 .201.082c-.093.021-.072.057-.13.056M56.736 37.604c.013.034.053.067.122.088.666.188 1.427-.31 1.835-.198-.526-.183-.86.137-1.363.03.295 0 .607-.059.622-.137-.23.148-.875-.105-1.15.063a.228.228 0 0 0-.053.051c-.204.044-.38.156-.38.307 0 .438 1.707.09 1.707.238 0 .118-.335.228-.782.228-.341 0-.93-.225-1.666-.04v-.007c.051-.126.207-.313.137-.396.065-.023.105-.073.105-.122a.205.205 0 0 0-.119-.056c.016-.034-.003-.06-.03-.089-.008-.004-.019-.072-.034-.084-.021-.017-.073-.063-.143-.097-.072-.034-.12-.032-.15-.044-.018-.003-.078.017-.088.017-.032-.003-.076-.003-.082.035a.218.218 0 0 0-.11-.05.219.219 0 0 0-.017.18c-.061.001-.118.152-.174.132.021.044.038.061.056.063-.048.092-.07.193-.126.198.023.03.046.052.06.061a1.212 1.212 0 0 0-.028.417c-.103-.108-.26-.356-.365-.417-.1-.059-.101-.106-.101-.203 0-.084.04-.16.034-.24a.607.607 0 0 0-.023-.078c-.015-.056-.087-.094-.131-.086.023.019.051.038.055.087a.19.19 0 0 0-.038.046c-.02.023-.029.055 0 .084.008.008.008.011.008.019 0 .011-.002.02-.008.038 0 .02-.006.01-.01 0-.019-.06-.05-.148-.102-.152l-.04-.002c.002-.002.002-.008.002-.013 0-.063-.07-.11-.145-.037.015.004.048.01.057.027a.503.503 0 0 0-.013.067c-.008.06.042.087.11.087.012 0 .021 0 .021.012.002.011.008.019.01.028.002.014-.002.012-.01.004-.114-.044-.162.008-.166.053 0 .004 0 .035.004.048-.038.027-.05.084.025.131-.002-.023-.004-.06.023-.07.006-.002.013-.002.017-.006.011.01.03.027.03.029.008.003.027 0 .067-.025.008-.002.012-.004.021 0 .011.006.021.013.034.023.008.005.006.013.002.017-.076.072-.06.143.034.162.014.004.02.011.02.02-.012.14-.193.113-.183-.026-.101.162.08.282.213.202.008-.008.013-.002.015.006.006.024.017.045.046.047-.004-.007.006-.028.028-.03.01 0 .012.007.012.015.002.036.011.084.065.091-.008-.028 0-.055.017-.055.024 0-.002.213.196.328.034.116.131.178.236.169.034.084.084.162.068.162-.028 0-.264-.027-.327.007a.658.658 0 0 1-.217.075l-.013.017c.003-.006.005-.012.011-.017-.068.011-.131.005-.164-.037-.023-.032-.017-.064-.043-.114-.023-.034-.052-.057-.073-.059l-.057-.002c-.036-.036-.118-.043-.152-.017.026.006.06.014.084.057-.006.02-.02.042-.02.048-.02.03-.007.076.134.127.01.002.023.016.01.02-.024.01-.054.017-.079-.008-.059-.044-.064-.107-.135-.069a.16.16 0 0 1-.042.021c-.007 0-.011-.004-.019-.004-.06-.005-.16.073-.112.149a.111.111 0 0 1 .076-.069c.006.018.013.04.017.046.01.072.042.133.189.032.019-.009.019.004.013.012-.034.059-.135.122-.055.173l.032.021a.036.036 0 0 0-.006.017c-.015.086.077.147.124.143-.02-.023-.057-.065-.046-.128.016.008.04.016.046.014.069-.029.036-.118.078-.145.012-.008.015 0 .015.01.006.036.023.116.11.108.08-.006.12-.078.113-.12-.002-.006 0-.01.008-.006.026.016.053.048.042.09a.165.165 0 0 0 .06-.061.117.117 0 0 1-.034.145.2.2 0 0 0 .14-.143.091.091 0 0 1 .028.048c.006 0 .006-.002.007-.008.029.015.086.019.172-.004.01-.004.013.004.013.012-.01.03-.01.068.006.087 0-.01.025-.046.036-.046.025 0-.002.082.05.134.019-.214.135-.13.274-.22.015-.007.017-.003.013.012a.156.156 0 0 1-.061.069c.053.004.206-.067.206-.145 0-.03.099-.122.125-.375.017 0 .036.004.057 0 .181-.013.263-.145.444-.154-.042.051-.06.177-.055.26.005.098.13.208.165.239.008.011.002.013-.007.015a.371.371 0 0 0-.132.036c-.148.097-.15-.219-.306-.162a.331.331 0 0 0-.042.034c-.065-.005-.148.07-.133.137a.166.166 0 0 1 .099-.059v.03c0 .03.004.052.057.052.03 0 .038-.015.06-.015.01 0 .022.008.022.02 0 .06-.198-.035-.158.129 0 .005.019.036.024.05-.005.047.039.098.122.071-.017-.015-.05-.034-.042-.062.016 0 .035.005.039.005.009 0 .019-.007.024-.026 0-.004 0-.008.006-.008.01.004.015.008.015.015 0 .008-.013.02-.011.036 0 .004.01.044.015.046-.008.061.078.122.166.063-.023-.002-.078-.01-.086-.04a.342.342 0 0 0 .042-.02c.013-.009.019-.033.019-.054 0-.017.008-.017.013-.017.014-.002.029-.002.042-.002.02-.004.025.002.029.015.019.03.062.068.12.046.104-.035.019-.126.1-.147a.228.228 0 0 1 .063 0c.084.021.147.038.17-.004.02-.038.011-.19-.076-.24-.054-.026.074-.352-.177-.504.118.028.495.082.56-.01a.662.662 0 0 1 .258.128c.014.023.023.047-.011.067-.101.062-.084.095-.14.114l-.009.004c-.032-.033-.066-.082-.099-.101-.038-.021-.074-.006-.078 0-.055-.014-.133.005-.16.064.027-.003.07-.019.115-.003-.002.007-.008.017-.008.024-.008.017.002.036.023.052h-.002.002c.004 0 .005.004.01.007.001.006.001.014-.01.014-.057-.01-.168-.017-.141.051l.011.044c-.038.03-.051.093-.024.125.01-.026.019-.04.07-.062.011.015.025.028.027.034.032.032.09-.055.15-.034.008.003.011.007.006.011-.057.025-.114.063-.09.11a.176.176 0 0 0 .02.039c-.02.04-.006.104.066.129-.006-.015-.02-.055-.008-.08a.812.812 0 0 0 .063-.008c.112-.057.042-.133.08-.165.042-.04.093.068.183-.013a.08.08 0 0 0 .017-.086c-.002-.01 0-.01.004-.012v.002c.023.027.044.056.087.033-.068-.06.008-.086.035-.132.005-.007.01-.013.019-.007.032.007.076-.006.12-.061-.05.01-.18-.067-.101-.097.114-.042.137-.105.087-.164-.091-.116-.276-.128-.281-.259.074-.002.152-.002.167-.002.579.002.944-.16.935-.343-.021-.388-1.742.033-1.742-.25 0-.085.105-.15.24-.195m-1.251.057c.02.02.135.065.192.078-.09.017-.068.052-.124.048-.053-.002-.08-.076-.068-.126m-.114-.059c-.029.04-.082.078-.124.036-.042-.04.002-.053-.048-.131.048.034.143.09.172.095m-.185.392c.017-.032.032-.06.048-.06.032.001.053-.004.062-.037.014-.038-.02-.055-.055-.076.036-.013.055-.029.036-.046-.02-.019-.059.012-.064 0-.008-.019.019-.034.028-.045.017-.014.033-.008.052 0l.154.074c.017.015.03.02.03.044 0 .015.006.045-.011.053-.015 0-.012-.05-.04-.053-.025-.006-.025.017-.01.053-.038-.01-.072-.032-.09.006-.016.03-.01.05.016.076.01.015 0 .046-.013.078-.013.034-.057.087-.11.057-.06-.032-.052-.093-.033-.124M28.832 7.58a.419.419 0 0 0-.42-.42.418.418 0 0 0 0 .837.417.417 0 0 0 .42-.417M28.686 6.467a.419.419 0 0 0-.418-.419.418.418 0 0 0 0 .836.417.417 0 0 0 .418-.417M28.923 5.974a.417.417 0 1 0 .003-.835.417.417 0 0 0-.003.835M30.035 5.9a.417.417 0 1 0 .003-.835.417.417 0 0 0-.003.835M34.78 5.128a.418.418 0 1 0 .588-.593.418.418 0 0 0-.589.593M34.686 4.238a.418.418 0 1 0-.59-.59.418.418 0 0 0 .59.59M33.58 4.058a.42.42 0 0 0-.593-.592.42.42 0 0 0 .592.592M32.634 4.76a.417.417 0 1 0-.591-.59.417.417 0 0 0 .591.59M29.97 4.185l.336.729.423-.509c.017.008.034.016.05.02.037.243.052.67.052.91a.533.533 0 1 0 .783-.47 4.203 4.203 0 0 1-.588-.551.186.186 0 0 0 .024-.067l.708.063-.28-.75-.529.45c-.007-.008-.017-.012-.026-.016l-.038-.775-.731.278.487.573a.26.26 0 0 0-.03.061l-.64.054zM34.806 5.484c.162.253.221.373.233.575-.124-.051-.27-.179-.434-.396l.085.973c.116-.173.212-.291.349-.35-.035.632-.29.894-.503.938a.412.412 0 0 1-.499-.323c-.053-.282.19-.46.438-.206.048-.585-.424-.575-.63-.328.244-.563.145-.936-.354-1.239-.312.53-.18.874.215 1.274-.385-.196-.731.133-.386.563.072-.375.4-.291.474.008.064.257-.181.586-.598.71-.598.185-.792-.202-.939-.525.13-.084.44-.056.783.163l-.29-.952a.977.977 0 0 1-.573.58c-.017-.279.183-.835.183-.835l-1.148.469s.531.255.712.468c-.242.091-.476.133-.813-.015l.459.883c.091-.394.291-.632.444-.662.121.335.25.744-.303 1.033-.387.2-.79.137-.925-.093-.155-.265.02-.556.333-.337-.053-.55-.531-.543-.67-.131.005-.568-.141-.907-.737-1.065-.147.564.048.9.615 1.137-.322-.036-.666.284-.225.674 0-.356.297-.398.46-.16a.411.411 0 0 1-.134.579c-.185.118-.549.11-1.015-.322.14-.053.291-.034.493.01l-.615-.756c.034.268.017.462-.036.586-.131-.152-.175-.282-.234-.575l-.47.419c.445.27.957.695 1.576 1.554.655-.41 1.826-.973 2.553-1.27.727-.295 1.959-.709 2.709-.87-.154-1.05-.084-1.71.046-2.213l-.629.027zM43.97 32.057c.165-.444-.658-.952-.75-1.594-.094-.641-.018-1.248-.751-2.109-.718-.84-3.22-3.509-3.971-4.361.188-.02.632-.122 1.096.316.27.25.802.761 1.3 1.25.665-1.685 1.482-2.947 2.653-4.262.148-.17.3-.332.456-.491-.43.13-1.094.23-1.479.489-.03-.733.027-1.329-.476-1.795.193-1.027.025-2.266-2.277-3.793 1.177.282 1.874 1.348 2.774.53-.809-.021-.828-1.784-3.743-3.25 1.114-.023 1.984 1.778 3.273.757-1.217-.144-1.618-2.303-3.81-2.973.758.085 1.544.459 2.195-.425-.757.177-1.207-.523-2.023-.586.308-.946.232-1.529-.094-2.235-.57.038-1.157.215-1.578.56-.063-.52-.61-.55-1.093-.513.025.227.134.55-.114.598-.394.074-1.694.425-2.701.815-1.007.392-2.157 1.106-2.488 1.335-.204.14-.38-.19-.503-.341-.356.3-.703.69-.444 1.085-.56.051-1.176.196-1.7.611 0 .65.539 1.281 1.342 1.633-1.353 1.345-.129 2.588-1.319 3.76 1.674.063 1.382-2.269 2.228-2.594-.088 1.64-1.002 1.932-1.002 3.699 0 .946.562 1.97.06 2.593 1.4-.385 1.031-3.482 1.903-4.417.15.531.063 1.049-.116 1.578-.49 1.445.055 3.421-.708 4.065 1.43-.14 1.599-2.433 2.775-3.277-1.01 2.068-2.048 6.464-3.556 8.666-2.439 3.286-3.87 7.3-6.107 7.3-.988 0-1.729-.606-1.729-1.853 0-3.737 6.412-6.31 6.412-10.292 0-1.77-1.447-2.45-2.351-2.45-.611 0-1.346.303-1.963.811a2.113 2.113 0 0 0-.758-.168c-2.265 0-1.662 4.076-3.636 4.035.78.44 2.134-.415 2.926-1.556-.331 2.643-4.135 1.938-3.842 5.112.533-2.485 6.591-2.121 6.591-5.889 0-.426-.217-.78-.518-1.062.455-.291.884-.4 1.28-.4.723 0 1.388.543 1.388 1.609 0 3.337-6.374 6.153-6.374 10.25 0 .693.202 1.27.527 1.721-.445.192-.908.103-1.293-.347-.036 1.055 1.472 1.722 2.422 1.19.21.075.43.118.66.136-.289.784-1.261 1.018-1.772.982 1.565 1.232 4.288-.385 4.137-1.778 1.241-.998 2.026-2.711 2.926-3.838-.057.262-.104.521-.142.776-.914 1.662-1.771 3.151-2.009 5.342-.2 1.834-1.127 3.483-2.414 3.483-.282 0-.746-.368-.965-.185-.402.344-.021.706-.021 1.047 0 .522-1.003 1.041-1.003 2.65 0 .727.42 1.593.26 2.073.412-.213.956-.898 1.183-1.787.441 2.124-.907 2.033.064 3.918.12-.625.745-.882 1.124-.625.384.263.203.444-.078.727-.284.28-.543 1.69.744 1.609-.242-.16-.257-.535.38-.666.888-.177 1.147.228 2.091.228.585 0 .744-.763 1.209-.763.46 0 .46.36.299.622.746-.202.883-.601.883-1.024 0-.42-.34-.682-.078-.841.263-.162 1.125.017.783.72.445-.079.683-.402.683-.945 0-.543-.62-.864-1.203-.763-.101-.343-.606-.524-1.068-.524-1.045 0-.882.824-1.601.824-1.146 0-2.26-1.49-2.26-4.005 0-1.348 1.449-1.689 2.475-2.13 1.024-.442 2.823-1.548 3.899-3.355.845-1.415.87-2.964.761-4.801 1.445.83 1.615 2.021 1.615 2.891 0 1.122-.583 1.579-1.042 1.786-.388.18-.52.107-.56.335-.05.29.142.453.311.543.522.266.413.767.56 1.306.146.542.626 1.395 1.437 2.018.084-.335.061-.872.013-1.57 1.112.548.221 2.779 2.378 2.779-.396-.229-.291-.813-.063-.897.229-.084.518.147.937.725.417.585.305.537 1.325.537 1.017 0 .562-.352 1.1-.352.541 0 .5.623.21 1.081.912-.276 1.186-.965.878-1.679.801-.432 1.227.181 1.346.619.79-.788 0-1.746-.623-1.81.02-.292-.251-.602-.584-.623-.332-.023-.657-.042-1.017-.023-.373.023-.583.564-1.02.564-1.352 0-4.027-2.449-4.027-3.51 0-1.06 2.559-1.705 2.559-3.35 0-2.147-2.114-2.878-3.892-4.258.634-.712 2.485-.88 3.532-.366.118-.598.504-.451.645-1.483.375.906-.013 1.689.371 2.075.297-.438 1.065-.375 1.017-1.498.232.704-.297 1.782.232 2.25.096-.577.438-.69.66-.69.216 0 .406.159.406.502 0 .858-1.058.458-1.058 1.426 0 .407.514.546.514.812 0 .263-.423.67-.937.326.172.375.51.704.952.704.469 0 .971-.377 1.165-.86.244.617.057 1.3-.384 1.39.468.232 1.578.013 1.45-1.41.627.108.954.53.581 1.286.516-.126.984-.375.984-.923 0-.421-.457-.549-.253-1.095m-12.114-19.37c-.586.054-.57-.506-1.6-.755.725-.148 1.654-.512 2.463-.822.154.674-.124 1.511-.863 1.578m4.141 4.388c-.752.326-1.336-.335-1.481-.782-.145-.455-.267-.827-.091-.996.327-.322.428-.571.232-.971-.225-.463-.716-.244-1.241-.114.243-.442.264-.756-.07-.716-.399.046-.406.693-.627.615-.223-.074-.097-.448-.097-.647.004-.273.179-.372.455-.494l2.176-.824c.281-.103.476-.156.668.04.14.141.49.322.38.531-.106.21-.559-.25-.879-.005-.268.205-.034.417.45.561-.47.274-.97.455-.812.948.138.421.381.528.838.531.246 0 .42.356.626.781.212.423.273 1.2-.527 1.542m.13-6.067c-.583.459-1.358.04-1.71-.556.803-.331 1.73-.703 2.359-1.093-.579.89-.185 1.285-.65 1.649M84.82 42.356a1.803 1.803 0 1 0 3.606 0c0-.992-.809-1.803-1.799-1.803-.997 0-1.806.811-1.806 1.803m.46 0c0-.739.604-1.34 1.346-1.34.74 0 1.335.601 1.335 1.34 0 .739-.596 1.34-1.335 1.34a1.345 1.345 0 0 1-1.346-1.34M78.097 44.016a1.047 1.047 0 0 0-.445.668c-.057.314.04.634.278.903.22.245.54.42.9.487.362.063.724.012 1.017-.143.316-.167.518-.432.575-.748.114-.626-.417-1.247-1.18-1.388-.416-.074-.832.004-1.145.221m.817 1.603c-.516-.091-.878-.476-.809-.853a.595.595 0 0 1 .255-.373c.213-.145.505-.198.8-.145.464.082.814.423.814.766a.729.729 0 0 1-.005.09c-.069.376-.543.606-1.055.515M68.173 18.734c-.562.436-.726 1.167-.368 1.632h.002c.36.46 1.106.481 1.668.05a1.41 1.41 0 0 0 .548-.917.955.955 0 0 0-.185-.712.94.94 0 0 0-.64-.356c-.344-.045-.717.067-1.025.303m-.1 1.055c0-.234.141-.505.383-.69.208-.16.463-.24.682-.21a.484.484 0 0 1 .337.18.51.51 0 0 1 .091.373.954.954 0 0 1-.377.61c-.35.272-.817.285-1.022.03a.473.473 0 0 1-.093-.293M75.981 41.022c-.27.262-.43.658-.44 1.077v.038c0 .41.147.798.402 1.06.2.212.461.33.728.334.268.004.533-.105.742-.303.272-.263.432-.66.442-1.081a1.608 1.608 0 0 0-.301-.98c-.215-.282-.508-.442-.828-.452a1.052 1.052 0 0 0-.745.307m.701 2.044h-.004c-.184 0-.32-.1-.401-.186-.177-.185-.278-.472-.273-.77.004-.302.115-.578.3-.753a.561.561 0 0 1 .414-.18c.383.008.684.439.674.962-.006.297-.114.579-.3.756a.573.573 0 0 1-.41.171m-.011.465h-.002.002zM67.164 26.463c-.273.098-.49.284-.606.524-.276.577.069 1.317.767 1.652.383.185.808.217 1.165.092.277-.097.49-.28.606-.524.116-.24.126-.525.03-.801-.127-.356-.419-.667-.801-.85-.379-.182-.804-.216-1.161-.093m.36 1.761c-.47-.226-.715-.689-.549-1.035a.56.56 0 0 1 .343-.29c.243-.085.537-.059.809.073.27.13.48.35.563.586.04.114.07.284-.011.451a.593.593 0 0 1-.34.29c-.243.083-.542.055-.816-.075"/><path d="M86.1 24.611c.586 1.61 1.752 2.19 2.643 1.775-1.99-.233-.377-3.633-2.936-3.633-.147 0-.286.016-.415.044-.434-.459-.931-.651-1.664-.651-1.085 0-2.949 1.047-2.949 3.206 0 4.647 5.4 5.058 5.4 9.169 0 1.203-.907 1.947-1.924 1.947-.906 0-1.637-1.02-2.4-2.616-.366-.761-1.15-1.799-1.982-2.882.247.175.525.276.801.282.29.01.556-.088.75-.274.193-.181.307-.44.316-.73v-.041c0-.368-.158-.747-.436-1.047-.295-.309-.68-.49-1.06-.501-.29-.01-.556.09-.75.274a1.04 1.04 0 0 0-.316.73v.04c0 .16.03.319.088.473-1.164-1.517-2.243-3.004-2.243-3.823 0-.717.497-1.351 1.11-2.113l.211.118.162-.18c.217-.239.67-.734 1.603-1.733l.053-.061-.002.004.225-.236-.58-.467c.152-.35.285-.727.388-1.14.179.746.561 1.222 1.092 1.072-.35-.773.356-1.807-.108-3.695.44.729 1.076 1.113 1.534.978-1.197-1.06.356-2.54-1.203-4.834.512.174.847.075 1.074-.179-1.422-.198-.773-2.014-3.267-2.661.62-.109.984-.472.891-.8-.657.476-1.236-.883-3.398-.849-.132-.809-.88-1.66-1.73-2.07.16.625.013 1.19-.153 1.66l-7.042-6.914c-.204-.194-.318-.24-.375-.167-.06.07-.052.198.08.339l6.046 7.582c-.457.159-.904.349-1.373.52a.82.82 0 0 0-.525.783c-1.12.561-2.106 1.249-2.595 1.694-.373.34-.668.42-.34 1.184.125.288-.263 1.005.612.48.575-.343 1.878-1.062 2.07-.61.103.237-.54.541-.984.709-.44.173-.918.512-.85.683.069.168.42-.013.442.168.025.202.166.379.343.379.173 0 .402-.37.544-.248.141.124-.07.95-.213 1.16.685-.086 1.125-.739 1.144-1.245.017-.51.156-.634.261-.705.107-.07.23.545.09.914.361-.076.738-.554.687-1.433.18-.143.367-.256.506-.256.23 0 .686.634 1.337.634 1.197 0 1.864-.97 1.932-1.424.057-.369.029-.725-.17-.997.43.344.568.885.568 1.289 0 1.696-2.997 2.494-4.228 3.666-.046.04-.09.084-.136.126l-1.406-.543-.096.309a3.54 3.54 0 0 1-.081.266c-.147.484-.454 1.487-.64 2.064-.004 0-.076.232-.076.232l.125.075c-.837 1.108-1.506 2.35-1.658 3.628a12.15 12.15 0 0 0-1.026-.937c.04-.123.065-.253.076-.388a1.397 1.397 0 0 0-.322-.994.952.952 0 0 0-.649-.327.944.944 0 0 0-.683.253.902.902 0 0 0-.124.131c-.05-.04-.1-.078-.15-.116-.463-.358-1.04-.78-1.388-1.165-.147-.164-.297-.253-.611-.253-.12 0-.417-.013-.627-.013-.207 0-.327.161-.565.37-.112.1-.436.353-.8.631.174.175.345.356.512.543.09.102.177.207.267.316l.244-.19c.148-.12.342-.15.521-.15.181 0 .434.134.611.402a37.726 37.726 0 0 0 2.21 2.725 4.117 4.117 0 0 0-.298.112c-.404.168-1.314.133-1.717.103-.408-.034-.484-.135-.76.297a5.3 5.3 0 0 1-.373.522c-.135.165-.242.352.046.835.415.705 1.446 2.553 1.79 3.389.34.834.745.967 1.4 1.236.659.27 1.778.913 1.91 1.06l.044-.64c-.193-.194-.821-.43-1.057-.514-.238-.087-.3-.188-.015-.188.281 0 1.072.282 1.626.508-.166-.628-.764-1.313-1.122-1.7-.474-.137-.954-.137-1.148.013a.26.26 0 0 1-.268.297c-.183 0-.307-.158-.252-.327.061-.19.343-.253.282-.611-.059-.358-.504-.417-.79-.45-.402-.58-.866-1.427-1.074-1.774-.209-.342-.083-.537.06-.655.344-.283 1.06.149 2.492.24.494.03 1.127.063 1.77.092.189 1.662.855 3.242 3.17 3.819 1.133.281 2.294 1.11 2.696 2.195-4.62-.08-5.348 1.719-5.348 3.42 0 1.931 1.63 1.825 1.63 3.273 0 1.263-3.886 1.786-5.06 1.96-.995.146-1.564.367-2.04.846-.476.478-.961.937-1.83 1.803 0 0 .37.086.74.065l.656-.849c.194-.284.328-.522.457-.499.13.025.042.238-.11.543l-.541.91c2.28.154 2.431-.691 2.431-1.04 0-.348-.565-.584-.238-.803.326-.217.606-.067.868.238.26.305.347.565.977.325 0 0 4.97-2.058 5.599-2.343.565-.255.404-.5.065-.783-.372-.304-.432-.803-.432-1.323 0-1.506.906-1.97 2.522-1.938a5.8 5.8 0 0 0-.05.724c0 2.347 3.55 4.641 4.51 4.641.425 0 1.004-.318 1.04 1.097.027 1.041.236 1.776.05 2.98-.189 1.2-.535 1.383-1.255 1.892-.722.506-1.403 2.096-1.71 2.43.32.21.667.239.935-.536.221-.64.474-1.095.752-1.25-.28.705-.485 1.74-.619 2.053.907.158 2.376-.668 2.376-1.308s-.506-.588-.506-1.014c0-.189.228-.4.506-.4.364 0 .642.291.669.424.4-.213.653-.613.64-1.547a41 41 0 0 0-.04-1.135c.024.051.049.103.081.148.175.269.467.43.819.461.333.029.685-.067.992-.268.354-.236.603-.58.677-.952.018-.078.025-.156.025-.229a.993.993 0 0 0-.164-.558 1.038 1.038 0 0 0-.666-.437c-.371-.08-.788.013-1.144.243-.33.217-.566.533-.659.874-.072-1.277-.165-2.482-.13-2.968.054-.718.08-1.036-.161-1.144-.24-.107-.505.295-.851.295-.35 0-1.392-.963-1.392-1.976 0-1.015 1.097-2.323 1.042-3.712-.02-.433.253-.66.426-.263.211.474.524 1.115.994 1.639-.29 1.748 1.631 3.45 3.212 2.187-.783.115-1.32-.58-1.666-1.279.135.025.276.038.424.038.08 0 .16-.002.236-.007.556.685 2.317.628 2.774-1.074-.308.358-.944.626-1.403.567.664-.514 1.01-1.357 1.01-2.263 0-4.429-5.373-4.945-5.373-8.977 0-1.494 1.31-2.456 2.216-2.456.348 0 .616.107.835.267-.346.352-.535.887-.504 1.538.14 3.183 5.342 3.027 5.409 4.556.584-2.306-3.294-1.594-3.435-4.7M72.261 12.396c.254-.48 0-1.213.88-1.213.432 0 .819.432 1.34.6-.847.07-1.61.262-2.22.613m-4.751 9.759a.93.93 0 0 1-.278.635.48.48 0 0 1-.343.134c-.3-.017-.537-.364-.537-.77v-.062c.013-.26.112-.49.274-.634a.497.497 0 0 1 .35-.135.49.49 0 0 1 .332.173c.14.16.219.407.202.659m15.357 22.36c.054-.248.23-.495.482-.661.251-.166.545-.23.794-.181a.615.615 0 0 1 .379.244v.004c.103.152.095.32.072.435-.051.25-.228.497-.48.661-.437.286-.963.257-1.172-.06a.596.596 0 0 1-.075-.443m-3.226-14.838a.567.567 0 0 1 .169-.409.583.583 0 0 1 .423-.148c.253.007.529.142.734.357.204.22.322.501.315.758a.582.582 0 0 1-.174.406l-.002.004a.58.58 0 0 1-.418.146c-.254-.006-.528-.14-.733-.36-.206-.219-.324-.5-.314-.754m-8.823-10.012c.252-.78.726-2.33.726-2.33l.818.318c-.24.091-.529.318-.782.556.183.084.518.097.74-.053l-.327.82c-.074-.131-.305-.428-.535-.478-.167.66.246.907.548 1.06.5.256.823.296.962.07.158-.286-.17-.68-.59-.503-.044-.429.196-.657.48-.657.226 0 .403.204.466.483-.029-.696.285-1.239.929-1.44.234.677.042 1.134-.467 1.625.267-.108.573-.091.697.095.156.236.1.562-.28.766-.087-.45-.605-.486-.755-.196-.147.285.078.56.536.814.533.295.96.122 1.245-.342-.177-.06-.48-.025-.765.154l.547-1.019c.026.15.114.404.344.6.08-.228.2-.63.032-.99l1.173.678c-.396.036-.683.335-.837.523.281.1.546.05.689-.002l-.611.98c.011-.336-.107-.614-.248-.738-.259.48-.198.937.324 1.251.455.27.801.328.975.057.177-.274-.113-.704-.543-.558-.017-.43.236-.641.518-.626.228.017.392.274.436.556.165-.684.468-1.081 1.17-1.215.147.657-.163 1.2-.784 1.525.274-.09.543-.034.653.162.143.246.067.567-.33.746-.056-.453-.56-.54-.728-.262-.13.234.068.495.54.8.286.184.703.418 1.194-.056-.162-.179-.535-.228-.683-.228l.546-.692c-.02.269.162.55.324.669.081-.341.13-.703.09-.956l.686.548s-1.106 1.186-1.656 1.796l-7.467-4.31zm7.284 18.355c-.299.417-.801.567-1.129.335-.329-.23-.356-.756-.059-1.173.292-.413.794-.567 1.125-.337.33.234.356.76.063 1.175m2.121-3.35c-.295.416-.8.563-1.127.33-.327-.232-.352-.76-.057-1.172.297-.417.8-.566 1.127-.334.33.233.352.76.057 1.175"/></svg>