<svg xmlns="http://www.w3.org/2000/svg" width="200" height="100.195"><path d="M.44 13.571C.44 6.383 5.531.501 13.715.501 22.332.5 26.95 6.67 26.95 13.92c0 7.971-5.837 12.804-13.174 12.804C5.792 26.725.44 21.278.44 13.57zM.507 37.643c0-1.223.686-2.108 2.056-2.108H24.93c1.181 0 1.962.937 1.962 2.088v34.289c0 5.846 3.33 12.645 13.603 12.645 10.005 0 15.181-6.225 15.181-18.936v-2.672L66.3 83.166l1.37 6.853s-10.422 10.076-29.312 10.076c-9.375 0-37.85-1.538-37.85-32.692z" fill="#00beca"/><path d="M67.67 90.02l10.622-27.414 3.427-3.427v4.798c0 11.538 5.597 20.416 20.082 20.416 13.208 0 22.504-7.482 22.504-19.093 0-5.901-2.856-10.584-2.856-10.584l14.982 7.481 1.313 18.227s-9.977 19.568-38.1 19.568c-21.962 0-31.975-9.973-31.975-9.973z" fill="#8c7b11"/><path d="M67.67 90.02s-11.994-9.166-11.994-26.303V14.633c0-3.947 2.547-7.367 13.165-7.367 11.604 0 12.878 4.517 12.878 7.906v20.363h20.56c1.483 0 2.055.868 2.055 2.242v12.15c0 1.15-.468 2.056-1.817 2.056H88.915c-3.528 0-7.196-1.37-7.196-1.37v8.224c0 10.254-2.65 20.728-14.05 31.182z"/><path d="M137.744 80.424l3.265-35.868 1.475-6.242s6.515 9.5 23.114 40.059c10.541-19.167 17.264-42.071 17.264-42.071.472-1.566 1.722-1.945 3.531-1.468l11.38 3.517c1.38.493 2.13 1.038 1.352 3.607-9.464 27.544-24.285 50.264-24.285 50.264-2.853 4.229-5.76 7.818-15.39 7.818-7.769 0-10.474-2.646-13.18-6.684z" fill="#ffab00"/><path d="M137.744 80.424l-17.739-27.951c-1.064-1.992-1.876-3.2-1.876-5.567.014-3.477 1.821-5.992 7.948-9.831 1.325-.87 6.097-2.767 9.963-2.767 5.215 0 9.105 5.397 9.105 16.688 0 18.372-7.4 29.428-7.4 29.428z" fill="#c80063"/></svg>