<svg xmlns="http://www.w3.org/2000/svg" width="426" height="327" version="1.0"><path d="M136.22 173.72v113.515l19.143-14.43V193.06l-19.143-19.34zM177.348 200.226l24.928-5.693 10.068-8.253v-14.965l-34.996 28.911zM174.218 19.704L139 3.472l31.836 35.675 12.053-11.896-8.67-7.547zM0 295.59h11.06l3.604 18.047h.066l3.604-18.046h11.06v30.687h-7.352v-19.692h-.078l-4.375 19.692h-5.784l-4.388-19.692h-.065v19.692H0V295.59zM55.124 314.405c0 8.514-3.787 12.588-11.478 12.588s-11.517-4.074-11.517-12.588v-18.817h7.77v16.728c0 3.134 0 7.038 3.773 7.038 3.696 0 3.696-3.904 3.696-7.038v-16.728h7.756v18.817zM65.146 315.952c0 .77.105 1.463.288 2.024.561 1.842 2.259 2.233 3.708 2.233 1.267 0 3.213-.509 3.213-2.794 0-1.58-1.084-2.011-5.446-3.513-3.983-1.384-8.553-2.716-8.553-8.905 0-7.078 5.001-10.134 10.185-10.134 5.472 0 10.317 2.534 10.525 10.016h-7.338c.13-1.162-.288-1.933-.927-2.468-.64-.535-1.528-.757-2.299-.757-1.057 0-2.794.34-2.794 2.063.143 2.18 3.748 2.65 7.312 3.865 3.578 1.201 7.104 3.225 7.104 8.84 0 8.005-6.033 10.578-11.648 10.578-2.873 0-11.034-1.254-11.1-11.048h7.77zM82.62 295.596h7.77v30.687h-7.77v-30.687zM110.029 307.02c-.144-1.122-.849-4.518-4.074-4.518-3.63 0-4.793 4.31-4.793 8.436 0 4.113 1.163 8.423 4.793 8.423 2.624 0 3.656-2.246 4.113-5.12h7.626c0 6.19-4.126 12.759-11.517 12.759-8.162 0-12.797-7-12.797-16.062 0-9.663 5.027-16.075 12.797-16.075 6.934.04 10.734 4.466 11.413 12.158h-7.561zM137.846 303.45h-7.065v-7.86h21.899v7.86h-7.065v22.826h-7.77V303.45zM154.938 295.59h20.867v7.862h-13.098v3.839h11.896v7.286h-11.896v3.84h13.502v7.86h-21.271v-30.686zM178.587 295.59h7.757v22.827h11.178v7.86h-18.935v-30.686zM199.45 295.59h20.866v7.862H207.22v3.839h11.909v7.286h-11.91v3.84h13.49v7.86H199.45v-30.686zM238.987 326.274h-8.684l-7.534-30.687h7.848l4.14 18.608h.051l4.088-18.608h7.965l-7.874 30.687zM249.78 295.596h7.782v30.687h-7.782v-30.687zM268.36 315.952c0 .77.105 1.463.288 2.024.561 1.842 2.259 2.233 3.708 2.233 1.267 0 3.212-.509 3.212-2.794 0-1.58-1.11-2.011-5.445-3.513-3.983-1.384-8.553-2.716-8.553-8.905 0-7.078 4.988-10.134 10.185-10.134 5.472 0 10.303 2.534 10.512 10.016h-7.338c.143-1.162-.288-1.933-.928-2.468-.626-.535-1.514-.757-2.285-.757-1.057 0-2.794.34-2.794 2.063.143 2.18 3.748 2.65 7.312 3.865 3.578 1.201 7.104 3.225 7.104 8.84 0 8.005-6.046 10.578-11.648 10.578-2.873 0-11.034-1.254-11.1-11.048h7.77zM285.834 295.596h7.77v30.687h-7.77v-30.687zM309.032 294.862c7.678 0 12.797 6.712 12.797 16.075s-5.12 16.061-12.797 16.061c-7.653 0-12.784-6.698-12.784-16.061s5.131-16.075 12.784-16.075m0 24.497c1.984 0 5.027-1.593 5.027-8.422 0-6.83-3.043-8.436-5.027-8.436-1.972 0-5.015 1.606-5.015 8.436s3.043 8.422 5.015 8.422M324.716 295.59h7.952l7.339 16.415h.078V295.59h7.34v30.687h-7.549l-7.743-16.754h-.065v16.754h-7.352V295.59z"/><path d="M358.969 306.281h-1.671v-7.808h2.925c1.998 0 3.199.561 3.199 2.363 0 1.437-.849 1.946-1.88 2.024l1.984 3.421h-1.971l-1.803-3.29h-.783v3.29m1.476-4.61c.744 0 1.2-.156 1.2-1.018 0-.796-.874-.861-1.514-.861h-1.162v1.88h1.476m-.275 7.965c-3.852 0-7.286-2.663-7.286-7.247 0-4.583 3.434-7.26 7.286-7.26 3.84 0 7.274 2.677 7.274 7.26 0 4.584-3.435 7.247-7.274 7.247m0-12.81c-2.872 0-5.197 2.207-5.197 5.563 0 3.343 2.325 5.576 5.197 5.563v.013c2.808 0 5.184-2.233 5.184-5.576 0-3.356-2.376-5.563-5.184-5.563" fill-rule="evenodd"/><path d="M417.627 38.026c-3.213-2.194-8.971-3.291-14.665-2.795-5.419.457-9.023 3.108-11.987 5.563.039-.026-7.718 7.652-7.718 7.652l-2.076 3.317c-.026.04-6.92 8.658-6.92 8.658s-.066.078-.08.091V12.719L353.028 0l.014 86.811-.275.418-5.066 5.955V0H216.934l-46.513 46.278L129.104 0H.128v286.916h131.17v-126.39l38.614 39.827 47.414-40.415v126.978h130.4l-.013-121.076c1.018-1.737 1.854-3.121 1.854-3.121.013-.04 1.11-1.62 1.11-1.62.065-.078 1.175-1.854 2.39-3.786l.013 129.603 21.102-14.573V119.47l2.311-3.447c.196-.327 3.252-4.897 3.252-4.897 0-.013 4.857-7.143 4.857-7.143.053-.118 1.855-2.403 1.855-2.403l4.492-6.36c.888-2.05 3.42-3.407 4.387-3.917l.457-.248.614-.444 2.337-2.363c.04-.053 4.062-3.448 4.062-3.448l6.868-3.199 6.412-3.526c.026-.013 5.876-7.22 5.876-7.22l3.121-9.69c.013-.013.914-9.389.914-9.389-.196-4.766-3.8-10.669-8.37-13.75m-157.13 78.036c.143.914.64 9.402.613 10.799-.026 4.205.262 8.84.131 10.708-.104 1.423.091 6.333.091 6.333.353 3.878 1.189 8.122 1.267 8.88.17 1.984-.575 9.52-.353 11.23.027.352.64 3.5.51 4.244-.34 1.958.235 4.322.17 5.21-.105 1.554-.17 3.33-.222 5.223-.105 2.808-.196 5.707-.458 8.24-.078.64.014 5.067.014 5.067-.51 4.452-1.058 9.049-.3 13.659.143.927-.04 3.97.038 4.505.118.692 1.097 4.27 1.24 5.053.21 1.175.654 6.62 1.241 7.874.575 1.267 2.912 6.817 3.121 7.483.692 2.102 1.75 7.169.797 9.754-.901 2.442-2.26 8.253-3.212 9.702-.823 1.267-2.064 2.011-2.651 2.926-.562.848-1.672 1.632-2.599 1.997-2.873 1.123-7.965 1.907-12.38.562-1.788-.535-4.491-.366-7.534-2.207-2.48-1.502-3.33-5.615-3.682-7.822-.17-1.031.13-3.787.065-4.218-.078-.626-1.018-4.7-1.018-6.006-.013-.653.222-3.409-.079-5.224-.378-2.337-1.514-6.137-1.514-6.137-.314-1.554-1.15-4.923-1.189-5.028-.9-2.52-1.345-4.975-1.606-7.064-.483-3.84.47-7.038 1.319-9.872.483-1.632.94-3.16 1.136-4.701.13-1.11-.731-6.372-.562-8.135.053-.719.64-3.004.666-3.304.222-1.489.275-5.458.288-6.072.013-.797.548-4.14.483-7.6-.026-1.358-.17-2.768 0-4.192.17-1.515.3-5.38.013-7.169-.457-2.729-.274-5.17-.287-5.288-.196-2.86-.366-5.864-.196-8.423.026-.405-.47-4.74-.483-6.085-.026-.849-.079-6.164-.13-6.79-1.137-13.228-2.926-15.762-3.644-16.245-.718-.47-2.664-.444-3.774.078-.849.392-3.056 2.312-4.923 3.317-1.828.967-5.236 2.586-6.399 3.448-1.345 1.018-3.551 2.729-7.848 5.08-1.083.587-1.906 1.592-2.885 2.48-1.424 1.254-4.088 3.944-8.397 6.125-2.115 1.057-3.996 2.298-5.51 3.774-.627.626-2.939 4.492-4.427 5.941-1.45 1.384-2.364 3.33-2.625 3.93-.757 1.62-1.58 3.435-3.173 4.623-2.468 1.841-7.848 2.18-11.1.823-2.076-.862-6.215-3.643-8.017-8.462-1.815-4.805-.3-10.969 3.29-14.965 2.364-2.624 6.046-3.682 9.624-4.688 2.207-.626 4.31-1.227 5.929-2.128.796-.444 3.343-2.35 3.878-2.703.81-.535 3.695-1.933 4.257-2.298.522-.353 3.565-3.004 5.602-4.153 3.369-1.88 6.046-3.395 7.626-4.387 0 0 4.636-2.612 7.64-5.459.678-.653 3.564-1.723 6.724-3.512.797-.458 4.1-1.567 4.936-1.933.575-.274 2.873-1.959 3.552-2.311 2.964-1.541 4.453-3.383 3.617-7.966-.3-1.593-.783-3.212-.614-5.132.053-.47.732-3.356 1.829-5.34.548-1.02 1.41-.993 1.893-1.933.483-.967 2.18-1.776 3.304-2.064.783-.757 2.402-1.566 4.296-1.893 4.152-.692 9.493 2.35 10.264 2.507 1.462.327 3.943.105 5.25-.274.26-.052 1.958-1.162 2.585-1.397.835-.314 3.512-1.045 4.06-1.24.823-.288 4.636-2.286 5.603-2.652.992-.378 3.29-.796 4.426-1.057 1.816-1.293 5.224-2.403 6.53-3.526 1.475-1.293 3.473-4.388 3.891-4.936.77-1.019 4.531-3.552 5.067-3.957 1.227-.966 4.035-2.938 5.941-3.486.914-.261 3.591.287 5.223.274 1.829 0 4.388.104 6.32 3.03.967 1.475 2.586 2.977 3.004 5.014 1.254 6.36-3.5 12.666-7.104 14.912-.365.222-2.115.732-3.186 1.084-1.502.496-3.03 1.593-4.048 1.868-2.024.535-3.016 1.945-3.852 2.39-.823.43-3.617 2.154-4.518 2.65-.692.366-1.828 1.985-3.879 2.586-1.384.417-4.27 1.24-6.568 3.264-.953.836-4.831 1.632-5.941 1.88-.418.105-5.367 2.194-5.864 5.093-.522 3.043-.091 3.852-.666 8.214-.352 2.716-.17 5.915.053 7.6m161.23-55.602c-.379 1.776-1.371 6.163-2.781 8.736-.614 1.136-3.056 4.74-4.91 6.124-1.802 1.332-4.414 2.65-5.51 3.043-1.02.365-6.008 2.69-7.353 3.408-2.415 1.306-3.708 2.768-4.975 4.165-.653.732-1.293 1.41-2.063 2.09-.3.26-4.727 2.076-6.333 5.824-.98 2.272-5.393 6.986-6.138 8.344-1.097 1.959-2.716 4.91-4.335 6.49-.483.47-1.006 1.188-1.554 2.024a64.569 64.569 0 0 0-1.593 2.533l-.444.705c-1.045 1.724-2.22 3.683-2.899 4.401-1.685 1.815-2.664 4.166-3.46 6.085-.314.744-3.082 4.701-4.127 7.456-.457 1.24-2.86 5.263-3.12 5.877-.51 1.292-3.605 4.296-3.905 4.883-.444.901-.849 2.129-1.267 3.409-.366 1.162-1.319 3.447-1.645 4.335-.405.666-.927 1.515-1.476 2.416-.026.039-.039.065-.065.091-.405.666-.81 1.332-1.24 2.024a255.615 255.615 0 0 1-2.586 4.1c-.431.549-.862 1.189-1.24 1.763-.614.901-5.106 8.567-6.138 10.395-.457.835-1.019 1.671-1.593 2.546-1.371 2.05-2.782 4.153-3.46 6.751-.432 1.62-1.672 4.296-1.764 4.531-1.762 4.336-2.441 8.998-2.624 10.316-.274 2.155-.21 4.336-.118 6.425.092 2.26.17 4.4-.196 6.294-.679 3.513-2.05 6.973-3.865 9.742-.483.757-2.194 3.094-4.218 4.975-1.475 1.371-3.891 1.932-8.318 1.972-5.994.026-8.566-2.194-11.752-6.882-.523-.757-1.541-2.73-2.782-5.38-1.593-3.382-2.899-6.477-4.035-10.551-.352-1.228-.848-2.586-1.305-3.905-.523-1.436-1.646-5.484-1.737-6.15-.105-.666-1.515-5.38-1.606-5.837-.549-2.886-1.306-5.563-2.05-8.148-.758-2.664-1.476-5.185-1.92-7.783-.431-2.494-1.763-6.53-2.742-9.454 0 0-1.88-5.968-2.481-8.096-.823-2.886-3.513-10.852-3.513-10.852-1.006-2.716-3.382-9.088-3.552-10.107-1.41-8.279-1.397-14.952.092-17.864.665-1.332 2.95-2.598 4.792-3.617.614-.352 3.643-2.311 4.296-2.48 1.88-.51 5.027-.667 7.678-.393.353.04 3.604.066 4.78.901 4.374 3.043 4.688 6.974 5.262 14.116 0 0 .757 7.679 1.123 10.565.261 2.128.549 4.335.77 6.516.144 1.501.223 3.147.288 4.727.117 2.86 1.097 8.318 1.097 8.318.98 3.277 1.92 6.398 5.758 8.018 1.045.43 2.233.352 3.356-.275 2.625-1.397 5.015-5.654 5.929-10.564.052-.274.444-.835.823-1.384.914-1.267 2.154-3.016 2.794-5.89.196-.717 1.959-3.146 3.003-4.596 1.071-1.475 2.064-2.86 2.651-3.904.196-.353 4.558-7.156 4.558-7.156s1.684-3.748 2.402-5.145c.718-1.423 1.345-3.12 1.41-3.408.353-1.463 1.071-4.531 2.508-6.229 1.958-2.311 4.087-7.509 4.191-7.73.47-.888 1.75-3.095 2.939-5.041.065-.078.182-.248.26-.353v-.013c.027-.026.066-.078.092-.104.522-.692 1.201-1.606 1.724-2.233l3.76-4.453c.771-.836 1.541-1.697 2.234-2.638.73-.966 2.285-3.251 3.656-5.275.836-1.267 3.251-4.414 3.996-5.197.731-.758 6.215-8.136 7.064-9.259.353-.457 2.599-2.742 3.957-4.113 0-.013.013-.013.013-.026 1.88-1.894 2.572-2.586 2.82-2.912 1.097-1.476 2.286-2.912 3.435-4.31 1.149-1.397 2.324-2.82 3.447-4.322.496-.626 1.763-2.899 2.103-3.343 1.188-1.567 6.999-6.934 7.169-7.077 2.703-2.233 5.693-4.414 10.08-4.793 4.806-.417 9.925.497 12.458 2.22 3.63 2.442 6.699 7.404 6.856 11.048.156 3.5-.105 4.923-.836 8.54M159.204 733.23v58.07l9.793-7.392v-40.78l-9.793-9.899zM180.242 746.787L193 743.876l5.145-4.231v-7.653l-17.903 14.795zM178.64 654.447l-18.02-8.305 16.296 18.256 6.163-6.085-4.44-3.866zM89.525 795.57h5.654l1.841 9.231h.04l1.84-9.232h5.655v15.696h-3.76v-10.068h-.04l-2.233 10.068h-2.964l-2.233-10.068h-.04v10.068h-3.76V795.57zM117.722 805.192c0 4.348-1.933 6.438-5.877 6.438-3.93 0-5.889-2.09-5.889-6.438v-9.624h3.983v8.553c0 1.606 0 3.604 1.932 3.604 1.88 0 1.88-1.998 1.88-3.604v-8.553h3.97v9.624zM122.848 805.985c0 .391.052.744.144 1.031.287.953 1.162 1.15 1.893 1.15.653 0 1.646-.262 1.646-1.437 0-.81-.549-1.032-2.782-1.802-2.037-.692-4.374-1.384-4.374-4.544 0-3.63 2.56-5.185 5.21-5.185 2.794 0 5.275 1.293 5.393 5.12h-3.76c.065-.588-.144-.993-.484-1.254-.326-.288-.77-.392-1.162-.392-.549 0-1.437.17-1.437 1.058.079 1.11 1.92 1.358 3.748 1.971 1.815.614 3.63 1.646 3.63 4.532 0 4.087-3.094 5.406-5.967 5.406-1.463 0-5.641-.64-5.668-5.654h3.97zM131.785 795.57h3.97v15.697h-3.97V795.57zM145.807 801.414c-.065-.574-.43-2.311-2.076-2.311-1.867 0-2.468 2.207-2.468 4.309 0 2.115.6 4.31 2.468 4.31 1.332 0 1.867-1.15 2.09-2.612h3.904c0 3.16-2.116 6.529-5.89 6.529-4.178 0-6.542-3.591-6.542-8.227 0-4.936 2.573-8.214 6.542-8.214 3.552.013 5.498 2.286 5.837 6.216h-3.865zM160.035 799.589h-3.617v-4.022h11.204v4.022h-3.617v11.674h-3.97v-11.674zM168.778 795.57h10.682v4.021h-6.712v1.959h6.085v3.735h-6.085v1.958h6.908v4.022h-10.878V795.57zM180.876 795.57h3.97v11.673h5.707v4.022h-9.677V795.57zM191.548 795.57h10.681v4.021h-6.712v1.959h6.099v3.735h-6.099v1.958h6.908v4.022h-10.877V795.57zM211.771 811.264h-4.44l-3.852-15.696h4.009l2.115 9.52h.026l2.09-9.52h4.087l-4.035 15.696zM217.29 795.57h3.984v15.697h-3.983V795.57zM226.796 805.985c0 .391.052.744.144 1.031.287.953 1.162 1.15 1.893 1.15.653 0 1.645-.262 1.645-1.437 0-.81-.561-1.032-2.781-1.802-2.037-.692-4.375-1.384-4.375-4.544 0-3.63 2.547-5.185 5.21-5.185 2.795 0 5.276 1.293 5.38 5.12h-3.76c.078-.588-.144-.993-.47-1.254-.327-.288-.77-.392-1.162-.392-.549 0-1.437.17-1.437 1.058.078 1.11 1.92 1.358 3.748 1.971 1.815.614 3.63 1.646 3.63 4.532 0 4.087-3.095 5.406-5.968 5.406-1.462 0-5.64-.64-5.667-5.654h3.97zM235.742 795.57h3.97v15.697h-3.97V795.57zM247.6 795.196c3.93 0 6.542 3.434 6.542 8.226 0 4.78-2.611 8.214-6.542 8.214-3.917 0-6.542-3.434-6.542-8.214 0-4.792 2.625-8.226 6.542-8.226m0 12.536c1.019 0 2.573-.823 2.573-4.31 0-3.5-1.554-4.322-2.573-4.322-1.005 0-2.56.823-2.56 4.322 0 3.487 1.555 4.31 2.56 4.31M255.623 795.57h4.061l3.761 8.396h.04v-8.397h3.76v15.696h-3.865l-3.957-8.566h-.039v8.566h-3.76V795.57z"/><path d="M273.144 801.037h-.85v-3.996h1.49c1.018 0 1.632.287 1.632 1.201 0 .745-.431 1.006-.954 1.045l1.019 1.75h-1.019l-.914-1.685h-.404v1.685m.757-2.35c.379 0 .614-.092.614-.523 0-.418-.444-.444-.784-.444h-.587v.966h.757m-.144 4.074c-1.972 0-3.721-1.37-3.721-3.721 0-2.338 1.75-3.709 3.721-3.709 1.972 0 3.722 1.371 3.722 3.709 0 2.35-1.75 3.721-3.722 3.721m0-6.568c-1.462 0-2.65 1.136-2.65 2.847 0 1.71 1.188 2.86 2.65 2.847v.013c1.437 0 2.651-1.15 2.651-2.86s-1.214-2.847-2.65-2.847" fill-rule="evenodd"/><path d="M303.149 663.82c-1.646-1.122-4.584-1.684-7.496-1.436-2.781.235-4.622 1.593-6.137 2.847.026-.013-3.957 3.917-3.957 3.917l-1.057 1.698c0 .026-3.54 4.427-3.54 4.427s-.025.039-.038.052v-24.458l-10.826-6.503.013 44.41-.143.21-2.586 3.042v-47.662h-66.884l-23.805 23.674-21.129-23.674h-65.97v146.775h67.093v-64.652l19.744 20.371 24.263-20.671v64.952h66.701l-.013-61.936c.523-.888.953-1.606.953-1.606 0-.013.575-.823.575-.823.026-.039.588-.953 1.214-1.945l.014 66.31 10.786-7.457v-78.206c.483-.705 1.188-1.762 1.188-1.762l1.658-2.508 2.481-3.643c.04-.065.954-1.24.954-1.24l2.298-3.252c.457-1.045 1.75-1.737 2.246-1.998l.235-.13.313-.222 1.189-1.215c.026-.026 2.076-1.763 2.076-1.763l3.526-1.632 3.277-1.802 3.004-3.696 1.593-4.962.47-4.805c-.105-2.429-1.946-5.445-4.283-7.025m-80.374 39.919c.079.47.327 4.805.314 5.523-.013 2.142.13 4.518.065 5.472-.052.731.04 3.238.04 3.238.182 1.985.613 4.153.652 4.544.091 1.019-.287 4.871-.183 5.746.013.183.34 1.789.274 2.168-.182 1.005.118 2.22.079 2.664-.052.796-.079 1.71-.118 2.677-.052 1.436-.091 2.912-.235 4.217-.026.327.013 2.586.013 2.586-.26 2.285-.535 4.636-.156 6.986.078.483-.027 2.037.026 2.311.052.353.561 2.181.626 2.586.105.6.34 3.382.64 4.022.288.653 1.489 3.486 1.593 3.826.353 1.084.901 3.67.405 4.988-.457 1.254-1.149 4.218-1.645 4.975-.405.64-1.045 1.019-1.345 1.489-.287.431-.862.836-1.332 1.032-1.476.561-4.074.966-6.333.287-.914-.287-2.299-.196-3.853-1.136-1.266-.77-1.71-2.873-1.88-4.009-.091-.522.065-1.933.026-2.155-.039-.313-.522-2.402-.522-3.068 0-.327.117-1.75-.04-2.677-.182-1.189-.77-3.134-.77-3.134a48.677 48.677 0 0 0-.613-2.573c-.458-1.293-.68-2.546-.823-3.617-.235-1.959.248-3.604.679-5.053.248-.823.483-1.607.574-2.403.079-.562-.365-3.252-.287-4.153.04-.378.327-1.54.353-1.684.104-.77.13-2.808.143-3.121.013-.405.275-2.116.248-3.878-.013-.693-.09-1.424 0-2.142.079-.783.157-2.755 0-3.67-.235-1.397-.13-2.65-.143-2.702-.092-1.476-.183-3.004-.105-4.31.013-.209-.235-2.428-.248-3.12 0-.431-.026-3.148-.065-3.474-.575-6.764-1.489-8.057-1.854-8.305-.366-.235-1.358-.222-1.933.04-.43.195-1.567 1.187-2.52 1.697-.94.496-2.677 1.319-3.278 1.763-.679.522-1.815 1.397-4.009 2.598-.561.3-.979.823-1.475 1.267-.732.653-2.09 2.024-4.296 3.134-1.084.548-2.05 1.175-2.821 1.932-.326.327-1.502 2.299-2.26 3.03-.743.718-1.213 1.71-1.344 2.024-.392.823-.81 1.75-1.62 2.363-1.266.94-4.021 1.11-5.68.418-1.07-.444-3.173-1.867-4.1-4.322-.927-2.468-.157-5.615 1.672-7.665 1.214-1.345 3.094-1.88 4.936-2.39 1.123-.326 2.193-.627 3.03-1.097.404-.222 1.71-1.201 1.984-1.37.405-.275 1.893-.993 2.18-1.19.262-.169 1.816-1.527 2.86-2.115 1.724-.966 3.095-1.75 3.905-2.246 0 0 2.363-1.332 3.904-2.794.353-.327 1.828-.875 3.435-1.802.417-.235 2.102-.797 2.52-.98.3-.143 1.475-1.005 1.828-1.188 1.515-.783 2.272-1.723 1.841-4.074-.143-.81-.392-1.645-.313-2.625.026-.235.378-1.71.94-2.729.274-.522.718-.51.966-.992.248-.496 1.11-.914 1.698-1.058.392-.392 1.227-.797 2.194-.966 2.128-.353 4.857 1.201 5.25 1.292.743.157 2.01.053 2.69-.143.13-.04 1.005-.6 1.318-.718.43-.157 1.789-.536 2.076-.64.418-.144 2.377-1.162 2.86-1.358.51-.183 1.684-.405 2.272-.536.927-.666 2.677-1.227 3.343-1.802.757-.666 1.776-2.246 1.985-2.52.392-.522 2.324-1.828 2.585-2.024.64-.496 2.077-1.502 3.043-1.789.47-.13 1.841.144 2.677.144.927-.013 2.246.052 3.238 1.554.497.744 1.32 1.514 1.528 2.559.64 3.252-1.789 6.477-3.63 7.626-.183.118-1.084.379-1.632.548-.77.262-1.554.823-2.077.954-1.031.274-1.527 1.005-1.971 1.227-.418.222-1.842 1.097-2.312 1.358-.34.196-.927 1.019-1.971 1.32-.706.221-2.181.639-3.37 1.67-.483.432-2.467.836-3.029.967-.222.052-2.755 1.123-3.003 2.612-.275 1.554-.053 1.958-.34 4.191-.183 1.398-.091 3.03.026 3.892m82.476-28.441c-.196.9-.705 3.147-1.423 4.466-.314.574-1.567 2.415-2.507 3.134-.927.679-2.26 1.358-2.834 1.554-.51.182-3.069 1.37-3.748 1.75-1.24.665-1.906 1.41-2.56 2.128-.326.366-.652.718-1.044 1.058-.156.143-2.416 1.07-3.238 2.99-.51 1.162-2.769 3.565-3.147 4.257-.562 1.005-1.384 2.52-2.22 3.33-.235.235-.51.6-.797 1.031-.248.392-.522.823-.81 1.293l-.221.366c-.536.888-1.136 1.88-1.489 2.246-.862.927-1.358 2.141-1.763 3.12-.17.38-1.58 2.403-2.115 3.814-.235.64-1.463 2.69-1.593 3.003-.262.666-1.842 2.194-1.998 2.494-.235.47-.431 1.097-.653 1.75-.183.588-.68 1.763-.836 2.22-.209.326-.47.77-.757 1.227-.013.027-.026.04-.026.053-.21.34-.418.679-.64 1.031a69.081 69.081 0 0 1-1.332 2.09c-.21.287-.431.613-.627.914-.313.457-2.612 4.374-3.134 5.314-.235.431-.522.85-.823 1.306-.705 1.045-1.423 2.129-1.776 3.448-.209.835-.848 2.206-.888 2.324-.9 2.22-1.253 4.597-1.345 5.276-.143 1.096-.104 2.206-.065 3.277.04 1.162.092 2.26-.104 3.226-.34 1.802-1.045 3.564-1.972 4.975-.248.391-1.123 1.593-2.155 2.56-.757.691-1.998.979-4.257.992-3.068.026-4.387-1.11-6.02-3.513-.26-.392-.783-1.397-1.41-2.755-.823-1.724-1.489-3.304-2.076-5.393-.17-.627-.431-1.32-.666-1.998-.261-.732-.836-2.808-.888-3.147-.052-.34-.77-2.756-.81-2.99-.287-1.463-.679-2.834-1.057-4.153-.392-1.371-.745-2.664-.98-3.996-.222-1.267-.9-3.33-1.397-4.832 0 0-.966-3.055-1.28-4.14-.418-1.475-1.789-5.549-1.789-5.549-.522-1.397-1.736-4.649-1.815-5.17-.731-4.232-.718-7.653.04-9.142.339-.679 1.514-1.332 2.454-1.854.314-.17 1.868-1.175 2.194-1.254.966-.26 2.573-.352 3.93-.209.183.014 1.842.04 2.443.458 2.246 1.567 2.402 3.577 2.69 7.22 0 0 .391 3.931.574 5.407.144 1.097.287 2.22.392 3.33.078.77.117 1.606.157 2.415.065 1.476.561 4.257.561 4.257.496 1.685.98 3.278 2.938 4.1.536.223 1.15.184 1.724-.13 1.345-.718 2.56-2.899 3.03-5.406.025-.144.234-.43.417-.718.47-.64 1.097-1.541 1.437-3.004.104-.365.992-1.606 1.527-2.35.549-.757 1.058-1.463 1.359-1.998.104-.183 2.324-3.67 2.324-3.67s.875-1.906 1.24-2.624c.366-.731.693-1.593.719-1.737.182-.757.548-2.324 1.28-3.199 1.005-1.175 2.089-3.84 2.154-3.944.235-.457.888-1.58 1.489-2.585.039-.04.104-.118.143-.183.013-.013.026-.04.04-.052.274-.353.626-.823.887-1.15l1.92-2.271c.392-.431.796-.875 1.15-1.345.365-.497 1.161-1.672 1.866-2.704.431-.64 1.659-2.259 2.05-2.65.366-.392 3.174-4.166 3.605-4.74.182-.236 1.332-1.398 2.024-2.116h.013c.953-.98 1.306-1.332 1.436-1.502a58.812 58.812 0 0 1 1.763-2.193c.588-.719 1.188-1.45 1.763-2.207.248-.327.9-1.489 1.07-1.71.614-.81 3.579-3.553 3.67-3.631 1.384-1.136 2.912-2.26 5.158-2.455 2.455-.209 5.08.261 6.372 1.15 1.855 1.24 3.422 3.786 3.513 5.64.065 1.79-.065 2.52-.43 4.375"/></svg>