<svg xmlns="http://www.w3.org/2000/svg" width="264.349" height="81.339"><path d="M264.349 81.339H0V0h264.349v81.339z" fill="#002147"/><path d="M103.544 50.858c0-6.855-3.322-11.638-8.929-11.638-6.095 0-8.937 5.744-8.937 11.638 0 6.85 3.326 11.63 8.937 11.63 6.093 0 8.93-5.743 8.93-11.63m4.158-.137c0 7.54-5.818 13.013-13.088 13.013-7.41 0-13.09-5.535-13.09-12.743 0-7.543 5.817-13.017 13.09-13.017 7.41 0 13.088 5.542 13.088 12.747M183.465 50.858c0-6.855-3.326-11.638-8.932-11.638-6.095 0-8.934 5.744-8.934 11.638 0 6.85 3.324 11.63 8.934 11.63 6.09 0 8.932-5.743 8.932-11.63m4.155-.137c0 7.54-5.819 13.013-13.087 13.013-7.413 0-13.092-5.535-13.092-12.743 0-7.543 5.82-13.017 13.092-13.017 7.408 0 13.087 5.542 13.087 12.747M203.48 55.006c-1.457-2.078-2.012-2.835-3.81-2.835h-1.94v8.448c0 .694.277 1.034 1.04 1.175l2.838.623v.905h-11.15v-.905l2.564-.623c.76-.203 1.038-.481 1.038-1.175V41.091c0-.695-.278-.97-1.038-1.177l-2.564-.623v-.904h10.873c2.289 0 3.88.21 5.195.691 2.701 1.043 4.224 3.609 4.224 6.026 0 3.052-2.285 5.618-6.094 6.508v.139c.762.352 1.177.835 3.879 4.372l3.392 4.496c.485.694 1.109 1.105 1.871 1.248l2.493.55v.905h-5.955c-.693 0-1.039-.211-1.663-1.045l-5.193-7.271zm-5.75-4.015h3.117c4.71 0 5.75-2.972 5.75-5.815 0-2.148-.971-4.157-3.187-5.124-1.177-.486-2.287-.486-3.81-.486h-1.87V50.99zM154.656 46.906h1.04v8.313h-1.04l-.624-2.492c-.209-.905-.761-1.248-1.593-1.248h-6.026v9.14c0 .693.278 1.035 1.04 1.176l2.839.622v.905h-11.149v-.905l2.563-.622c.76-.204 1.04-.483 1.04-1.175V41.09c0-.694-.28-.969-1.04-1.175l-2.563-.625v-.903h18.836v6.24h-1.038l-1.177-3.746c-.277-.966-.693-1.315-1.525-1.315h-7.826V50.3h6.026c.832 0 1.315-.342 1.593-1.247l.624-2.146zM225.57 39.566V61.03c0 .905.207 1.116 1.11 1.116h3.044c2.91 0 5.057-.422 6.58-1.527 2.563-1.868 3.74-5.262 3.74-9.558 0-4.224-1.177-8.375-4.638-10.385-1.454-.834-3.325-1.111-6.235-1.111h-3.6zm-7.273 23.756v-.905l2.564-.623c.762-.203 1.038-.482 1.038-1.174V41.09c0-.694-.276-.97-1.038-1.176l-2.564-.623v-.904h11.706c3.185 0 5.47.416 7.341 1.248 4.71 2.147 6.857 6.786 6.857 11.356 0 4.439-1.663 8.589-5.887 10.804-1.938 1.045-4.64 1.527-8.17 1.527h-11.847zM117.468 62.417v.905h-8.795v-.905l2.213-.551c.835-.213 1.386-.483 1.94-1.105l7.619-9.558-7.62-10.113c-.483-.694-1.104-1.038-1.87-1.247l-2.077-.552v-.904h10.943v.904l-2.353.482c-.832.142-.625.485-.21 1.042l5.61 8.032h.138l5.749-8.032c.416-.557.556-.763-.208-.972l-2.216-.552v-.904h8.795v.904l-2.216.552c-.83.21-1.384.483-1.94 1.107l-7.202 9.077 8.033 10.593c.487.692 1.109 1.033 1.87 1.246l2.08.551v.905h-10.943v-.905l2.354-.481c.833-.141.693-.411.278-.976l-6.095-8.587h-.138l-6.164 8.528c-.416.552-.555.752.208.965l2.217.551zM91.234 26.654c-.689.689-1.721 1.147-3.164 1.147-1.256 0-2.42-.395-3.208-1.183-1.077-1.075-1.027-2.448-1.027-3.914v-6.935h1.414v7.45c0 .942-.029 1.861.7 2.589.505.505 1.281.777 2.176.777.874 0 1.577-.301 2.013-.74.81-.809.759-1.692.759-3.826v-6.25h1.393v5.882c0 2.237.09 3.857-1.056 5.003M103.785 27.58l-5.69-9.682.036 9.682h-1.3V15.768h1.449l5.71 9.735-.035-9.735h1.3V27.58h-1.47zM110.18 15.769h1.421v11.81h-1.421v-11.81zM120.436 27.579h-1.627l-4.071-11.81h1.481l3.444 10.426 3.547-10.426h1.375l-4.149 11.81zM127.8 27.579v-11.81h6.421v1.177h-5.029v3.898h4.722v1.148h-4.721v4.374h5.168v1.213H127.8zM144.63 27.579l-1.356-3.062c-.84-1.882-1.224-2.076-2.936-2.076h-.823v5.138h-1.393v-11.81h2.548c1.575 0 2.764-.01 3.693.918.591.592.921 1.377.921 2.362 0 .82-.239 1.503-.732 2.03a3.156 3.156 0 0 1-1.894.93c.415.025.759.25.981.473.323.32.556.808.903 1.58l1.568 3.517h-1.48zm-1.29-10.033c-.676-.677-1.555-.646-2.517-.646h-1.308v4.411h.47c1.192 0 2.475.061 3.285-.749.392-.39.61-.94.61-1.538 0-.665-.26-1.2-.54-1.478M159.905 15.769h1.421v11.81h-1.421v-11.81zM169.434 16.946V27.58h-1.418V16.946h-3.513V15.77h8.431v1.177h-3.5zM179.732 22.911v4.667h-1.403v-4.667l-3.748-7.143h1.623l2.91 5.54 2.828-5.54h1.539l-3.749 7.143zM196.734 27.802c-3.057 0-5.292-2.525-5.292-6.075 0-3.648 2.212-6.181 5.402-6.181 3.09 0 5.273 2.507 5.273 6.072 0 3.656-2.187 6.184-5.383 6.184m-.005-11.05c-2.314 0-3.817 1.955-3.817 4.9 0 2.935 1.674 4.932 3.893 4.932 2.469 0 3.842-2.1 3.842-5.025 0-2.882-1.622-4.807-3.918-4.807M207.41 16.946v3.898h4.567v1.148h-4.566v5.587H206v-11.81h6.272v1.177h-4.862zM148.972 18.65c0-1.815 1.46-3.106 3.594-3.106 2.16 0 3.196 1.115 3.301 1.23l-.692.838c-.265-.203-1.21-.898-2.516-.898-1.507 0-2.34.787-2.34 1.856 0 .517.21.89.552 1.196.405.363.996.631 1.633.925.792.364 1.877.773 2.605 1.528.502.521.882 1.2.882 2.131 0 1.964-1.362 3.46-3.814 3.46-2.09 0-3.407-1.151-3.53-1.266l.65-.958c.334.249 1.647 1.025 2.845 1.025 1.778 0 2.443-.974 2.443-2.146 0-.546-.248-.985-.616-1.338-.552-.53-1.385-.886-2.184-1.25-.794-.363-1.558-.743-2.099-1.312-.357-.374-.714-.986-.714-1.915M40.429 31.782c0-1.044-.354-1.887-1.12-2.336-.478-.281-1.127-.374-1.927-.374H31.56v11.754h6.336c1.461 0 2.32.329 2.394 1.639h.139V31.782zM41.242 31.782c0-1.044.353-1.887 1.118-2.336.48-.281 1.13-.374 1.93-.374h5.862v11.754h-6.377c-1.46 0-2.318.329-2.393 1.639h-.14V31.782z" fill="#fff"/><path d="M51.378 29.94v12.427h-9.01l-.103.254c-.156.387-.437.746-1.42.746-.982 0-1.262-.359-1.42-.746l-.102-.254h-8.987V29.941h-.812v.379l-.78-.24a.738.738 0 0 0-1.446.207c0 .41.332.741.74.741.178 0 .34-.066.467-.17l1.019.312v.998l-.765-.137a.74.74 0 1 0-.145.8l.91.164v1.017l-.8-.035a.737.737 0 0 0-1.373.379.74.74 0 1 0 1.339.434l.834.036v1.106l-.818.03a.74.74 0 1 0-.601 1.169c.268 0 .5-.144.63-.356l.789-.03v1.02l-.894.155a.738.738 0 0 0-1.279.505.74.74 0 0 0 1.42.295l.753-.13v1.002l-.978.298a.736.736 0 0 0-1.208.568.74.74 0 0 0 1.447.21l.739-.227v.969l-1.08.466a.74.74 0 1 0-.406 1.358.74.74 0 0 0 .727-.612l.759-.327v.885h9.297c.38.658 1.033 1 2.024 1 .991 0 1.646-.342 2.023-1h9.322V29.94h-.812zM34.728 25.797c-1.88 0-3.403.292-3.403.652 0 .362 1.523.653 3.403.653 1.879 0 3.402-.291 3.402-.653 0-.36-1.523-.652-3.402-.652M39.413 21.72l-1.964 1.38-.016.14.466.21c.092.047.092.12.046.166l-1.234 1.04-.117-.01-.874-1.287c-.061-.083-.039-.167.068-.185l.586-.096v-.147l-1.521-2.15h-.25l-1.522 2.15v.147l.588.096c.105.018.126.102.066.185l-.875 1.288-.115.01-1.154-1.041c-.046-.045-.046-.12.047-.165l.467-.21-.017-.14-2.047-1.38-.165.065 1.2 3.67c.612-.274 2.012-.467 3.65-.474 1.642.007 3.042.2 3.652.474l1.2-3.67-.165-.065zM40.83 50.41c-1.88 0-3.402.292-3.402.652 0 .362 1.522.653 3.402.653 1.88 0 3.403-.291 3.403-.653 0-.36-1.524-.652-3.403-.652M45.515 46.333l-1.964 1.381-.016.14.466.21c.093.045.093.12.047.164l-1.234 1.043-.118-.012-.873-1.287c-.06-.084-.04-.168.067-.185l.586-.095v-.149l-1.52-2.149h-.25l-1.522 2.15v.148l.587.095c.105.017.127.101.067.185l-.875 1.287-.117.012-1.15-1.043c-.048-.045-.048-.119.044-.165l.468-.209-.018-.14-2.046-1.38-.166.064 1.202 3.671c.61-.275 2.01-.467 3.65-.475 1.64.008 3.041.2 3.65.475l1.201-3.67-.166-.066zM46.92 25.797c-1.882 0-3.404.292-3.404.652 0 .362 1.522.653 3.403.653 1.878 0 3.402-.291 3.402-.653 0-.36-1.524-.652-3.402-.652M51.603 21.72L49.64 23.1l-.017.14.467.21c.092.047.093.12.045.166l-1.233 1.04-.117-.01-.873-1.287c-.062-.083-.04-.167.066-.185l.586-.096v-.147l-1.521-2.15h-.249l-1.521 2.15v.147l.586.096c.106.018.128.102.068.185l-.874 1.288-.118.01-1.152-1.055c-.046-.044-.046-.119.046-.165l.468-.196-.018-.14-2.046-1.38-.166.065 1.2 3.67c.61-.274 2.01-.467 3.652-.474 1.64.007 3.04.2 3.649.474l1.202-3.67-.166-.065z" fill="#fff"/><path d="M32.937 32.209c0 .23.057.275.18.275.225 0 .45-.246.45-.705 0-.558-.283-.713-.503-.713-.06 0-.094.008-.111.02-.014.003-.016.063-.016.128v.995zm.127-1.273c.319 0 .584.063.756.232a.747.747 0 0 1 .223.53c0 .646-.489.923-1.089.923h-.667v-.1c.188-.017.21-.035.21-.315v-.855c0-.28-.022-.298-.19-.313v-.102h.757zM34.75 31.714c0 .47.177.811.43.811.224 0 .345-.215.345-.684 0-.521-.186-.808-.41-.808-.198 0-.365.228-.365.68m1.258.045c0 .555-.379.902-.876.902-.523 0-.863-.381-.863-.857 0-.42.28-.905.899-.905.474 0 .84.347.84.86M38.296 30.936v.102c-.198.018-.208.028-.2.3l.026.868c.007.288.014.295.2.314v.101h-.811v-.1c.193-.02.2-.027.198-.315l-.006-.912h-.011l-.5 1.299h-.14l-.475-1.208h-.005l-.018.575c-.007.223-.005.348.005.428.01.096.068.12.235.132v.101h-.638v-.1c.123-.012.172-.037.188-.133.014-.08.03-.218.042-.454l.027-.523c.02-.326-.001-.355-.206-.373v-.102h.609l.453 1.027.397-1.027h.63zM39.137 32.206c0 .28.02.298.2.314v.101h-.84v-.1c.18-.017.2-.035.2-.315v-.855c0-.28-.02-.298-.2-.313v-.102h.84v.102c-.18.015-.2.033-.2.313v.855zM34.964 35.748h-.222l-.959-1.223h-.006v.477c0 .271.011.414.021.495.013.091.083.124.254.133v.1h-.645v-.1c.114-.007.181-.042.195-.133.01-.081.02-.224.02-.495v-.477c0-.192-.005-.225-.058-.298-.037-.055-.102-.072-.196-.08v-.101h.573l.862 1.075h.006v-.346a4.11 4.11 0 0 0-.02-.495c-.013-.092-.085-.125-.255-.133v-.101h.66v.101c-.128.005-.196.041-.21.133-.01.08-.02.222-.02.495v.973zM36.014 35.748c-.179-.466-.424-1.106-.516-1.35-.085-.222-.136-.236-.261-.25v-.102h.836v.101l-.088.01c-.096.01-.096.034-.067.125.046.145.251.655.347.909.08-.22.247-.715.288-.836.054-.16.039-.188-.078-.2l-.078-.008v-.101h.628v.101c-.148.018-.185.031-.286.268-.016.035-.332.805-.526 1.333h-.199zM37.183 35.196c.053.15.206.438.46.438.136 0 .24-.088.24-.256 0-.153-.102-.24-.26-.312l-.04-.017c-.21-.099-.452-.234-.452-.51 0-.294.212-.533.619-.533.08 0 .163.012.239.032.059.016.1.026.134.037.01.1.028.228.057.404l-.114.017c-.057-.17-.147-.355-.352-.355a.222.222 0 0 0-.226.227c0 .128.102.203.267.28l.056.025c.24.108.444.24.444.545 0 .317-.256.55-.657.55a.92.92 0 0 1-.28-.043 1.255 1.255 0 0 1-.163-.062c-.021-.12-.055-.26-.086-.433l.113-.034zM33.812 38.425c0 .28.02.297.2.313v.102h-.84v-.102c.179-.016.2-.033.2-.313v-.855c0-.28-.021-.299-.2-.314v-.101h.84v.101c-.18.015-.2.034-.2.314v.855zM34.838 38.458c0 .135.005.199.05.223a.426.426 0 0 0 .182.023c.084 0 .196-.007.25-.075a.671.671 0 0 0 .126-.256l.113.018c-.016.098-.07.368-.094.448H34.18v-.1c.196-.017.218-.035.218-.315v-.855c0-.28-.022-.297-.195-.313v-.102h.842v.102c-.186.016-.207.033-.207.313v.89zM36.284 38.458c0 .135.005.199.051.223a.42.42 0 0 0 .182.023c.083 0 .195-.007.248-.075a.653.653 0 0 0 .127-.256l.112.018c-.015.098-.07.368-.094.448h-1.285v-.1c.198-.017.218-.035.218-.315v-.855c0-.28-.02-.297-.194-.313v-.102h.841v.102c-.186.016-.206.033-.206.313v.89zM37.522 38.857c-.179-.466-.422-1.106-.515-1.35-.086-.222-.139-.236-.262-.25v-.102h.837v.101l-.089.01c-.096.01-.096.034-.066.125.046.145.251.655.346.909.08-.22.247-.715.288-.836.055-.16.04-.188-.078-.2l-.077-.008v-.101h.626v.101c-.147.018-.184.031-.285.268-.016.035-.331.805-.525 1.333h-.2zM44.482 30.936v.102c-.198.018-.208.028-.2.3l.026.868c.007.288.014.295.2.314v.101h-.811v-.1c.193-.02.2-.027.198-.315l-.007-.912h-.01l-.501 1.299h-.14l-.473-1.208h-.005l-.019.575c-.007.223-.005.348.005.428.01.096.067.12.235.132v.101h-.638v-.1c.123-.012.172-.037.188-.133.014-.08.03-.218.042-.454l.027-.523c.02-.326-.001-.355-.206-.373v-.102h.609l.453 1.027.397-1.027h.63zM45.323 32.206c0 .28.021.298.2.314v.101h-.84v-.1c.179-.017.2-.035.2-.315v-.855c0-.28-.021-.298-.2-.313v-.102h.84v.102c-.179.015-.2.033-.2.313v.855zM47.25 32.639h-.222l-.959-1.224h-.005v.478c0 .271.01.415.022.495.012.091.082.123.253.132v.1h-.646v-.1c.114-.006.183-.041.195-.132.01-.08.021-.224.021-.495v-.478c0-.191-.005-.225-.057-.297-.039-.054-.104-.073-.196-.08v-.102h.571l.864 1.075h.003v-.346c0-.272-.008-.415-.018-.495-.015-.091-.084-.125-.255-.132v-.102h.661v.102c-.13.005-.198.041-.21.132a4.11 4.11 0 0 0-.021.495v.974zM48.006 31.958h.33l-.163-.495h-.007l-.16.495zm.327.562l.079-.011c.096-.013.101-.039.067-.131l-.093-.265h-.425l-.078.248c-.034.113-.034.138.085.152l.075.007v.101h-.604v-.101c.134-.019.173-.029.258-.246l.519-1.34.177-.036.178.49c.11.308.22.613.32.878.083.225.13.238.257.254v.101h-.815v-.101zM44.461 35.315c0 .28.02.298.238.314v.101h-.906v-.1c.206-.017.227-.035.227-.315V34.18h-.044c-.173 0-.243.032-.285.08-.03.037-.062.104-.095.25h-.11c.01-.218.027-.397.032-.528h.08c.038.058.066.063.135.063h1.033c.07 0 .08-.015.122-.063h.081c.002.108.015.328.029.52l-.115.008c-.038-.156-.067-.223-.105-.267-.045-.048-.132-.063-.255-.063h-.062v1.135zM45.818 35.315c0 .28.021.298.198.314v.101h-.838v-.1c.178-.017.2-.035.2-.315v-.855c0-.28-.022-.297-.2-.313v-.102h.838v.102c-.177.016-.198.033-.198.313v.855zM46.715 34.823c0 .47.176.811.43.811.224 0 .345-.215.345-.684 0-.521-.186-.808-.41-.808-.199 0-.365.228-.365.68m1.258.046c0 .554-.38.901-.877.901-.522 0-.862-.381-.862-.857 0-.42.279-.905.899-.905.473 0 .84.347.84.86M45.226 37.155v.101c-.198.018-.208.029-.2.3l.026.869c.008.287.013.295.199.314v.1h-.81v-.1c.194-.019.202-.027.199-.314l-.008-.913h-.01l-.5 1.3h-.14l-.474-1.208h-.006l-.017.575c-.01.222-.005.346.005.427.01.095.066.119.236.133v.1h-.641v-.1c.125-.012.175-.038.19-.133a4.24 4.24 0 0 0 .04-.454l.028-.523c.02-.327 0-.355-.206-.373v-.101h.609l.454 1.026.396-1.026h.63zM45.627 37.57c0-.28-.022-.298-.194-.314v-.101h1.227l.03.427-.115.009c-.026-.128-.055-.2-.096-.241-.041-.044-.127-.06-.264-.06h-.045c-.097 0-.103 0-.103.09v.5h.13c.222 0 .23-.015.257-.212h.113v.612h-.113c-.026-.228-.035-.244-.257-.244h-.13v.422c0 .135.006.199.052.223a.423.423 0 0 0 .181.024c.104 0 .22-.015.275-.078a.747.747 0 0 0 .128-.268l.112.02a3.177 3.177 0 0 1-.09.46h-1.318v-.1c.198-.017.22-.034.22-.314v-.855zM47.397 38.176h.332l-.164-.495h-.008l-.16.495zm.33.562l.077-.01c.095-.013.101-.04.068-.132l-.095-.265h-.424l-.079.249c-.034.112-.034.137.086.15l.074.008v.102h-.601v-.102c.13-.017.171-.028.255-.246l.519-1.34.18-.036.173.49c.113.309.224.614.323.879.083.225.13.237.256.253v.102h-.813v-.102z" fill="#002147"/><path d="M38.494 59.685a.677.677 0 1 1-1.354 0 .677.677 0 0 1 1.354 0M45.366 60.812a.677.677 0 1 1-1.354 0 .677.677 0 0 1 1.354 0M41.482 11.84a.678.678 0 1 1-1.356 0 .678.678 0 0 1 1.356 0M57.608 18.184a.68.68 0 0 1-.706.648.678.678 0 1 1 .706-.649M23.623 47.27c.26.376.392.777.39 1.192 0 .474-.158.858-1.005 1.444L20.56 51.65l-.451-.648 2.548-1.814c.432-.298.616-.517.617-.858 0-.218-.08-.454-.236-.68-.245-.353-.56-.467-.836-.467-.253 0-.523.177-1.005.513l-2.302 1.561-.441-.636 2.189-1.484c.61-.427 1.095-.721 1.546-.72.658.001 1.138.429 1.433.854M15.804 42.494l4.655-1.633.257.705-2.664 3.254 3.367-1.331.25.687-4.602 1.768-.257-.705 2.677-3.259-3.433 1.201-.25-.687zM15.107 38.787l4.873-.722.116.78-4.873.722-.116-.78zM14.963 32.912l.018-.817 4.864 1.976-.035.811-4.994 1.489.005-.819 4.05-1.135-3.908-1.505zM18.533 23.384c.289-.525.495-.724.8-.722a.833.833 0 0 1 .778.562c.02.071.03.141.028.213-.002.292-.165.587-.336.895l-.101.182-1.388-.746.22-.384zm.876-1.492c-.696.001-1.018.4-1.462 1.202l-.579 1.036 4.34 2.355.374-.677-1.803-.985.105-.194c.304-.55.41-.632 1.183-.567l1.405.125.401-.729-1.619-.138c-.326-.03-.582-.055-.79.007a.842.842 0 0 0-.233.118c.018-.087.052-.173.053-.262 0-.139-.018-.276-.06-.401-.095-.29-.3-.524-.613-.697a1.42 1.42 0 0 0-.702-.193M24.8 14.93l.628-.478 2.989 3.915-.628.478L24.8 14.93zM27.506 13.01l3.187-1.66.31.598-1.24.647 1.964 3.77-.699.365-1.965-3.772-1.246.65-.311-.598zM35.455 9.852l.831-.231-.669 3.295.542 1.871-.752.216-.528-1.856-2.34-2.441.81-.235 1.682 1.754.424-2.373zM50.486 16.587l2.5-4.244 2.355 1.386-.343.581-1.681-.991-.691 1.175 1.58.931-.333.569-1.581-.932-1.133 1.922-.673-.397zM63.142 27.56l1.794-2.147.279.85-1.335 1.528 1.984.446.262.8-2.714-.656-1.927 2.31-.274-.835 1.454-1.696-2.175-.497-.265-.807 2.917.704zM61.735 32.4l4.91-.4.222 2.722-.672.055-.158-1.943-1.358.11.148 1.83-.656.053-.15-1.83-2.222.182-.064-.779zM64.294 40.546c-.96 0-2.08-.523-2.08-1.49 0-.35.122-.822.555-1.137.292-.212.672-.324 1.098-.324.489 0 1.37.137 1.832.774.16.22.24.475.24.747 0 .377-.155.826-.558 1.118-.287.208-.664.312-1.087.312m-.388-3.754c-.57 0-1.093.154-1.507.454-.742.538-.877 1.313-.877 1.766 0 1.665 1.564 2.331 2.739 2.331.565 0 1.08-.154 1.488-.449.83-.6.875-1.503.875-1.793 0-1.454-1.335-2.309-2.718-2.309M60.28 24.407c-.442 0-.841-.185-1.116-.62a1.303 1.303 0 0 1-.21-.7c-.004-.558.35-1.13.996-1.54.428-.27.848-.405 1.223-.403.475 0 .86.208 1.118.616.153.24.223.495.223.75 0 .544-.345 1.077-.969 1.472-.437.278-.879.425-1.265.425m.768-4.013c-.5 0-1.03.158-1.54.482-.947.601-1.292 1.461-1.292 2.088 0 .407.112.806.344 1.172a2.142 2.142 0 0 0 1.846 1.029c.509-.003 1.045-.171 1.55-.493.61-.386 1.289-1.103 1.289-2.076 0-.404-.115-.801-.349-1.169-.431-.68-1.107-1.033-1.848-1.033M47.354 14.642c-.357 0-.872-.175-1.16-.7a1.841 1.841 0 0 1-.2-.884c0-.882.587-2.12 1.66-2.12.603 0 1.36.449 1.36 1.563 0 .71-.5 2.14-1.66 2.14m.253-4.393c-1.026 0-1.92.691-2.281 1.92-.08.273-.13.543-.13.804 0 .492.082.882.285 1.25.455.834 1.288 1.117 1.922 1.117.359 0 .704-.08 1.02-.255.831-.453 1.38-1.508 1.38-2.518 0-.438-.085-.852-.28-1.204-.4-.728-1.14-1.114-1.916-1.114M20.322 28.113l.662.188-.747 2.705-4.767-1.307.814-2.737.648.182-.598 1.973 1.315.36.506-1.791.635.18-.505 1.786 1.486.409.551-1.948zM21.573 17.821c.684-.767 1.384-.713 1.384-.713l.12.65s-.54.017-.963.49c-.184.206-.276.42-.276.615 0 .16.062.3.187.41.342.305.924-.033 1.289-.18.281-.115.68-.278 1.079-.278.297 0 .605.085.886.335.328.294.493.661.493 1.048 0 .417-.163.79-.49 1.156a2.463 2.463 0 0 1-1.474.78l-.168-.659c.499-.115.875-.306 1.104-.562.179-.202.268-.427.268-.625a.655.655 0 0 0-.23-.495.616.616 0 0 0-.435-.147c-.318 0-.697.183-1.01.313-.598.246-1.23.446-1.794-.059a1.236 1.236 0 0 1-.44-.939c0-.378.15-.78.47-1.14M63.334 46.088c-.221 0-.599-.128-.741-.494a.752.752 0 0 1-.05-.284c.002-.27.13-.55.262-.845l.083-.19 1.421.64-.157.38c-.265.6-.438.792-.818.793m-2.909-2.921l1.864.842-.094.21c-.253.573-.35.666-1.126.669l-1.411.001-.335.76 1.625-.005c.33.001.585.001.786-.076a.825.825 0 0 0 .208-.121c-.005.04-.019.082-.019.125-.003.18.031.36.1.517.222.52.827.775 1.272.774.784 0 1.084-.469 1.465-1.333l.458-1.055-4.479-2.017-.314.709zM59.587 51.535c-.391 0-.759-.151-1.141-.456-.388-.309-.799-.791-.799-1.407 0-.428.233-.837.59-1.284l.326-.408 2.814 2.245-.216.269c-.521.655-.879 1.041-1.574 1.041m-1.755-3.708c-.511.64-.899 1.21-.899 1.95 0 .626.285 1.34 1.005 1.916.478.38 1.018.587 1.575.587.685 0 1.234-.206 2.088-1.276l.779-.977-3.85-3.074-.698.874z" fill="#fff"/><path d="M57.374 57.197c-4.585 1.622-8.864 1.51-12.514.695.119-1.63.794-3.372 1.826-3.696 8.04-2.494 13.894-9.989 13.894-18.824 0-10.866-8.856-19.706-19.742-19.706-10.888 0-19.744 8.84-19.744 19.706 0 6.045 2.824 11.788 7.576 15.51a6.686 6.686 0 0 0-2.787 2.298c-.36-.246-.708-.5-1.03-.764l-.18.18c.216.26.55.603.95.986a6.543 6.543 0 0 0-.924 3.355c0 .192.012.38.029.565-7.073-5.155-11.277-13.348-11.277-22.13 0-15.098 12.287-27.383 27.387-27.383s27.385 12.285 27.385 27.383c0 8.65-3.954 16.595-10.85 21.825m-15.887 6.464c-3.783 0-8.506-1.286-11.75-3.2-.983-.58-2.156-1.66-2.156-3.502 0-.5.098-.974.27-1.41 1.211 1 2.464 1.94 3.249 2.368.18.1.285.148.495.148.505 0 .912-.41.912-.916 0-.387-.21-.7-.556-.852-.671-.293-2.075-.873-3.587-1.657a3.809 3.809 0 0 1 4.665-1.161l1.036.603c3.297 2.015 11.781 7.18 22.024 4.342-3.888 3.508-8.677 5.237-14.602 5.237m3.244 2.305c-1.04 0-1.894.736-1.894 1.866 0 1.107.865 1.867 1.894 1.867.156 0 .306-.027.451-.064-.217 1.565-2.04 3.316-4.39 4.104-2.333-.782-4.155-2.545-4.396-4.103.144.038.293.063.449.063 1.121 0 1.894-.785 1.894-1.867 0-1.03-.81-1.838-1.854-1.86.319-.583.625-1.202.85-1.866 1.292.224 2.567.348 3.752.348.973 0 1.917-.054 2.838-.147.122.534.304 1.092.516 1.668-.036-.001-.072-.009-.11-.009M31.344 51.11c1.947 0 3.769.999 4.836 2.599a18.856 18.856 0 0 1-2.749-.928l-.003.005-.03-.016a4.647 4.647 0 0 0-1.994-.445c-1.551 0-2.924.76-3.77 1.924a24.088 24.088 0 0 1-1.064-.624 5.803 5.803 0 0 1 4.774-2.515m7.707 3.885c-.242.18-.433.394-.572.63a49.083 49.083 0 0 1-2.198-1.123c.83.184 1.915.417 2.77.493m5.994-.371c-.566.808-.904 1.933-1.006 3.072a29.26 29.26 0 0 1-4.829-1.727c.269-.522 1.04-.89 1.628-.89 1.443 0 2.85-.16 4.207-.455m-4.207-.338a19 19 0 0 1-3.567-.339 6.687 6.687 0 0 0-5.927-3.628c-.613 0-1.203.088-1.766.245a18.986 18.986 0 0 1-7.65-15.192c0-10.428 8.483-18.913 18.91-18.913 10.426 0 18.908 8.485 18.908 18.913 0 10.43-8.482 18.914-18.908 18.914m-9.494 8.479c-3.204 0-5.81-2.614-5.81-5.828 0-1.006.256-1.953.706-2.78.299.272.619.553.95.838a4.588 4.588 0 0 0-.444 1.964c0 1.746.882 3.19 2.55 4.175a21.79 21.79 0 0 0 3.19 1.518 5.87 5.87 0 0 1-1.142.113m37.714-27.393c0-15.536-12.66-28.175-28.22-28.175-15.56 0-28.22 12.64-28.22 28.175 0 9.32 4.602 18.008 12.313 23.273a6.647 6.647 0 0 0 6.413 4.912c.83 0 1.636-.157 2.401-.453 1.033.34 2.099.623 3.164.842-.3.855-.738 1.668-1.155 2.369l.024-.005-.024.014.587.588c.15-.082.32-.132.503-.132a1.054 1.054 0 1 1 0 2.106c-.508 0-.953-.325-1.186-.672 0 0-.137.473-.137 1.098-.005 2.024 2.205 4.337 5.27 5.312 3.06-.954 5.27-3.283 5.27-5.308 0-.697-.14-1.102-.14-1.102-.235.283-.616.672-1.19.672a1.054 1.054 0 0 1 0-2.106c.203 0 .392.06.553.161l.57-.571.021.006a13.784 13.784 0 0 1-.717-2.162c5.073-.683 9.355-2.83 12.757-6.41l-.001-.003c7.081-5.381 11.144-13.546 11.144-22.429" fill="#fff"/></svg>