<svg xmlns="http://www.w3.org/2000/svg" viewBox="0 0 331 92.5" version="1.1"><path d="M.2 80.6l3.6-.4c.2 1.2.7 2.1 1.3 2.7.7.6 1.6.9 2.7.9 1.2 0 2.1-.3 2.7-.8.6-.5.9-1.1.9-1.8 0-.4-.1-.8-.4-1.1-.3-.3-.7-.6-1.3-.8-.4-.2-1.4-.4-3-.8-2-.5-3.4-1.1-4.2-1.8-1.1-1-1.7-2.3-1.7-3.8 0-.9.3-1.8.8-2.7.6-.8 1.4-1.5 2.4-1.9 1-.4 2.2-.6 3.6-.6 2.3 0 4.1.5 5.2 1.5 1.2 1 1.8 2.4 1.8 4.1l-3.6.2c-.2-1-.5-1.6-1-2.1-.5-.4-1.3-.6-2.4-.6-1.1 0-1.9.2-2.5.7-.4.3-.6.7-.6 1.2 0 .4.2.8.6 1.1.5.4 1.6.8 3.4 1.2 1.8.4 3.2.9 4 1.3.9.5 1.6 1.1 2 1.9.5.8.7 1.8.7 3 0 1.1-.3 2.1-.9 3-.6.9-1.4 1.6-2.5 2.1s-2.4.7-4 .7c-2.3 0-4.1-.5-5.4-1.6C1.2 84.2.5 82.7.2 80.6M20.3 77.2l-3.3-.6c.4-1.3 1-2.3 1.9-2.9.9-.6 2.2-.9 3.9-.9 1.6 0 2.8.2 3.5.6.8.4 1.3.9 1.6 1.4.3.6.5 1.7.5 3.2v4.2c0 1.2.1 2.1.2 2.6.1.6.3 1.2.6 1.8h-3.5c-.1-.2-.2-.6-.3-1.1-.1-.2-.1-.4-.1-.4-.6.6-1.3 1-1.9 1.3-.7.3-1.4.4-2.2.4-1.4 0-2.5-.4-3.3-1.1-.8-.8-1.2-1.7-1.2-2.9 0-.8.2-1.4.5-2 .4-.6.9-1.1 1.5-1.4.7-.3 1.6-.6 2.8-.8 1.7-.3 2.8-.6 3.4-.9v-.4c0-.7-.2-1.2-.5-1.5-.3-.3-1-.4-1.9-.4-.6 0-1.1.1-1.5.4-.2.4-.5.8-.7 1.4m4.7 2.9c-.5.2-1.2.3-2.2.5-1 .2-1.6.4-1.9.6-.5.3-.7.8-.7 1.3s.2.9.6 1.3c.4.4.8.5 1.4.5.6 0 1.2-.2 1.8-.6.4-.3.7-.7.8-1.2.1-.3.1-.9.1-1.7v-.7zM31.6 71.3V68h3.5v3.3m-3.5 15.3V73.1h3.5v13.5h-3.5zM50.6 86.6H47v-6.9c0-1.5-.1-2.4-.2-2.8-.2-.4-.4-.8-.7-1-.3-.2-.8-.4-1.2-.4-.6 0-1.2.2-1.7.5s-.8.8-1 1.4c-.2.6-.3 1.6-.3 3.1v6.1h-3.5V73.1h3.3v2c1.2-1.5 2.6-2.3 4.4-2.3.8 0 1.5.1 2.1.4.6.3 1.1.6 1.5 1.1.3.4.6.9.7 1.5.1.6.2 1.4.2 2.4M52.3 82.8l3.6-.5c.2.7.5 1.2.9 1.6.5.4 1.1.5 1.9.5.9 0 1.6-.2 2.1-.5.3-.2.5-.6.5-1 0-.3-.1-.5-.3-.7-.2-.2-.6-.3-1.2-.5-2.9-.6-4.7-1.2-5.4-1.7-1.1-.7-1.6-1.7-1.6-3 0-1.2.5-2.2 1.4-3 .9-.8 2.3-1.2 4.3-1.2 1.8 0 3.2.3 4.1.9.9.6 1.5 1.5 1.8 2.7L61 77c-.1-.5-.4-.9-.8-1.2-.4-.3-1-.4-1.7-.4-.9 0-1.6.1-2 .4-.3.2-.4.4-.4.7 0 .3.1.5.4.6.3.2 1.4.6 3.3 1s3.2 1 4 1.6c.7.6 1.1 1.5 1.1 2.7 0 1.2-.5 2.3-1.5 3.2-1 .9-2.5 1.3-4.6 1.3-1.8 0-3.3-.4-4.3-1.1-1.2-.7-1.9-1.7-2.2-3M67.1 86.6V68h3.5v6.7c1.1-1.3 2.4-1.9 3.9-1.9 1.6 0 3 .6 4.1 1.8 1.1 1.2 1.6 2.9 1.6 5.1 0 2.3-.5 4.1-1.6 5.3s-2.4 1.9-4 1.9c-.8 0-1.5-.2-2.3-.6-.7-.4-1.4-1-1.9-1.7v2m.2-7c0 1.4.2 2.4.7 3.1.6 1 1.4 1.4 2.4 1.4.8 0 1.4-.3 2-1 .6-.7.8-1.7.8-3.2 0-1.5-.3-2.7-.8-3.3-.6-.7-1.3-1-2.1-1s-1.6.3-2.1 1c-.6.6-.9 1.6-.9 3zM91.1 86.6v-2c-.5.7-1.1 1.3-1.9 1.7-.8.4-1.6.6-2.5.6-.9 0-1.7-.2-2.4-.6-.7-.4-1.2-1-1.6-1.7-.3-.7-.5-1.7-.5-3V73h3.5v6.2c0 1.9.1 3.1.2 3.5.1.4.4.8.7 1 .3.3.8.4 1.3.4.6 0 1.1-.2 1.6-.5s.8-.8 1-1.2c.2-.5.3-1.7.3-3.7V73h3.5v13.5M101.2 86.6h-3.5V73.1h3.3V75c.6-.9 1.1-1.5 1.5-1.8s1-.4 1.5-.4c.8 0 1.6.2 2.3.7l-1.1 3.1c-.6-.4-1.2-.6-1.7-.6s-.9.1-1.3.4c-.3.3-.6.8-.8 1.5-.2.7-.3 2.2-.3 4.5M106.8 73.1h3.8l3.2 9.6 3.1-9.6h3.7l-4.7 13-.8 2.4c-.3.8-.6 1.4-.9 1.8-.3.4-.6.8-1 1-.4.3-.8.5-1.3.6-.5.1-1.1.2-1.8.2s-1.4-.1-2-.2l-.3-2.8c.6.1 1.1.2 1.5.2.8 0 1.4-.2 1.8-.7.4-.5.7-1.1.9-1.9M131.7 86.6L127.2 68h3.9l2.9 12.8 3.4-12.8h4.6l3.3 13 2.9-13h3.8l-4.6 18.6h-4l-3.8-13.9-3.7 13.9M160.4 82.3l3.6.6c-.5 1.3-1.2 2.3-2.2 3-1 .7-2.2 1-3.8 1-2.4 0-4.1-.8-5.3-2.3-.9-1.2-1.4-2.8-1.4-4.7 0-2.2.6-4 1.8-5.3 1.2-1.3 2.7-1.9 4.5-1.9 2 0 3.6.7 4.8 2 1.2 1.3 1.7 3.4 1.7 6.1H155c0 1.1.3 1.9.9 2.5.6.6 1.3.9 2.1.9.6 0 1-.2 1.4-.5.5-.2.8-.7 1-1.4m.2-3.6c0-1-.3-1.8-.8-2.4-.5-.5-1.1-.8-1.9-.8-.8 0-1.4.3-2 .9-.5.6-.8 1.3-.8 2.3h5.5zM166.6 86.6V68h3.6v18.6M173.4 86.6V68h3.6v18.6M192.1 77.1l-3.6.6c-.1-.7-.4-1.2-.8-1.6-.4-.4-1-.5-1.7-.5-.9 0-1.6.3-2.2.9-.5.6-.8 1.6-.8 3.1 0 1.6.3 2.7.8 3.4.5.7 1.3 1 2.2 1 .7 0 1.2-.2 1.7-.6.4-.4.7-1.1.9-2l3.6.6c-.4 1.6-1.1 2.8-2.1 3.7-1 .8-2.4 1.2-4.2 1.2-2 0-3.6-.6-4.8-1.9-1.2-1.2-1.8-3-1.8-5.2s.6-4 1.8-5.2c1.2-1.2 2.8-1.9 4.8-1.9 1.7 0 3 .4 4 1.1 1.1.8 1.8 1.9 2.2 3.3M193.5 79.7c0-1.2.3-2.3.9-3.5.6-1.1 1.4-2 2.5-2.5 1.1-.6 2.3-.9 3.6-.9 2.1 0 3.8.7 5.1 2 1.3 1.3 2 3 2 5s-.7 3.7-2 5.1c-1.3 1.3-3 2-5 2-1.3 0-2.4-.3-3.6-.8-1.1-.6-2-1.4-2.6-2.5-.6-1-.9-2.4-.9-3.9m3.7.2c0 1.3.3 2.4 1 3.1.6.7 1.4 1.1 2.4 1.1.9 0 1.7-.4 2.4-1.1.6-.7 1-1.8 1-3.1s-.3-2.3-1-3.1c-.6-.7-1.4-1.1-2.4-1.1-.9 0-1.7.4-2.4 1.1-.6.7-1 1.7-1 3.1zM209.7 73.1h3.3V75c1.2-1.4 2.6-2.2 4.3-2.2.9 0 1.6.2 2.3.5.6.4 1.2.9 1.6 1.6.6-.7 1.2-1.3 1.9-1.6.7-.4 1.4-.5 2.2-.5 1 0 1.9.2 2.5.6.7.4 1.2 1 1.6 1.8.2.6.4 1.5.4 2.8v8.7h-3.6V79c0-1.3-.1-2.2-.4-2.6-.3-.5-.9-.8-1.5-.8-.5 0-1 .2-1.4.5-.4.3-.8.8-1 1.3-.2.6-.3 1.5-.3 2.8v6.5H218v-7.4c0-1.3-.1-2.2-.2-2.5-.1-.4-.3-.7-.6-.9-.3-.2-.6-.3-1.1-.3-.6 0-1.1.1-1.5.4-.4.3-.8.7-1 1.3-.2.6-.3 1.5-.3 2.8v6.6h-3.6M240.8 82.3l3.6.6c-.5 1.3-1.2 2.3-2.2 3-1 .7-2.3 1-3.8 1-2.4 0-4.1-.8-5.3-2.3-.9-1.2-1.4-2.8-1.4-4.7 0-2.2.6-4 1.8-5.3 1.2-1.3 2.7-1.9 4.5-1.9 2 0 3.6.7 4.8 2 1.2 1.3 1.7 3.4 1.7 6.1h-9.1c0 1.1.3 1.9.9 2.5.6.6 1.3.9 2.1.9.6 0 1-.2 1.4-.5.5-.2.8-.7 1-1.4m.2-3.6c0-1-.3-1.8-.8-2.4-.5-.5-1.1-.8-1.9-.8-.8 0-1.4.3-2 .9-.5.6-.8 1.3-.8 2.3h5.5zM265.4 79.8l3.7 1.2c-.6 2-1.5 3.6-2.8 4.5-1.3 1-3 1.5-5 1.5-2.5 0-4.5-.8-6.1-2.5-1.6-1.7-2.4-4-2.4-7 0-3.1.8-5.5 2.4-7.2 1.6-1.7 3.7-2.6 6.3-2.6 2.3 0 4.1.7 5.6 2 .8.8 1.5 1.9 1.9 3.4l-3.7.9c-.2-1-.7-1.7-1.4-2.3-.7-.6-1.6-.8-2.6-.8-1.4 0-2.5.5-3.4 1.5-.9 1-1.3 2.6-1.3 4.8 0 2.4.4 4 1.3 5 .8 1 2 1.5 3.3 1.5 1 0 1.9-.3 2.6-1 .7-.6 1.3-1.6 1.6-2.9M279.2 82.3l3.6.6c-.5 1.3-1.2 2.3-2.2 3-1 .7-2.2 1-3.7 1-2.4 0-4.1-.8-5.2-2.3-.9-1.2-1.3-2.8-1.3-4.7 0-2.2.6-4 1.8-5.3 1.2-1.3 2.7-1.9 4.4-1.9 2 0 3.6.7 4.8 2 1.2 1.3 1.7 3.4 1.7 6.1h-9c0 1.1.3 1.9.9 2.5s1.2.9 2.1.9c.6 0 1-.2 1.4-.5.2-.2.5-.7.7-1.4m.2-3.6c0-1-.3-1.8-.8-2.4-.5-.5-1.1-.8-1.9-.8-.8 0-1.4.3-1.9.9-.5.6-.8 1.3-.8 2.3h5.4zM297.6 86.6H294v-6.9c0-1.5-.1-2.4-.2-2.8-.2-.4-.4-.8-.7-1-.3-.2-.8-.4-1.2-.4-.6 0-1.2.2-1.7.5s-.8.8-1 1.4c-.2.6-.3 1.6-.3 3.1v6.1h-3.6V73.1h3.3v2c1.2-1.5 2.7-2.3 4.5-2.3.8 0 1.5.1 2.2.4.7.3 1.2.6 1.5 1.1.3.4.6.9.7 1.5.1.6.2 1.4.2 2.4M307.1 73.1V76h-2.4v5.5c0 1.1 0 1.7.1 1.9 0 .2.2.3.3.5.2.1.4.2.6.2.3 0 .8-.1 1.4-.3l.3 2.8c-.8.4-1.8.5-2.8.5-.6 0-1.2-.1-1.7-.3-.5-.2-.9-.5-1.1-.8-.2-.3-.4-.8-.5-1.4-.1-.4-.1-1.3-.1-2.5V76h-1.6v-2.9h1.6v-2.7l3.6-2.1v4.8M313.2 86.6h-3.6V73.1h3.3V75c.6-.9 1.1-1.5 1.5-1.8.5-.3 1-.4 1.5-.4.8 0 1.6.2 2.4.7l-1.1 3.1c-.6-.4-1.2-.6-1.7-.6s-.9.1-1.3.4c-.3.3-.6.8-.8 1.5-.2.7-.3 2.2-.3 4.5M327 82.3l3.6.6c-.5 1.3-1.2 2.3-2.2 3-1 .7-2.2 1-3.7 1-2.4 0-4.1-.8-5.2-2.3-.9-1.2-1.3-2.8-1.3-4.7 0-2.2.6-4 1.8-5.3 1.2-1.3 2.7-1.9 4.4-1.9 2 0 3.6.7 4.8 2 1.2 1.3 1.7 3.4 1.7 6.1h-9c0 1.1.3 1.9.9 2.5.6.6 1.2.9 2.1.9.6 0 1-.2 1.4-.5.2-.2.5-.7.7-1.4m.2-3.6c0-1-.3-1.8-.8-2.4-.5-.5-1.1-.8-1.9-.8-.8 0-1.4.3-1.9.9-.5.6-.8 1.3-.8 2.3h5.4z"/><path fill="#00509f" d="M55.8 53.5h-2.7V0h2.7M87.9 53.5h-5.3V0h5.3M120.1 53.5h-5.4V0h5.4M142.8 53.5h-2.7V0h2.7M158.9 53.5h-2.7V0h2.7M174.9 53.5h-2.6V0h2.6M191 53.5h-2.7V0h2.7M216.4 53.5h-5.3V0h5.3M248.6 53.5h-5.4V0h5.4M71.9 49.5h-5.4V4h5.4M104 49.5h-5.4V4h5.4M134.8 49.5h-4V4h4M150.8 50.9h-2.6V2.7h2.6M166.9 50.9h-2.7V2.7h2.7M183 50.9h-2.7V2.7h2.7M200.4 49.5h-4V4h4M232.5 49.5h-5.4V4h5.4M264.6 49.5h-5.3V4h5.3M278 53.5h-2.7V0h2.7"/></svg>