<svg id="Layer_1" data-name="Layer 1" xmlns="http://www.w3.org/2000/svg" viewBox="0 0 1280.1 375.3"><defs><style>.cls-1{fill:#fff;}.cls-2{fill:#1a1a1a;}</style></defs><title>ucl-logo-white</title><path class="cls-1" d="M1006,376H930c1-.9,1.9-1.8,2.9-2.6,17.6-12.6,30-29.5,39.5-49.3-24-11.6-47.8-23-71.2-34.3-3.9,7.2-7,14.4-11.4,20.8-12.4,18-30.2,24.4-51.3,22.1-19.2-2.2-32.8-13-39.9-30.7a121.7,121.7,0,0,1-7.8-30.3c-2.3-18.4-1.8-36.9,5.3-54.6,8.9-22.2,27.6-35.3,50.3-35.1,22,.3,37.4,11.3,47.8,30,2.5,4.5,4.7,9.1,7.1,14,23.7-11.7,47.1-23.3,70.7-35a120.9,120.9,0,0,0-33.6-41.8C906.7,123.7,870,114.2,830,117c-38.8,2.8-71.1,18.9-95.2,49.9-21.8,28.1-31.6,60.5-31.2,95.9.4,32.7,9.3,62.9,29.7,88.8,6.9,8.8,15.7,16.1,23.7,24.1H633a9,9,0,0,1,1.5-1.8c15.7-12.1,26.1-27.8,31.9-46.6,5.3-17.1,6.3-34.7,6.4-52.4.1-47.7,0-95.3.1-143v-5.4H587.2v6.7c0,55.1.1,110.3-.2,165.4-.1,21.5-11.3,33.2-32.6,35.6-20.5,2.4-36.8-8.7-40-27.5-1-5.9-.9-12-.9-17.9-.1-52,0-104,0-156v-6.4H428.7a27.63,27.63,0,0,0-.4,3.7c.2,57.3.1,114.6.8,171.9.4,29.8,11.2,55.2,35.8,73.5H.9Q1.05,188.75,1,1H1281V376h-80V322.7H1090.9V126.4h-84.7V369.5C1006.2,371.7,1006.1,373.8,1006,376ZM386.5,186.6c-7.5-1.7-13.6-3.3-19.7-4.4-13.4-2.4-26.5-8-40.6-3.1-5.3,1.8-11,2.5-16.5,3.7-5.3,1.2-10.5,2.3-15.7,3.4,2.1,5.3,4.8,9.8,5.4,14.7a73.67,73.67,0,0,1,0,19.9c-.7,4.7-2.4,10.2-5.6,13.1-2.8,2.5-2,4.1-2,6.5h97.3c-2.4-4.6-4.4-8.3-6.3-12-1-1.9-2.9-3.8-2.8-5.7C380.7,210.9,376.2,198.1,386.5,186.6Zm-67.1-8.3c13.7-6.1,27.4-4.8,42.3,0-1.5-6.3-3-11-3.5-15.7-.8-7.4-4-12.9-10.4-16.6-3.7-2.1-4.9-5.3-5.2-9.4-.2-2.5-1.2-4.9-1.9-7.4-.7,0-1.3.1-2,.1-.6,2.2-1.7,4.4-1.8,6.7-.2,4.4-1.8,7.3-5.3,10.2-3.7,3-7.7,6.9-9.1,11.2C320.5,163.6,317.8,170,319.4,178.3Z" transform="translate(-0.9 -1)"/><path class="cls-2" d="M465,376c-24.7-18.3-35.5-43.7-35.8-73.5-.7-57.3-.6-114.6-.8-171.9a27.63,27.63,0,0,1,.4-3.7h84.8V289.3c0,6-.1,12.1.9,17.9,3.1,18.8,19.5,29.9,40,27.5,21.3-2.5,32.4-14.1,32.6-35.6.3-55.1.2-110.3.2-165.4V127H673v5.4q0,71.55-.1,143c0,17.7-1,35.3-6.4,52.4-5.9,18.8-16.2,34.5-31.9,46.6a13,13,0,0,0-1.5,1.8Q549,375.9,465,376Z" transform="translate(-0.9 -1)"/><path class="cls-2" d="M757,376c-8-8-16.8-15.3-23.7-24.1-20.5-25.9-29.4-56-29.7-88.8-.4-35.4,9.4-67.8,31.2-95.9,24.1-31,56.4-47.1,95.2-49.9,40-2.9,76.7,6.7,108.4,32.2A119.77,119.77,0,0,1,972,191.3c-23.5,11.6-47,23.2-70.7,35-2.5-4.9-4.6-9.5-7.1-14-10.4-18.7-25.8-29.8-47.8-30-22.7-.3-41.5,12.9-50.3,35.1-7.1,17.7-7.6,36.2-5.3,54.6a121.7,121.7,0,0,0,7.8,30.3c7.1,17.7,20.6,28.5,39.9,30.7,21.1,2.4,39-4.1,51.3-22.1,4.4-6.4,7.5-13.6,11.4-20.8,23.4,11.3,47.2,22.7,71.2,34.3-9.5,19.8-21.9,36.6-39.5,49.3a24.35,24.35,0,0,0-2.9,2.6C872.3,376,814.7,376,757,376Z" transform="translate(-0.9 -1)"/><path class="cls-2" d="M1006,376c.1-2.2.2-4.3.2-6.5V126.4h84.7V322.7H1201V376Z" transform="translate(-0.9 -1)"/><path class="cls-2" d="M386.5,186.6c-10.4,11.5-5.8,24.3-6.6,36.3-.1,1.8,1.8,3.8,2.8,5.7,1.9,3.7,3.9,7.4,6.3,12H291.7c0-2.4-.7-4,2-6.5,3.2-3,5-8.5,5.6-13.1a73.67,73.67,0,0,0,0-19.9c-.7-4.8-3.4-9.4-5.4-14.7,5.2-1.1,10.4-2.3,15.7-3.4,5.5-1.2,11.2-1.9,16.5-3.7,14.1-4.9,27.2.7,40.6,3.1C373,183.4,379.1,185,386.5,186.6ZM305,210.2h-.2c0,4,.1,8,0,11.9-.1,3.2,1.6,4,4.4,3.8,2.4-.2,5.5.6,5.5-3.2,0-8.5-.2-16.9-.2-25.4,0-3.7-2.6-3.5-5.2-3.6-2.9-.1-4.3,1-4.3,4Zm15,0h-.2v12.4c0,3.1,2,3.4,4.3,3.3s5.5.6,5.5-3.2c0-8.5-.2-16.9-.2-25.4,0-3.7-2.5-3.5-5.1-3.6-2.9-.1-4.4,1-4.3,4Zm15-.3h-.1c0,4.1.1,8.3,0,12.4-.1,3.4,2,3.6,4.6,3.6s5.3.4,5.3-3.4c0-8.3-.2-16.6-.2-24.9,0-3.5-2.1-3.9-4.9-3.9-3.1,0-4.7.9-4.6,4.2C335,201.9,335,205.9,335,209.9Zm15,0h-.1c0,4.1.1,8.3,0,12.4-.1,3.4,2,3.6,4.6,3.6s5.3.4,5.3-3.4c0-8.3-.2-16.6-.2-24.9,0-3.5-2.1-3.9-4.9-3.9-3.1,0-4.7.9-4.6,4.2C350,201.9,350,205.9,350,209.9Zm15-.2h-.2c0,4.1.1,8.3,0,12.4-.1,3.2,1.7,3.9,4.4,3.7,2.4-.2,5.4.6,5.4-3.2,0-8.5-.2-16.9-.2-25.4,0-3.7-2.6-3.5-5.2-3.6-3-.1-4.3,1.1-4.3,4C365,201.8,365,205.8,365,209.7Z" transform="translate(-0.9 -1)"/><path class="cls-2" d="M319.4,178.3c-1.6-8.3,1.1-14.7,3.1-20.8,1.4-4.3,5.4-8.2,9.1-11.2,3.5-2.9,5.2-5.8,5.3-10.2.1-2.3,1.1-4.5,1.8-6.7.7,0,1.3-.1,2-.1.7,2.5,1.7,4.9,1.9,7.4.3,4.1,1.5,7.2,5.2,9.4,6.4,3.7,9.6,9.2,10.4,16.6.5,4.8,2.1,9.4,3.5,15.7C346.8,173.5,333.1,172.2,319.4,178.3Z" transform="translate(-0.9 -1)"/><path class="cls-1" d="M305,210.2c0-4.1.1-8.3,0-12.4-.1-3,1.4-4.1,4.3-4,2.6.1,5.1-.1,5.2,3.6.1,8.5.3,16.9.2,25.4,0,3.8-3,3.1-5.5,3.2-2.8.2-4.5-.6-4.4-3.8.1-4,0-8,0-11.9C304.9,210.2,304.9,210.2,305,210.2Z" transform="translate(-0.9 -1)"/><path class="cls-1" d="M320,210.2c0-4.1.1-8.3,0-12.4-.1-3,1.4-4.1,4.3-4,2.6.1,5.1-.1,5.1,3.6.1,8.5.3,16.9.2,25.4,0,3.8-3.1,3.1-5.5,3.2s-4.4-.2-4.3-3.3V210.3C319.9,210.2,319.9,210.2,320,210.2Z" transform="translate(-0.9 -1)"/><path class="cls-1" d="M335,209.9c0-4,.1-8,0-11.9-.1-3.3,1.5-4.3,4.6-4.2,2.8,0,4.9.4,4.9,3.9,0,8.3.2,16.6.2,24.9,0,3.8-2.8,3.3-5.3,3.4s-4.7-.2-4.6-3.6c.1-4.1,0-8.3,0-12.4C334.9,209.9,334.9,209.9,335,209.9Z" transform="translate(-0.9 -1)"/><path class="cls-1" d="M350,209.9c0-4,.1-8,0-11.9-.1-3.3,1.5-4.3,4.6-4.2,2.8,0,4.9.4,4.9,3.9,0,8.3.2,16.6.2,24.9,0,3.8-2.8,3.3-5.3,3.4s-4.7-.2-4.6-3.6c.1-4.1,0-8.3,0-12.4C349.9,209.9,349.9,209.9,350,209.9Z" transform="translate(-0.9 -1)"/><path class="cls-1" d="M365,209.7c0-4,.1-8,0-11.9-.1-3,1.3-4.1,4.3-4,2.6.1,5.2-.2,5.2,3.6.1,8.5.3,16.9.2,25.4,0,3.8-3,3.1-5.4,3.2-2.8.2-4.5-.5-4.4-3.7.1-4.1,0-8.3,0-12.4C364.9,209.7,364.9,209.7,365,209.7Z" transform="translate(-0.9 -1)"/></svg>