<svg data-name="Layer 1" xmlns="http://www.w3.org/2000/svg" viewBox="0 0 129.43 129.43"><defs><linearGradient id="a" x1="3.17" y1="67.66" x2="132.6" y2="67.66" gradientUnits="userSpaceOnUse"><stop offset="0" stop-color="#ffee25"/><stop offset=".02" stop-color="#ffe920"/><stop offset=".1" stop-color="#fed60e"/><stop offset=".19" stop-color="#fdcb04"/><stop offset=".28" stop-color="#fdc700"/><stop offset=".67" stop-color="#f08f34"/><stop offset=".89" stop-color="#e86031"/><stop offset="1" stop-color="#e2312d"/></linearGradient></defs><path d="M67.88 132.38A28.72 28.72 0 0 1 47.51 124L11.57 88a28.89 28.89 0 0 1 0-40.73l35.94-35.92a28.89 28.89 0 0 1 40.73 0l35.94 35.94a28.83 28.83 0 0 1 0 40.73L88.24 124a28.72 28.72 0 0 1-20.36 8.38z" transform="translate(-3.17 -2.95)" fill="url(#a)"/><path d="M85.13 49.9a2.4 2.4 0 0 1-1.73 2.58c-1.94.52-3.69-.65-7.31-1.94-.8-.29-3.38-1.29-4.52-1.62a25.39 25.39 0 0 0-4.39-.78 6.48 6.48 0 0 0-4.85 1.18 3.75 3.75 0 0 0-1.69 3.27 3.25 3.25 0 0 0 1.1 2.51 10 10 0 0 0 2.92 1.76c1.21.5 7.23 2.4 8.84 3a40.32 40.32 0 0 1 4.71 2 17.67 17.67 0 0 1 4.13 2.77 12.61 12.61 0 0 1 2.92 4 13.35 13.35 0 0 1 1.1 5.66 18.24 18.24 0 0 1-1.53 7.36 15.87 15.87 0 0 1-4.48 5.87 21.35 21.35 0 0 1-7.34 3.82 33.69 33.69 0 0 1-10 1.36 31.1 31.1 0 0 1-5.68-.52 39.44 39.44 0 0 1-5.5-1.42 29.9 29.9 0 0 1-4.9-2.12 21.35 21.35 0 0 1-3.86-2.59l3.86-6.89a5.33 5.33 0 0 1 1.66-1.65 4.7 4.7 0 0 1 2.52-.6 5.42 5.42 0 0 1 2.59.62l2.49 1.37a21.25 21.25 0 0 0 3.14 1.36 13.8 13.8 0 0 0 4.53.63 11.38 11.38 0 0 0 3.26-.4 5.85 5.85 0 0 0 2.15-1.07 4.29 4.29 0 0 0 1.17-1.52 3.19 3.19 0 0 0-.75-3.48 12.74 12.74 0 0 0-2.94-1.8 37 37 0 0 0-4.15-1.42q-2.34-.64-4.74-1.49a38.45 38.45 0 0 1-4.75-2 16.4 16.4 0 0 1-4.15-3 13.94 13.94 0 0 1-2.94-4.43 16 16 0 0 1-1.13-6.33 16.15 16.15 0 0 1 1.37-6.57 15.17 15.17 0 0 1 4.1-5.48 20.3 20.3 0 0 1 6.85-3.74 30.46 30.46 0 0 1 9.62-1.44 44 44 0 0 1 7.14.8c3.56.74 7.7 2.47 11.13 3.66z" fill="#fff"/></svg>