<svg xmlns="http://www.w3.org/2000/svg" fill-rule="evenodd" stroke-linejoin="round" stroke-miterlimit="1.4" clip-rule="evenodd" viewBox="0 0 770 687"><path fill="#3c3c3b" fill-rule="nonzero" d="M0 480.5h11.9v32.6h20v9.4H0v-42zM69.2 506.3l-.2 2.8H45.4c.4 1.7 1.4 3 2.8 4 1.3.8 3 1.3 5.1 1.3 1.6 0 3-.3 4-.7a12 12 0 0 0 3.5-2.2l6 6.3c-3.1 3.5-7.7 5.3-13.8 5.3-3.8 0-7.2-.8-10-2.2a16.1 16.1 0 0 1-9.1-14.7 16.3 16.3 0 0 1 8.7-14.6c2.7-1.4 5.8-2.1 9.2-2.1 3.2 0 6.2.6 8.8 2 2.6 1.3 4.7 3.3 6.3 5.8a17 17 0 0 1 2.3 9zm-17.4-8.7c-1.7 0-3.2.5-4.4 1.5-1.1 1-1.9 2.3-2.2 4h13.3c-.3-1.7-1-3-2.2-4a6.6 6.6 0 0 0-4.5-1.5zM87.4 489.5c5.4 0 9.5 1.2 12.4 3.7 2.8 2.4 4.2 6.2 4.2 11.3v18H93.4v-4.2c-1.6 3.2-4.8 4.8-9.6 4.8a15 15 0 0 1-6.5-1.4c-1.9-.8-3.2-2-4.2-3.5a9.5 9.5 0 0 1-1.4-5.2c0-3 1.2-5.4 3.5-7.1 2.4-1.7 6-2.6 11-2.6h6.4c-.2-3.4-2.5-5.1-6.9-5.1A15.8 15.8 0 0 0 77 501l-3.8-7.8a31.2 31.2 0 0 1 14.3-3.8zm-.4 26.4c1.3 0 2.5-.4 3.5-1s1.7-1.6 2.1-2.8v-2.8h-4.9c-3.3 0-5 1-5 3.3 0 1 .4 1.8 1.2 2.4a5 5 0 0 0 3.1.9zM122.1 494c1.2-1.6 2.7-2.7 4.5-3.4 1.9-.8 4-1.1 6.4-1.1v10.2l-2.6-.2a8 8 0 0 0-5.7 2c-1.4 1.3-2 3.4-2 6v15h-11.5V490h10.9v4zM158.9 489.5c4 0 7.3 1.2 9.7 3.6 2.5 2.4 3.7 6 3.7 10.8v18.6H161v-16.7c0-4.5-1.8-6.7-5.3-6.7-2 0-3.6.7-4.7 2-1.2 1.2-1.8 3.1-1.8 5.7v15.7h-11.4V490h10.9v3.5a13 13 0 0 1 4.5-3c1.8-.7 3.7-1 5.8-1zM313.8 29.6c2.4.9 4.3 2.2 5.7 4 1.3 1.7 2 3.9 2 6.4 0 3.7-1.5 6.5-4.4 8.5-3 2-7.3 3-12.9 3h-22.7v-42H303c5.4 0 9.5 1 12.3 3 2.8 2 4.2 4.6 4.2 8a10 10 0 0 1-5.7 9.1zm-20.5-11.5v8.1h8.2c4 0 6-1.4 6-4 0-2.8-2-4.1-6-4.1h-8.2zm10 24.8c4.1 0 6.2-1.4 6.2-4.2 0-2.9-2-4.3-6.2-4.3h-10V43h10zM361.3 19v32.5h-10.8V48a11.7 11.7 0 0 1-4.3 3c-1.7.7-3.5 1-5.4 1-4.2 0-7.5-1.2-10-3.7-2.5-2.4-3.8-6.2-3.8-11.1V19h11.4v16.3c0 2.5.5 4.2 1.4 5.4 1 1 2.3 1.6 4 1.6 1.8 0 3.3-.6 4.4-1.8 1.2-1.3 1.7-3.2 1.7-5.8V19h11.4zM368.7 19H380v32.5h-11.4V19zm5.7-3.6c-2.1 0-3.8-.6-5-1.7a5.6 5.6 0 0 1-2-4.4c0-1.7.6-3.1 2-4.3 1.2-1.1 2.9-1.7 5-1.7 2 0 3.7.5 5 1.6 1.3 1.1 2 2.5 2 4.3 0 1.8-.7 3.3-2 4.4a7.1 7.1 0 0 1-5 1.8zM387.4 7h11.4v44.5h-11.4zM440.8 7v44.5h-10.9v-3.2c-2.1 2.5-5.3 3.8-9.5 3.8-3 0-5.7-.7-8.1-2.1a15 15 0 0 1-5.8-6 18 18 0 0 1-2.1-8.8c0-3.4.7-6.3 2-8.8 1.5-2.6 3.4-4.5 5.9-5.9 2.4-1.4 5.1-2 8-2 4 0 7 1 9 3.3V7h11.5zm-18 36c2 0 3.6-.7 4.8-2 1.3-1.4 2-3.4 2-5.8a8 8 0 0 0-2-5.6 6.4 6.4 0 0 0-4.8-2c-2 0-3.7.6-5 2a7.9 7.9 0 0 0-1.9 5.6c0 2.4.7 4.4 2 5.7 1.2 1.4 2.9 2.1 4.9 2.1zM541.2 533.5l-.1-22.2-10.8 18H525L514.3 512v21.6h-11v-42h9.8l14.7 24.3 14.4-24.3h9.8l.1 42h-10.9zM593.2 517.3l-.2 2.8h-23.6c.5 1.7 1.4 3 2.8 4 1.4.8 3.1 1.3 5.2 1.3 1.6 0 2.9-.3 4-.7a12 12 0 0 0 3.5-2.2l6 6.3c-3.2 3.5-7.8 5.3-13.9 5.3-3.8 0-7.1-.8-10-2.2a16.1 16.1 0 0 1-9-14.7 16.3 16.3 0 0 1 8.6-14.6c2.8-1.4 5.8-2.1 9.2-2.1 3.3 0 6.2.6 8.8 2 2.7 1.3 4.8 3.3 6.3 5.8a17 17 0 0 1 2.3 9zm-17.3-8.7c-1.8 0-3.2.5-4.4 1.5-1.2 1-2 2.3-2.3 4h13.3c-.3-1.7-1-3-2.2-4a6.6 6.6 0 0 0-4.4-1.5zM611.5 500.5c5.4 0 9.5 1.2 12.3 3.7 2.9 2.4 4.3 6.2 4.3 11.3v18h-10.6v-4.2c-1.7 3.2-4.9 4.8-9.6 4.8a15 15 0 0 1-6.6-1.4c-1.8-.8-3.2-2-4.1-3.5a9.5 9.5 0 0 1-1.4-5.2c0-3 1.1-5.4 3.5-7.1 2.4-1.7 6-2.6 11-2.6h6.4c-.2-3.4-2.5-5.1-7-5.1a15.8 15.8 0 0 0-8.7 2.8l-3.9-7.8a31.2 31.2 0 0 1 14.3-3.8zm-.4 26.4c1.3 0 2.4-.4 3.4-1s1.8-1.6 2.2-2.8v-2.8h-5c-3.2 0-5 1-5 3.3 0 1 .5 1.8 1.2 2.4a5 5 0 0 0 3.2.9zM647.1 534a35 35 0 0 1-8-.9c-2.7-.6-4.8-1.4-6.4-2.4l3.4-7.8a23.6 23.6 0 0 0 11.3 3c2 0 3.2-.2 4-.6.8-.3 1.2-.9 1.2-1.6 0-.7-.5-1.2-1.4-1.5l-4.5-1c-2.6-.2-4.8-.7-6.6-1.2-1.9-.5-3.4-1.5-4.8-2.9a8.2 8.2 0 0 1-2-5.8c0-2.1.7-4 2-5.6 1.2-1.6 3-2.9 5.4-3.8 2.3-1 5.2-1.4 8.5-1.4 2.4 0 4.7.2 7 .7 2.3.5 4.3 1.1 5.8 2l-3.4 7.8a19 19 0 0 0-9.3-2.4c-1.8 0-3.2.2-4 .6-.8.4-1.3 1-1.3 1.6 0 .8.5 1.3 1.4 1.6l4.6 1c2.7.4 4.9.8 6.6 1.3 1.8.6 3.3 1.5 4.6 2.9 1.3 1.4 2 3.3 2 5.8 0 2-.6 3.9-1.9 5.5-1.2 1.6-3 2.9-5.5 3.8-2.4 1-5.3 1.4-8.7 1.4zM702.3 501v32.5h-10.9V530a11.7 11.7 0 0 1-4.3 3c-1.7.7-3.4 1-5.3 1-4.2 0-7.6-1.2-10-3.7-2.6-2.4-3.8-6.2-3.8-11.1V501h11.4v16.3c0 2.5.4 4.2 1.4 5.4.9 1 2.2 1.6 4 1.6 1.8 0 3.3-.6 4.4-1.8 1.1-1.3 1.7-3.2 1.7-5.8V501h11.4zM720.5 505c1.2-1.6 2.7-2.7 4.5-3.4 1.9-.8 4-1.1 6.4-1.1v10.2l-2.6-.2a8 8 0 0 0-5.7 2c-1.4 1.3-2 3.4-2 6v15h-11.5V501h10.9v4zM769 517.3l-.2 2.8h-23.6c.5 1.7 1.4 3 2.8 4 1.4.8 3.1 1.3 5.2 1.3 1.6 0 2.9-.3 4-.7a12 12 0 0 0 3.5-2.2l6 6.3c-3.2 3.5-7.8 5.3-13.9 5.3-3.8 0-7.1-.8-10-2.2a16.1 16.1 0 0 1-9-14.7 16.3 16.3 0 0 1 8.6-14.6c2.8-1.4 5.8-2.1 9.2-2.1 3.3 0 6.2.6 8.8 2 2.7 1.3 4.8 3.3 6.3 5.8a17 17 0 0 1 2.3 9zm-17.3-8.7c-1.8 0-3.2.5-4.4 1.5-1.2 1-2 2.3-2.3 4h13.3c-.3-1.7-1-3-2.2-4a6.6 6.6 0 0 0-4.4-1.5z"/><path fill="#f7c216" d="M613 352.7A251.8 251.8 0 0 0 464.4 94L506 0a354.6 354.6 0 0 1 207.4 377.8l21.6 5.4-97.7 93-42.5-128 18.3 4.5zM116 69.8l-10.5-16.2 135-1.4-56.3 122.7-10.7-16.6a251.9 251.9 0 0 0-51 241.7l-98 30.8a354.6 354.6 0 0 1 91.5-361zM222.2 639.8l-11 11.5-26.8-108.5 109.6 22-11.4 11.9a208.5 208.5 0 0 0 204.5-4.7l43.4 73.2a293.6 293.6 0 0 1-308.3-5.4z"/></svg>
