<svg xmlns="http://www.w3.org/2000/svg" aria-labelledby="sort-logo-svg" viewBox="0 0 324.2 88.4"><title>Sort Logo</title><path fill="#3c3c3b" d="M171 30.5a2.6 2.6 0 0 1-1.8 2.8c-2.1.6-4-.7-8-2-.8-.4-3.6-1.5-4.9-1.8a28.1 28.1 0 0 0-4.7-.9 7 7 0 0 0-5.3 1.3 4 4 0 0 0-1.8 3.6 3.5 3.5 0 0 0 1.2 2.7 11.1 11.1 0 0 0 3.1 1.9c1.4.6 7.9 2.6 9.6 3.2a45.7 45.7 0 0 1 5.2 2.2 19.2 19.2 0 0 1 4.5 3 13.7 13.7 0 0 1 3.1 4.3 14.5 14.5 0 0 1 1.2 6.2c0 8.7-4.3 12.6-6.5 14.4a23 23 0 0 1-8 4.2A37 37 0 0 1 147 77a33.9 33.9 0 0 1-6.1-.6 42.8 42.8 0 0 1-6-1.6 32.5 32.5 0 0 1-5.4-2.3 22.6 22.6 0 0 1-4.1-2.8l4.1-7.5a6 6 0 0 1 1.8-1.8 5.2 5.2 0 0 1 2.8-.7 5.8 5.8 0 0 1 2.8.7l2.7 1.5a22.3 22.3 0 0 0 3.4 1.5 15 15 0 0 0 5 .7 12.9 12.9 0 0 0 3.5-.5 6.4 6.4 0 0 0 2.3-1.1 4.6 4.6 0 0 0 1.3-1.7c.3-.6.6-2.7-.8-3.8a14.6 14.6 0 0 0-3.2-2 40.9 40.9 0 0 0-4.5-1.5l-5.2-1.6a43.5 43.5 0 0 1-5.1-2.2 17.6 17.6 0 0 1-4.5-3.3 15 15 0 0 1-3.2-4.8 17.3 17.3 0 0 1-1.3-6.9 17.6 17.6 0 0 1 1.5-7.1 16.6 16.6 0 0 1 4.5-6 21.9 21.9 0 0 1 7.4-4 32.8 32.8 0 0 1 10.5-1.5 47 47 0 0 1 7.8.8c3.8.8 8.3 2.7 12 4zM207 16.2a32.6 32.6 0 0 1 12 2.1 26 26 0 0 1 9.3 6 27.2 27.2 0 0 1 6 9.6 35 35 0 0 1 2.1 12.6 35.7 35.7 0 0 1-2.1 12.7 27.4 27.4 0 0 1-6 9.6 26.2 26.2 0 0 1-9.3 6 32.2 32.2 0 0 1-12 2.2 32.7 32.7 0 0 1-12-2.1 26.4 26.4 0 0 1-15.5-15.7 35.7 35.7 0 0 1-2.2-12.7 35 35 0 0 1 2.2-12.6 26.2 26.2 0 0 1 15.4-15.6 33 33 0 0 1 12-2zm0 47.8q6 0 8.8-4.3t2.8-13q0-8.9-2.8-13t-8.8-4.3q-6.2 0-9 4.2t-2.9 13q0 8.8 2.9 13t9 4.4zM244.5 76v-59h10a16.2 16.2 0 0 1 3 .3 4 4 0 0 1 1.4.7 3 3 0 0 1 1 1.3l1.5 5c5-6.7 10.3-8 15-8 3.6 0 6.8.7 8.3 2v13.4c0 1-.2 1.4-.5 1.6s-.8.5-2 .2l-1.2-.1-2-.2c-9-.7-16.2 6.2-16.5 12v30.9zm51.3-3.7a14.3 14.3 0 0 1-3.4-5.5 20.8 20.8 0 0 1-1.1-7V2.6c.4-1.8 1.8-2.7 4-2.7h12.4v18.2h14.7l-3.6 13h-11.1v27.4a5.4 5.4 0 0 0 1 3.4 3.5 3.5 0 0 0 3 1.3 6 6 0 0 0 1.6-.2 7.2 7.2 0 0 0 1.2-.5l.9-.4a2.5 2.5 0 0 1 1-.2 2.1 2.1 0 0 1 1.3.4 4.5 4.5 0 0 1 1 1.1l5.5 8.4a25.3 25.3 0 0 1-7.9 3.8c-2.8 1-14 3-20.5-3.3z"/><path fill="#ed6d11" d="M80.8 31.6L57 7.9a13.6 13.6 0 0 0-5.2 2.7l1 .9 24 24a13.7 13.7 0 0 1 0 19.4l-24 24-1 .9a13.5 13.5 0 0 0 5.2 2.6l23.7-23.6a19.3 19.3 0 0 0 0-27.2z"/><path fill="#be1622" d="M66.8 88.4a19.2 19.2 0 0 1-13.6-5.7l-24-24a19.3 19.3 0 0 1 0-27.1l24-24a19.3 19.3 0 0 1 27.2 0l24 24a19.2 19.2 0 0 1 0 27.1l-24 24a19.1 19.1 0 0 1-13.6 5.7zm0-81a13.7 13.7 0 0 0-9.7 4l-24 24A13.8 13.8 0 0 0 33 55l24 24a13.8 13.8 0 0 0 19.4 0l24-24a13.8 13.8 0 0 0 0-19.4l-24-24a13.7 13.7 0 0 0-9.7-4z"/><path fill="#fcbf25" d="M47.4 82.2l-1.5.4a13.7 13.7 0 0 1-12.4-3.7l-24-24a13.8 13.8 0 0 1 0-19.5l24-24A13.7 13.7 0 0 1 46.7 8l4.7-4.1A20.6 20.6 0 0 0 43.1 2a19 19 0 0 0-13.6 5.6l-24 24a19.2 19.2 0 0 0 0 27.2l24 24a19.3 19.3 0 0 0 22.3 3.5l-4.5-4z"/></svg>
