<svg id="Layer_1" data-name="Layer 1" xmlns="http://www.w3.org/2000/svg" viewBox="0 0 324.24 88.36"><defs><style>.cls-1{fill:#3c3c3b}</style></defs><path class="cls-1" d="M430.79 284.49a2.6 2.6 0 0 1-1.88 2.8c-2.11.57-4-.7-7.94-2.11-.87-.31-3.68-1.4-4.92-1.76a28.14 28.14 0 0 0-4.77-.85 7.09 7.09 0 0 0-5.27 1.29 4.08 4.08 0 0 0-1.83 3.55 3.54 3.54 0 0 0 1.19 2.73 11.11 11.11 0 0 0 3.18 1.91c1.31.55 7.85 2.61 9.6 3.21a45.74 45.74 0 0 1 5.12 2.14 19.17 19.17 0 0 1 4.49 3 13.73 13.73 0 0 1 3.17 4.36 14.49 14.49 0 0 1 1.19 6.14c0 8.79-4.34 12.67-6.49 14.45a23.08 23.08 0 0 1-8 4.16 37 37 0 0 1-10.89 1.49 33.89 33.89 0 0 1-6.17-.57 42.8 42.8 0 0 1-6-1.54 32.55 32.55 0 0 1-5.32-2.3 22.61 22.61 0 0 1-4.19-2.88l4.19-7.48a5.94 5.94 0 0 1 1.8-1.8 5.17 5.17 0 0 1 2.74-.65 5.85 5.85 0 0 1 2.82.68l2.71 1.48a22.32 22.32 0 0 0 3.4 1.48 14.94 14.94 0 0 0 4.92.69 12.9 12.9 0 0 0 3.55-.43 6.44 6.44 0 0 0 2.33-1.17 4.62 4.62 0 0 0 1.28-1.65c.27-.6.59-2.71-.81-3.78a14.6 14.6 0 0 0-3.2-2 40.88 40.88 0 0 0-4.52-1.54q-2.52-.7-5.15-1.62a43.46 43.46 0 0 1-5.15-2.19 17.55 17.55 0 0 1-4.51-3.24 14.94 14.94 0 0 1-3.2-4.81 17.32 17.32 0 0 1-1.23-6.89 17.61 17.61 0 0 1 1.49-7.14 16.57 16.57 0 0 1 4.45-5.94 21.85 21.85 0 0 1 7.45-4.07 32.77 32.77 0 0 1 10.48-1.51 47 47 0 0 1 7.76.87c3.87.8 8.37 2.68 12.1 4zM466.59 270.17a32.62 32.62 0 0 1 12 2.11 26.06 26.06 0 0 1 9.28 6 27.16 27.16 0 0 1 6 9.53 35 35 0 0 1 2.15 12.6 35.69 35.69 0 0 1-2.15 12.72 27.41 27.41 0 0 1-6 9.61 26.2 26.2 0 0 1-9.28 6.09 32.21 32.21 0 0 1-12 2.14 32.66 32.66 0 0 1-12.07-2.14 26.37 26.37 0 0 1-15.43-15.7 35.69 35.69 0 0 1-2.15-12.72 35 35 0 0 1 2.15-12.6 26.21 26.21 0 0 1 15.43-15.56 33.07 33.07 0 0 1 12.07-2.08zm0 47.74q6 0 8.78-4.3t2.81-13.05q0-8.78-2.81-13t-8.78-4.26q-6.13 0-9 4.26t-2.85 13q0 8.76 2.85 13.05t9 4.3zM504.19 330.09v-59h10.07a16.19 16.19 0 0 1 2.89.23 4 4 0 0 1 1.51.71 3 3 0 0 1 .93 1.28c.21.53 1.47 5.07 1.47 5.07 5-6.76 10.3-8.05 15.11-8.05 3.56 0 6.7.71 8.24 2.05 0 0-.12 9 0 13.34 0 1-.23 1.4-.53 1.65s-.73.44-2 .21l-1.18-.15c-.77-.11-1.11-.12-2-.19-9-.68-16.24 6.24-16.54 12v30.9zM555.51 326.3a14.35 14.35 0 0 1-3.41-5.43 20.76 20.76 0 0 1-1.13-7.11v-57.08c.46-1.82 1.84-2.73 4-2.73h12.43v18.22h14.67l-3.52 13h-11.14v27.35a5.42 5.42 0 0 0 1 3.39 3.47 3.47 0 0 0 2.94 1.33 6.06 6.06 0 0 0 1.66-.19 7.18 7.18 0 0 0 1.16-.46l.93-.46a2.51 2.51 0 0 1 1-.2 2.1 2.1 0 0 1 1.31.38 4.48 4.48 0 0 1 1 1.16l5.47 8.37a25.29 25.29 0 0 1-7.85 3.84c-2.86.89-14.1 2.89-20.52-3.38z" transform="translate(-259.71 -253.95)"/><path d="M340.49 285.52l-23.65-23.65a13.64 13.64 0 0 0-5.21 2.65c.34.29.67.58 1 .9l24 24a13.74 13.74 0 0 1 0 19.42l-24 24q-.48.48-1 .9a13.5 13.5 0 0 0 5.21 2.65l23.65-23.65a19.26 19.26 0 0 0 0-27.22z" transform="translate(-259.71 -253.95)" fill="#ed6d11"/><path d="M326.47 342.31a19.16 19.16 0 0 1-13.6-5.62l-24-24a19.28 19.28 0 0 1 0-27.19l24-24a19.28 19.28 0 0 1 27.19 0l24 24a19.24 19.24 0 0 1 0 27.19l-24 24a19.15 19.15 0 0 1-13.59 5.62zm0-80.91a13.66 13.66 0 0 0-9.71 4l-24 24a13.76 13.76 0 0 0 0 19.42l24 24a13.76 13.76 0 0 0 19.42 0l24-24a13.76 13.76 0 0 0 0-19.42l-24-24a13.7 13.7 0 0 0-9.71-4z" transform="translate(-259.71 -253.95)" fill="#be1622"/><path d="M307.09 336.19c-.25.07-1.18.3-1.44.35a13.72 13.72 0 0 1-12.45-3.73l-24-24a13.76 13.76 0 0 1 0-19.42l24-24a13.71 13.71 0 0 1 13.21-3.55l4.67-4.13h-.05a20.58 20.58 0 0 0-8.12-1.79 19.09 19.09 0 0 0-13.6 5.61l-24 24a19.24 19.24 0 0 0 0 27.19l24 24a19.25 19.25 0 0 0 22.32 3.53c-1.34-1.19-4.54-4.06-4.54-4.06z" transform="translate(-259.71 -253.95)" fill="#fcbf25"/></svg>